<svg width="380" height="412" viewBox="0 0 380 412" fill="none" xmlns="http://www.w3.org/2000/svg">
<path d="M257.386 319.867L104.987 364.396C100.816 365.631 96.4529 362.955 95.2978 358.495L39.9207 141.957C38.7657 137.497 41.2683 132.832 45.4392 131.597L197.838 87.0678C202.009 85.8328 206.373 88.5087 207.528 92.9685L262.905 309.575C264.06 314.035 261.557 318.632 257.386 319.867Z" fill="#D6D7F0"/>
<path d="M255.718 338.186L113.136 410.846C109.222 412.836 104.474 411.052 102.613 406.867L12.2001 204.257C10.3392 200.071 12.0075 194.994 15.9218 193.004L158.503 120.345C162.418 118.355 167.166 120.139 169.027 124.324L259.376 326.934C261.301 331.119 259.632 336.128 255.718 338.186Z" fill="#E8E8F7"/>
<path d="M198.352 9.74287C209.26 21.7498 215.356 35.0604 222.222 49.8805C224.147 53.9972 235.826 45.7639 234.927 41.7845C231.334 25.8667 221.516 12.007 210.672 0.823396C207.079 -2.813 195.4 6.58675 198.352 9.74287Z" fill="#F3E9E1"/>
<path d="M264.573 8.23369C264.252 22.9853 261.429 36.7077 258.734 51.0476C257.579 57.36 268.937 49.9499 270.092 46.6565C275.161 32.591 276.573 16.6043 276.444 1.64686C276.316 -2.74433 264.637 3.84251 264.573 8.23369Z" fill="#F3E9E1"/>
<path d="M291.781 69.092C300.315 64.6322 308.849 60.3097 317.448 56.1244C320.528 54.6149 324.57 50.7728 323.736 46.6561C322.838 42.5394 317.961 42.8824 315.202 44.2547C306.539 48.44 298.005 52.6939 289.535 57.2223C286.455 58.8003 282.348 62.5053 283.246 66.6906C284.08 70.6701 289.021 70.5329 291.781 69.092Z" fill="#F3E9E1"/>
<path d="M234.478 153.072C235.954 149.71 230.5 143.604 222.222 139.419C213.945 135.233 206.052 134.616 204.576 137.978C203.1 141.34 208.554 147.446 216.832 151.631C225.11 155.748 233.002 156.434 234.478 153.072Z" fill="#D4BFA9"/>
<path d="M207.464 132.283C210.287 126.383 212.661 120.276 213.688 113.689C215.87 99.6241 211.827 83.432 219.848 72.0424C225.623 63.8091 236.211 60.996 245.772 62.1624C257.386 63.5347 268.68 70.4644 274.327 81.3737C279.974 92.3515 279.075 107.172 270.99 116.228C264.188 123.776 253.793 126.52 246.606 133.724C242.628 137.772 239.868 142.987 236.917 147.995L235.954 149.505C213.303 147.79 207.464 132.283 207.464 132.283Z" fill="#EBDBCD"/>
<path d="M246.35 109.23C245.259 105.525 242.307 105.868 239.612 107.171C238.906 105.182 237.815 102.574 235.762 101.82C233.516 100.996 231.013 102.643 229.409 104.152C225.752 107.377 222.928 112.111 221.388 116.846C219.784 121.648 219.142 126.726 217.666 131.597C217.089 133.587 219.976 134.341 220.618 132.352C222.415 126.177 222.992 119.521 226.008 113.827C227.677 110.671 230.115 106.966 233.195 105.319C234.222 104.77 234.928 104.701 235.698 105.799C236.275 106.622 236.66 107.652 236.981 108.543C237.045 108.612 237.045 108.75 237.045 108.818C236.66 109.093 236.339 109.367 236.019 109.641C233.003 112.18 229.088 116.708 229.217 121.168C229.281 123.158 230.564 124.873 232.489 124.942C234.671 125.01 236.724 123.158 238.008 121.443C240.382 118.218 241.152 114.17 240.446 110.19C241.088 109.779 241.794 109.504 242.435 109.436C244.296 109.23 243.59 112.523 243.334 113.621C242.435 117.257 240.639 120.551 238.842 123.707C237.494 126.108 236.275 128.647 234.607 130.842C232.746 133.244 230.307 134.959 227.933 136.674C226.329 137.841 227.933 140.516 229.537 139.419C232.297 137.429 235.12 135.302 237.238 132.42C239.419 129.402 241.216 125.902 243.013 122.609C244.874 118.972 247.633 113.552 246.35 109.23ZM237.559 114.993C237.238 116.64 236.532 118.286 235.505 119.59C234.928 120.345 232.104 123.089 232.233 120.619C232.297 119.11 233.323 117.6 234.093 116.434C235.12 114.856 236.339 113.484 237.687 112.249C237.751 113.209 237.687 114.101 237.559 114.993Z" fill="#BFA990"/>
<path d="M216.832 151.631C209.389 147.858 204.255 142.575 204.384 139.075H204.319L201.047 153.209C199.828 155.954 204.319 160.894 210.929 164.256C217.602 167.618 223.955 168.167 225.174 165.422C225.238 165.285 225.302 165.148 225.302 165.011L233.773 153.964H233.708C231.398 156.228 224.276 155.337 216.832 151.631Z" fill="#BFA990"/>
<path d="M175.893 230.398C172.171 223.537 167.166 218.116 159.594 216.675C153.242 215.44 146.44 217.91 140.793 221.135C140.344 221.341 140.023 221.615 139.638 221.821C139.189 217.636 138.483 213.451 137.199 209.54C135.403 203.639 132.515 196.847 126.548 194.72C121.029 192.799 114.805 195.68 109.864 198.288C99.7895 203.639 91.3835 213.656 87.405 224.84C85.48 230.329 85.4158 237.396 87.3409 242.885C87.8542 244.257 88.56 245.767 89.4584 246.728C89.6509 247.071 89.8434 247.482 90.1001 247.825C96.6452 258.734 103.062 269.781 108.901 281.17C109.671 283.366 110.762 285.905 112.11 287.483C112.174 287.551 112.174 287.551 112.238 287.689C114.356 292.011 116.409 296.402 118.398 300.793C115.126 304.361 114.548 311.291 114.42 315.614C114.291 319.662 114.484 323.984 115.639 327.826C116.537 330.777 117.757 335.099 120.58 336.54C132.002 342.509 147.146 333.796 155.872 325.768C167.358 315.202 175.315 301.205 179.615 285.768C184.363 268.683 184.491 246.316 175.893 230.398ZM109.864 232.25C113.329 230.329 117.051 228.82 120.965 228.408C122.505 228.202 123.917 228.202 125.264 229.026C125.136 229.643 125.072 230.398 125.008 230.604C124.879 231.015 124.815 231.358 124.815 231.496C124.751 231.839 124.687 232.113 124.687 232.25C124.43 233.005 124.173 233.76 123.917 234.583C123.853 234.72 123.788 234.789 123.788 234.926C119.617 239.455 115.96 244.532 112.816 249.746C110.056 245.149 107.105 240.621 104.025 236.23C105.821 234.72 107.746 233.417 109.864 232.25ZM164.278 269.163C162.867 272.663 157.862 280.278 154.268 284.189C150.354 288.512 144.836 292.629 139.317 295.305C138.547 295.648 137.777 295.922 137.007 296.196C134.312 289.129 130.975 282.337 127.51 275.613C128.858 273.486 130.141 271.359 131.232 269.095C135.21 264.978 139.702 261.41 144.707 258.46C149.712 255.51 156.322 252.971 161.904 255.647C162.546 255.99 163.252 256.402 163.829 256.813C164.792 257.637 164.984 257.774 164.471 257.156C164.792 257.431 166.268 259.627 166.46 259.764C166.588 260.107 166.781 260.518 166.973 260.93C166.973 260.999 166.973 260.999 166.973 261.067C166.973 261.136 166.973 261.136 166.973 261.136C166.781 261.959 166.653 262.851 166.396 263.674C166.332 263.743 166.332 263.812 166.332 263.881C165.626 265.733 164.984 267.448 164.278 269.163Z" fill="#D6D7F0"/>
<path d="M1.03486 282.542C0.906523 282.611 0.842354 282.611 0.714017 282.611C0.264836 282.611 -0.0559922 282.199 0.00817651 281.788C0.0723453 280.141 0.264836 278.426 0.714017 276.779C0.842354 276.299 1.22737 276.093 1.67655 276.162C2.12573 276.299 2.31825 276.71 2.25408 277.191C1.86907 278.7 1.67656 280.278 1.6124 281.856C1.48406 282.131 1.29154 282.405 1.03486 282.542Z" fill="#110580"/>
<path d="M133.221 281.238C133.157 281.307 133.029 281.307 132.964 281.307H131.809C129.178 281.376 126.419 281.376 123.468 281.376C123.018 281.376 122.698 281.032 122.698 280.484C122.698 280.072 123.018 279.66 123.532 279.66C126.419 279.66 129.178 279.66 131.809 279.592H132.964C133.414 279.592 133.734 279.935 133.734 280.415C133.734 280.758 133.542 281.101 133.221 281.238ZM114.292 280.69C114.163 280.758 114.035 280.758 113.971 280.758C110.57 280.415 107.49 279.866 104.538 279.111C104.089 278.974 103.896 278.562 103.96 278.082C104.089 277.671 104.474 277.396 104.923 277.533C107.811 278.288 110.826 278.768 114.099 279.18C114.548 279.249 114.805 279.66 114.805 280.072C114.805 280.346 114.612 280.621 114.292 280.69ZM96.0678 275.818C95.8753 275.887 95.6828 275.887 95.4903 275.818C92.5385 274.446 89.7151 272.731 87.1484 270.741C86.8276 270.467 86.6993 269.986 86.9559 269.574C87.2126 269.231 87.6618 269.094 88.0468 269.369C90.5493 271.29 93.1802 272.936 96.0678 274.309C96.4528 274.514 96.6453 274.995 96.4528 275.406C96.3886 275.612 96.2603 275.75 96.0678 275.818ZM80.86 264.086C80.6033 264.223 80.2183 264.154 79.9616 263.88C77.7799 261.273 75.919 258.528 74.3789 255.509C74.1864 255.098 74.3148 254.617 74.6998 254.411C75.0848 254.206 75.534 254.343 75.7265 254.754C77.2024 257.567 79.0632 260.312 81.1166 262.782C81.3733 263.125 81.3733 263.605 81.0524 263.948C80.9883 264.017 80.9241 264.086 80.86 264.086ZM82.015 252.147C80.4107 252.833 78.7424 253.382 77.0099 253.794C76.5607 253.931 76.1757 253.588 76.0474 253.177C75.919 252.696 76.1756 252.285 76.6248 252.147C78.2932 251.736 79.8974 251.187 81.4374 250.569C82.785 250.02 84.0683 249.403 85.2234 248.648C85.6084 248.442 86.0575 248.58 86.25 248.991C86.4425 249.403 86.3142 249.883 85.9292 250.089C84.71 250.912 83.3625 251.53 82.015 252.147ZM67.7055 255.029C67.6413 255.097 67.513 255.097 67.4488 255.097C64.6896 255.235 61.7378 255.166 57.9519 254.892C57.5027 254.823 57.1819 254.48 57.2461 254C57.3102 253.519 57.6311 253.177 58.0803 253.245C61.8662 253.52 64.7538 253.588 67.4488 253.451C67.898 253.451 68.2188 253.794 68.2188 254.274C68.2188 254.617 68.0264 254.892 67.7055 255.029ZM93.1802 243.845C92.9235 243.983 92.6027 243.914 92.4102 243.708C92.0894 243.434 92.0252 242.885 92.2819 242.542C93.3085 241.17 94.2069 239.729 94.9127 238.219C95.4902 236.916 95.9394 235.475 96.1961 233.965C96.2603 233.485 96.7095 233.211 97.0945 233.279C97.4795 233.348 97.8003 233.828 97.7361 234.24C97.4795 235.886 96.9662 237.533 96.3245 238.974C95.6186 240.621 94.5919 242.199 93.5011 243.64C93.3727 243.777 93.3086 243.845 93.1802 243.845ZM71.7481 246.59C71.6839 246.59 71.6839 246.658 71.6197 246.658C71.1706 246.796 70.7856 246.521 70.6572 246.041C69.7589 242.542 69.5022 239.043 69.7589 235.749C69.823 235.269 70.2081 234.995 70.5931 234.995C70.9781 234.995 71.2989 235.475 71.2989 235.886C71.0422 239.043 71.363 242.267 72.133 245.629C72.3256 245.972 72.1331 246.453 71.7481 246.59ZM48.8401 254.068C48.7117 254.137 48.6476 254.137 48.5192 254.137C47.4284 254.068 46.3375 254 45.1824 253.931C43.0007 253.794 41.0115 253.794 39.0865 253.794C38.6373 253.794 38.3165 253.451 38.3165 252.97C38.3165 252.49 38.6373 252.147 39.0865 252.147C41.0115 252.079 43.065 252.216 45.2467 252.284C46.3375 252.353 47.4925 252.422 48.5834 252.49C49.0326 252.559 49.3534 252.971 49.2892 253.382C49.2892 253.657 49.0967 253.931 48.8401 254.068ZM5.78328 268.683C5.52661 268.82 5.26987 268.751 5.07737 268.545C4.75653 268.271 4.62824 267.79 4.88491 267.379C6.74578 264.634 9.05581 262.165 11.7509 260.106C12.0717 259.832 12.5851 259.9 12.8418 260.312C13.0984 260.655 13.0342 261.204 12.6492 261.479C10.0825 263.468 7.90083 265.732 6.10412 268.408C6.03995 268.477 5.91161 268.614 5.78328 268.683ZM29.9746 254.411C29.9105 254.48 29.8463 254.48 29.7821 254.48C26.5095 255.029 23.5578 255.852 20.7986 256.881C20.3494 257.019 19.9644 256.813 19.7719 256.401C19.6435 255.989 19.8361 255.509 20.2211 255.372C23.1087 254.274 26.1887 253.451 29.5255 252.902C29.9747 252.834 30.3596 253.177 30.4238 253.588C30.4879 253.931 30.2955 254.343 29.9746 254.411ZM96.1961 224.977C95.8111 225.115 95.3619 224.909 95.2336 224.497C94.1427 221.958 92.4744 220.037 90.2927 219.008C89.8435 218.802 89.3943 218.596 88.881 218.459C88.4318 218.322 88.2393 217.842 88.3676 217.43C88.4959 216.95 88.9451 216.744 89.3301 216.881C89.9076 217.019 90.421 217.224 90.9343 217.499C93.4369 218.734 95.4261 220.929 96.6453 223.811C96.8378 224.291 96.6453 224.771 96.1961 224.977C96.2603 224.977 96.2603 224.977 96.1961 224.977ZM73.6731 226.967C73.4806 227.036 73.2239 227.036 72.9673 226.898C72.5823 226.692 72.4539 226.144 72.7106 225.732C74.4431 222.645 76.8815 220.106 79.6408 218.459C80.0258 218.253 80.4749 218.391 80.6674 218.734C80.8599 219.145 80.7316 219.626 80.4107 219.831C77.844 221.341 75.5981 223.742 74.0581 226.555C73.9298 226.83 73.8656 226.898 73.6731 226.967Z" fill="#110580"/>
<path d="M147.21 282.405C147.017 282.474 146.825 282.474 146.632 282.405C145.541 281.925 144.13 281.651 142.397 281.513C141.948 281.445 141.691 281.033 141.691 280.622C141.755 280.141 142.14 279.867 142.526 279.867C144.451 280.073 145.991 280.416 147.21 280.896C147.595 281.033 147.787 281.513 147.659 281.994C147.595 282.131 147.402 282.337 147.21 282.405Z" fill="#110580"/>
<path d="M258.541 399.388L263.418 393.899C265.087 392.047 265.022 389.096 263.226 387.312L180.128 302.989L169.219 315.27L252.317 399.594C254.114 401.309 256.937 401.241 258.541 399.388Z" fill="#FF5856"/>
<path d="M169.348 315.133L180.192 302.851L160.236 291.805L157.99 294.344L169.348 315.133Z" fill="#EBDBCD"/>
<path d="M168.321 298.804L165.818 299.901L164.984 301.754L162.738 303.057L158.054 294.413L160.3 291.874L168.321 296.334V298.804Z" fill="#FF5856"/>
<path d="M355.179 227.173C358.387 206.727 345.682 187.378 326.752 183.947C307.823 180.517 289.855 194.377 286.647 214.823C283.439 235.269 296.144 254.618 315.074 258.048C334.003 261.41 351.97 247.619 355.179 227.173Z" fill="#FF5856"/>
<path d="M370.771 237.808L332.72 230.947C328.805 230.261 326.11 226.281 326.816 222.027V221.959C327.458 217.773 331.18 214.892 335.158 215.646L373.21 222.507C377.124 223.194 379.819 227.173 379.113 231.427V231.496C378.407 235.681 374.686 238.494 370.771 237.808Z" fill="#FF5856"/>
<path d="M346.516 225.595C348.954 210.295 339.457 195.886 325.276 193.279C311.159 190.74 297.748 201.032 295.31 216.332C292.871 231.633 302.368 246.041 316.549 248.648C330.666 251.187 344.077 240.895 346.516 225.595Z" fill="#D4BFA9"/>
<path d="M305.962 223.331C305.513 221.616 305.577 219.694 306.924 218.391C308.272 217.087 309.876 217.43 311.288 218.322C314.175 220.106 317.319 223.056 320.849 221.135C323.993 219.42 324.378 215.372 324.57 212.01C324.699 210.363 324.763 208.305 325.918 207.001C327.201 205.629 329.062 206.452 330.281 207.413C331.886 208.648 333.426 205.835 331.821 204.531C328.549 201.993 324.25 202.61 322.389 206.59C321.362 208.785 321.49 211.186 321.298 213.588C321.17 215.303 320.72 217.842 318.859 218.254C316.934 218.734 314.945 216.675 313.405 215.715C311.608 214.548 309.555 213.656 307.502 214.205C303.395 215.303 301.919 220.106 302.946 224.086C303.523 226.281 306.539 225.389 305.962 223.331Z" fill="#EBDBCD"/>
<path d="M311.287 235.887C310.967 231.907 316.357 232.936 318.41 233.348C321.234 233.897 324.891 235.338 327.65 233.828C330.153 232.456 330.987 229.368 331.372 226.624C331.885 223.399 332.72 220.449 335.992 219.557C337.917 219.008 337.083 215.852 335.158 216.332C332.142 217.087 329.768 219.557 328.87 222.782C328.164 225.389 328.549 231.084 324.891 231.084C323.095 231.084 321.234 230.466 319.501 230.123C317.768 229.78 315.972 229.368 314.175 229.506C311.095 229.78 307.822 232.181 308.207 235.818C308.4 238.013 311.544 238.082 311.287 235.887Z" fill="#EBDBCD"/>
</svg>
