<svg width="426" height="412" viewBox="0 0 426 412" fill="none" xmlns="http://www.w3.org/2000/svg">
<path d="M151.244 353.967C151.077 353.967 150.911 353.878 150.744 353.7C150.578 353.522 150.411 353.433 150.328 353.255C150.245 353.077 150.161 352.899 150.161 352.721C150.161 352.543 150.161 352.276 150.161 352.098C150.245 351.92 150.328 351.742 150.411 351.564C152.077 349.071 153.991 346.756 156.156 344.709C156.323 344.531 156.489 344.441 156.656 344.352C156.822 344.263 157.072 344.174 157.238 344.264C157.405 344.264 157.655 344.263 157.821 344.352C157.988 344.441 158.155 344.531 158.321 344.709C158.488 344.887 158.571 345.064 158.654 345.242C158.737 345.421 158.737 345.688 158.737 345.866C158.737 346.044 158.654 346.311 158.571 346.489C158.487 346.667 158.321 346.845 158.154 346.934C156.156 348.893 154.408 351.029 152.826 353.344C152.659 353.611 152.41 353.789 152.16 353.878C151.827 354.056 151.494 354.056 151.244 353.967Z" fill="#110580"/>
<path d="M250.824 362.246C250.657 362.246 250.407 362.069 250.241 361.979C248.575 360.644 246.994 359.309 245.412 358.062C242.248 355.57 239.25 353.344 236.336 351.297C236.169 351.208 236.003 351.029 235.837 350.851C235.753 350.673 235.587 350.495 235.587 350.317C235.503 350.139 235.503 349.872 235.587 349.694C235.587 349.516 235.67 349.249 235.753 349.071C235.837 348.893 236.003 348.715 236.17 348.626C236.336 348.537 236.502 348.448 236.752 348.358C236.919 348.358 237.169 348.358 237.335 348.358C237.502 348.448 237.752 348.537 237.835 348.626C240.832 350.673 243.913 352.988 247.077 355.48C248.742 356.816 250.324 358.152 251.906 359.398C252.156 359.665 252.322 359.932 252.405 360.288C252.489 360.644 252.405 361 252.239 361.267C252.072 361.623 251.823 361.801 251.573 361.979C251.406 362.247 251.073 362.335 250.824 362.246ZM171.476 338.032C171.143 337.943 170.893 337.765 170.727 337.498C170.56 337.231 170.394 336.964 170.394 336.608C170.394 336.251 170.477 335.895 170.643 335.717C170.81 335.45 171.06 335.183 171.31 335.094C176.888 332.957 182.716 331.711 188.628 331.444C189.044 331.444 189.377 331.533 189.627 331.889C189.96 332.156 190.126 332.512 190.126 332.957C190.126 333.403 190.043 333.759 189.793 334.026C189.544 334.382 189.128 334.56 188.795 334.56C183.216 334.827 177.637 335.984 172.392 338.032C172.059 338.032 171.809 338.121 171.476 338.032ZM221.765 342.572C221.682 342.572 221.516 342.483 221.432 342.483C216.354 339.902 211.025 337.943 205.53 336.518C205.363 336.518 205.197 336.43 205.03 336.252C204.864 336.162 204.78 335.984 204.697 335.806C204.614 335.628 204.531 335.45 204.447 335.272C204.447 335.094 204.447 334.827 204.447 334.649C204.531 334.293 204.78 333.937 205.113 333.759C205.446 333.581 205.78 333.492 206.196 333.581C211.858 335.094 217.436 337.142 222.681 339.812C223.014 339.991 223.264 340.258 223.348 340.614C223.514 340.97 223.514 341.326 223.431 341.682C223.347 342.038 223.098 342.394 222.765 342.483C222.432 342.661 222.098 342.661 221.765 342.572Z" fill="#110580"/>
<path d="M357.48 55.3743C356.564 55.0182 355.649 55.1069 354.816 55.463C353.983 55.8191 353.234 56.5315 352.818 57.4217L320.346 124.458C321.012 124.814 321.762 124.993 322.428 125.082C323.094 125.082 323.843 124.993 324.509 124.636L422.09 80.8354C422.756 80.5683 423.339 80.0342 423.839 79.5C424.338 78.8768 424.671 78.2538 424.921 77.4526L357.48 55.3743Z" fill="#D5D5ED"/>
<path d="M396.613 6.40967C396.446 6.32064 396.363 6.32047 396.196 6.23145C396.363 6.32047 396.446 6.40967 396.613 6.40967Z" fill="white"/>
<path d="M358.729 72.3777C359.562 72.5558 360.477 72.4669 361.31 72.1108C362.143 71.7547 362.809 71.1315 363.308 70.3303L396.53 6.40968C396.446 6.40968 396.279 6.32048 396.196 6.23145H396.113H396.03C395.697 6.14242 395.364 6.05322 395.114 6.05322L395.53 6.14234C394.698 6.05331 393.782 6.14225 392.949 6.49835L295.368 50.2994C294.202 50.8336 293.286 51.8129 292.787 53.0593L358.729 72.3777Z" fill="white"/>
<path d="M347.489 69.0842L292.787 53.0596C292.704 53.2376 292.62 53.4158 292.537 53.5938C292.121 54.9292 292.204 56.3536 292.704 57.6L317.849 121.342C318.348 122.677 319.347 123.746 320.513 124.369L347.489 69.0842Z" fill="#E8E8F7"/>
<path d="M424.588 78.4316L424.505 78.6099L424.588 78.4316Z" fill="#E8E8F7"/>
<path d="M424.505 78.6099C424.338 78.8768 424.172 79.2326 423.922 79.4995C424.172 79.2326 424.338 78.9657 424.505 78.6099Z" fill="#E8E8F7"/>
<path d="M396.53 6.40967L368.97 59.3802L425.005 77.4523C424.921 77.8084 424.755 78.0755 424.588 78.4316C425.005 77.6304 425.171 76.7399 425.255 75.9387C425.338 75.0484 425.171 74.1582 424.838 73.357L399.777 9.61426C399.444 8.90205 399.027 8.1901 398.528 7.65595C397.862 7.12179 397.196 6.67675 396.53 6.40967Z" fill="#E8E8F7"/>
<path d="M397.112 6.67676C396.946 6.58749 396.779 6.58732 396.613 6.49805C396.779 6.58732 396.946 6.58749 397.112 6.67676Z" fill="#E8E8F7"/>
<path d="M89.1315 333.313C88.3822 332.334 87.2996 331.622 86.0507 331.355C84.8018 331.087 83.5531 331.354 82.554 332.067L1.12494 382.1C1.6245 382.99 2.29083 383.791 3.04018 384.414C3.87278 385.037 4.7884 385.393 5.70427 385.572L144.333 411.567C145.332 411.745 146.331 411.656 147.247 411.389C148.163 411.122 149.079 410.588 149.828 409.965L89.1315 333.313Z" fill="#D5D5ED"/>
<path d="M165.898 308.653C165.731 308.475 165.648 308.297 165.565 308.208C165.731 308.297 165.731 308.475 165.898 308.653Z" fill="white"/>
<path d="M79.1402 353.255C79.9728 354.146 81.0554 354.769 82.221 354.947C83.3867 355.214 84.552 355.036 85.6344 354.502L165.898 308.654C165.815 308.476 165.731 308.298 165.565 308.209L165.482 308.119L165.398 308.03C165.065 307.674 164.732 307.407 164.399 307.14C164.565 307.229 164.732 307.407 164.899 307.585C163.983 306.784 162.901 306.25 161.735 305.983L23.0227 279.987C21.3574 279.72 19.6087 280.076 18.1933 281.056L79.1402 353.255Z" fill="white"/>
<path d="M68.7328 340.88L18.2769 280.877C18.0271 281.055 17.8607 281.144 17.6109 281.322C16.2788 282.479 15.3628 284.082 15.0298 285.952L0.12621 376.58C-0.206832 378.45 0.126292 380.408 1.04216 382.011L68.7328 340.88Z" fill="#E8E8F7"/>
<path d="M148.746 410.766L148.496 410.944L148.746 410.766Z" fill="#E8E8F7"/>
<path d="M148.496 410.855C148.08 411.033 147.663 411.211 147.247 411.389C147.747 411.3 148.08 411.122 148.496 410.855Z" fill="#E8E8F7"/>
<path d="M165.898 308.653L99.3724 346.667L149.828 409.964C149.495 410.232 149.162 410.588 148.746 410.766C149.745 410.142 150.578 409.341 151.161 408.451C151.827 407.472 152.243 406.404 152.41 405.246L167.23 314.617C167.396 313.549 167.397 312.481 167.147 311.501C166.98 310.433 166.481 309.454 165.898 308.653Z" fill="#E8E8F7"/>
<path d="M166.314 309.276C166.148 309.009 166.064 308.831 165.898 308.653C166.064 308.831 166.231 309.009 166.314 309.276Z" fill="#E8E8F7"/>
<path d="M81.8877 273.933C81.8044 274.111 81.6379 274.29 81.4714 274.379C81.1383 274.557 80.8054 274.645 80.3891 274.556C79.9728 274.467 79.723 274.2 79.4732 273.933C77.8912 271.351 76.5593 268.591 75.5602 265.742C75.4769 265.564 75.4768 265.386 75.3935 265.119C75.3935 264.941 75.3936 264.674 75.4768 264.496C75.5601 264.318 75.6433 264.14 75.8098 263.962C75.9763 263.784 76.1429 263.695 76.3094 263.606C76.476 263.517 76.7255 263.517 76.892 263.517C77.0585 263.517 77.3085 263.606 77.475 263.695C77.6415 263.784 77.8081 263.962 77.9747 264.051C78.0579 264.229 78.2243 264.407 78.2243 264.585C79.1401 267.256 80.389 269.838 81.8877 272.241C82.0542 272.509 82.1376 272.776 82.0543 273.043C82.1376 273.399 82.0542 273.666 81.8877 273.933Z" fill="#110580"/>
<path d="M277.467 122.855C277.384 123.033 277.3 123.122 277.134 123.211L275.469 124.547C271.555 127.574 267.476 130.779 263.146 133.984C262.98 134.073 262.813 134.162 262.646 134.251C262.48 134.251 262.23 134.251 262.064 134.251C261.897 134.251 261.731 134.162 261.564 134.073C261.398 133.984 261.231 133.806 261.148 133.628C261.065 133.45 260.981 133.271 260.898 133.093C260.898 132.915 260.898 132.737 260.898 132.47C260.898 132.292 260.981 132.114 261.148 131.936C261.231 131.758 261.398 131.669 261.564 131.491C265.894 128.286 269.973 125.17 273.887 122.143L275.552 120.808C275.718 120.719 275.885 120.63 276.052 120.541C276.218 120.452 276.385 120.452 276.634 120.541C276.801 120.541 276.967 120.63 277.134 120.719C277.3 120.808 277.467 120.986 277.55 121.164C277.717 121.431 277.8 121.698 277.8 122.054C277.717 122.321 277.634 122.677 277.467 122.855ZM248.825 143.42C248.742 143.599 248.576 143.777 248.326 143.866C243.247 146.982 238.001 149.652 232.673 151.967C232.506 152.056 232.257 152.145 232.09 152.145C231.924 152.145 231.674 152.145 231.507 152.056C231.341 151.967 231.174 151.878 231.007 151.7C230.841 151.522 230.758 151.344 230.674 151.165C230.591 150.987 230.591 150.81 230.591 150.543C230.591 150.365 230.675 150.097 230.758 149.919C230.841 149.741 230.924 149.563 231.091 149.385C231.257 149.207 231.424 149.118 231.59 149.118C236.836 146.892 241.998 144.222 246.91 141.195C247.077 141.106 247.243 141.017 247.41 141.017C247.576 141.017 247.826 141.017 247.993 141.106C248.159 141.195 248.326 141.284 248.492 141.373C248.659 141.462 248.742 141.64 248.825 141.818C248.992 142.085 248.992 142.352 248.992 142.619C248.992 142.975 248.908 143.242 248.825 143.42ZM216.853 156.863C216.77 157.042 216.603 157.22 216.437 157.309C216.27 157.398 216.104 157.487 215.937 157.576C210.192 158.822 204.364 159.445 198.536 159.445C198.12 159.445 197.787 159.267 197.537 159C197.287 158.733 197.121 158.288 197.121 157.932C197.121 157.753 197.12 157.576 197.204 157.309C197.287 157.131 197.37 156.953 197.537 156.863C197.703 156.685 197.87 156.596 198.036 156.507C198.203 156.418 198.369 156.418 198.619 156.418C204.281 156.418 209.943 155.884 215.438 154.638C215.688 154.549 216.021 154.637 216.271 154.727C216.52 154.816 216.77 154.994 216.936 155.261C217.103 155.528 217.186 155.795 217.186 156.062C217.02 156.24 216.936 156.596 216.853 156.863ZM182.55 156.507C182.384 156.774 182.133 156.952 181.884 157.041C181.634 157.13 181.301 157.219 181.051 157.13C175.306 155.795 169.728 153.748 164.482 151.077C164.316 150.988 164.149 150.898 163.983 150.72C163.899 150.542 163.733 150.365 163.733 150.187C163.733 150.008 163.65 149.83 163.65 149.563C163.65 149.385 163.733 149.207 163.816 149.029C163.9 148.851 163.983 148.673 164.149 148.584C164.316 148.406 164.482 148.317 164.649 148.317C164.816 148.228 164.982 148.228 165.232 148.228C165.398 148.228 165.648 148.317 165.815 148.406C170.893 150.988 176.305 152.946 181.8 154.281C182.133 154.37 182.467 154.638 182.716 154.905C182.883 155.261 182.966 155.617 182.883 156.062C182.8 156.151 182.717 156.329 182.55 156.507ZM172.475 137.456C170.727 140.304 168.812 143.064 166.647 145.646C166.481 145.824 166.397 145.913 166.231 146.002C166.064 146.091 165.898 146.18 165.648 146.18C165.481 146.18 165.232 146.18 165.065 146.091C164.899 146.002 164.732 145.913 164.566 145.824C164.399 145.735 164.316 145.557 164.233 145.379C164.149 145.201 164.066 145.023 164.066 144.845C164.066 144.667 164.066 144.489 164.149 144.222C164.233 143.955 164.316 143.865 164.399 143.687C166.481 141.195 168.312 138.613 169.978 135.853C171.393 133.539 172.642 131.224 173.724 128.731C173.808 128.553 173.891 128.375 174.057 128.197C174.224 128.019 174.39 127.93 174.557 127.841C174.723 127.752 174.973 127.752 175.14 127.752C175.306 127.752 175.473 127.841 175.723 127.93C175.889 128.019 176.056 128.108 176.139 128.286C176.305 128.464 176.389 128.642 176.472 128.82C176.555 128.998 176.555 129.176 176.555 129.443C176.555 129.621 176.472 129.889 176.388 130.067C175.223 132.559 173.974 135.052 172.475 137.456ZM154.075 157.842C153.992 158.02 153.908 158.11 153.742 158.199C149.079 161.938 144.333 165.41 139.337 168.615C139.004 168.793 138.672 168.882 138.255 168.793C137.839 168.704 137.589 168.437 137.339 168.08C137.173 167.724 137.09 167.279 137.173 166.923C137.256 166.567 137.506 166.211 137.839 165.944C143.667 162.116 148.08 158.911 152.077 155.706C152.326 155.439 152.659 155.35 152.993 155.35C153.326 155.35 153.658 155.528 153.908 155.795C154.158 156.062 154.324 156.418 154.324 156.774C154.324 157.13 154.241 157.486 154.075 157.842ZM180.968 112.528C180.801 112.795 180.552 113.063 180.219 113.152C179.885 113.241 179.552 113.241 179.303 113.152C178.97 113.063 178.72 112.795 178.553 112.528C178.387 112.261 178.304 111.905 178.304 111.549C178.553 108.433 178.387 105.228 177.971 102.201C177.554 99.5304 176.722 96.8598 175.639 94.3671C175.473 94.011 175.473 93.566 175.556 93.2099C175.722 92.8538 175.972 92.4977 176.305 92.3197C176.639 92.1416 177.055 92.1415 177.388 92.2305C177.721 92.3196 178.054 92.6756 178.22 93.0317C179.469 95.7915 180.302 98.6405 180.801 101.667C181.301 105.05 181.468 108.433 181.218 111.816C181.218 111.994 181.134 112.261 180.968 112.528ZM151.827 140.661C151.827 140.75 151.744 140.75 151.744 140.839C151.494 141.106 151.161 141.373 150.828 141.373C150.411 141.373 150.078 141.284 149.828 141.017C145.249 137.01 141.336 132.114 138.339 126.683C138.255 126.505 138.172 126.328 138.172 126.15C138.172 125.971 138.172 125.704 138.172 125.526C138.255 125.348 138.339 125.17 138.422 124.992C138.505 124.814 138.672 124.725 138.838 124.636C139.005 124.547 139.171 124.458 139.421 124.458C139.587 124.458 139.837 124.458 140.004 124.458C140.17 124.547 140.337 124.636 140.503 124.725C140.67 124.814 140.753 124.992 140.836 125.17C143.751 130.334 147.414 134.874 151.744 138.702C151.993 138.969 152.16 139.325 152.243 139.681C152.076 139.948 151.993 140.304 151.827 140.661ZM124.934 177.606C124.85 177.784 124.684 177.962 124.434 178.052C122.685 179.209 121.02 180.277 119.355 181.434C116.025 183.66 113.027 185.886 110.196 188.023C110.03 188.112 109.864 188.2 109.697 188.289C109.531 188.379 109.281 188.379 109.114 188.289C108.948 188.289 108.781 188.2 108.614 188.111C108.448 188.022 108.281 187.844 108.198 187.666C108.115 187.488 108.032 187.31 107.948 187.132C107.865 186.954 107.865 186.687 107.948 186.509C107.948 186.331 108.032 186.153 108.198 185.975C108.281 185.797 108.448 185.619 108.614 185.53C111.529 183.304 114.526 181.078 117.94 178.764C119.688 177.606 121.353 176.449 123.102 175.292C123.351 175.114 123.685 175.025 124.018 175.025C124.351 175.025 124.684 175.203 124.85 175.47C125.1 175.737 125.267 176.004 125.267 176.36C125.267 176.894 125.183 177.25 124.934 177.606ZM75.2268 247.937C75.0603 248.115 74.8941 248.293 74.7276 248.471C74.4778 248.56 74.2278 248.649 74.0613 248.649C73.8948 248.649 73.6452 248.56 73.4787 248.56C73.3122 248.471 73.1456 248.382 72.979 248.204C72.8125 248.026 72.7293 247.937 72.6461 247.67C72.5628 247.492 72.5627 247.314 72.5627 247.047C72.7293 240.726 73.7281 234.494 75.6431 228.529C75.7264 228.173 76.0597 227.817 76.3095 227.639C76.6425 227.461 77.0587 227.461 77.3917 227.55C77.7247 227.639 78.0578 227.995 78.2243 228.351C78.3908 228.707 78.3909 229.152 78.3076 229.508C76.4759 235.206 75.4768 241.082 75.3935 247.136C75.4768 247.403 75.3934 247.67 75.2268 247.937ZM97.2909 199.507C97.2076 199.596 97.1245 199.685 97.0413 199.774C92.9615 203.958 89.2979 208.587 86.0507 213.484C85.8009 213.84 85.4682 214.018 85.1352 214.107C84.7189 214.196 84.3856 214.107 84.0525 213.84C83.7195 213.662 83.5532 213.306 83.47 212.861C83.3867 212.416 83.4697 212.059 83.6362 211.703C86.9667 206.54 90.7968 201.821 95.0431 197.548C95.2096 197.37 95.3762 197.281 95.5427 197.192C95.7093 197.103 95.8755 197.103 96.1253 197.103C96.2918 197.103 96.5418 197.103 96.7083 197.192C96.8748 197.281 97.0414 197.37 97.208 197.548C97.4577 197.815 97.6243 198.082 97.6243 198.438C97.541 198.883 97.4574 199.24 97.2909 199.507ZM166.813 80.9241C166.647 81.2802 166.314 81.4584 165.981 81.5474C165.648 81.6365 165.232 81.5473 164.982 81.3692C161.152 78.8765 156.656 77.8972 152.16 78.6984C151.327 78.8765 150.411 79.1438 149.579 79.4109C149.412 79.4999 149.162 79.4996 148.996 79.4996C148.829 79.4996 148.663 79.4108 148.496 79.3218C148.33 79.2327 148.163 79.1438 147.997 78.9658C147.914 78.7877 147.747 78.6096 147.747 78.4315C147.664 78.2535 147.664 78.0752 147.664 77.8082C147.664 77.6301 147.747 77.452 147.83 77.2739C147.913 77.0959 147.997 76.9178 148.163 76.8288C148.33 76.6507 148.496 76.5619 148.663 76.5619C149.662 76.2058 150.661 75.9387 151.66 75.6716C156.739 74.6923 161.984 75.7606 166.397 78.6984C166.73 78.8765 166.98 79.2326 167.063 79.5887C167.063 80.1228 167.063 80.568 166.813 80.9241ZM135.258 109.412C135.091 109.679 134.842 109.858 134.592 110.036C134.259 110.125 134.009 110.214 133.759 110.125C133.426 110.036 133.177 109.858 133.01 109.591C132.843 109.324 132.677 109.056 132.677 108.7C132.177 102.29 133.26 95.7916 135.757 90.0049C135.924 89.6488 136.257 89.3818 136.59 89.2037C136.923 89.1147 137.339 89.1144 137.672 89.2924C138.005 89.4705 138.255 89.7376 138.422 90.1827C138.505 90.5388 138.505 90.9842 138.339 91.3403C136.007 96.6818 135.008 102.646 135.508 108.522C135.508 108.7 135.424 109.056 135.258 109.412Z" fill="#110580"/>
<path d="M299.448 108.878C299.281 109.145 298.948 109.413 298.615 109.502C296.117 110.303 293.619 111.46 291.371 112.974C291.038 113.152 290.622 113.241 290.289 113.152C289.956 113.063 289.623 112.796 289.457 112.44C289.29 112.083 289.207 111.638 289.29 111.282C289.373 110.926 289.623 110.57 289.956 110.392C292.454 108.789 295.118 107.543 297.949 106.653C298.282 106.564 298.698 106.653 299.032 106.831C299.365 107.009 299.614 107.365 299.697 107.721C299.781 107.899 299.781 108.166 299.697 108.345C299.614 108.523 299.614 108.7 299.448 108.878Z" fill="#110580"/>
<path d="M52.4968 295.922C60.0735 295.922 66.2348 289.334 66.2348 281.233C66.2348 273.132 60.0735 266.544 52.4968 266.544C44.9201 266.544 38.7589 273.132 38.7589 281.233C38.7589 289.334 44.9201 295.922 52.4968 295.922Z" fill="#FF5856"/>
<path d="M312.353 50.2104C318.015 50.2104 322.594 45.3141 322.594 39.2602C322.594 33.2063 318.015 28.3096 312.353 28.3096C306.691 28.3096 302.112 33.2063 302.112 39.2602C302.112 45.3141 306.691 50.2104 312.353 50.2104Z" fill="#FF5856"/>
<path d="M267.226 226.749C266.393 219.983 261.814 214.374 256.818 210.101C242.497 198.261 223.098 194.255 205.197 197.371C198.536 198.528 191.792 200.664 186.213 204.76C174.723 213.217 169.728 230.221 174.224 244.376C174.89 245.89 175.889 247.314 177.055 248.472C171.476 259.778 168.229 268.146 163.483 279.809C174.557 270.817 186.463 263.072 199.035 256.662L200.617 257.552C215.604 267.345 235.42 262.538 250.574 253.012C259.566 247.225 268.558 237.878 267.226 226.749Z" fill="#FCFAF8"/>
<path d="M199.202 234.761C202.199 234.761 204.697 232.268 204.697 229.153C204.697 226.037 202.283 223.544 199.202 223.544C196.205 223.544 193.707 226.037 193.707 229.153C193.79 232.268 196.205 234.761 199.202 234.761Z" fill="#D6D7F0"/>
<path d="M218.269 234.761C221.266 234.761 223.764 232.268 223.764 229.153C223.764 226.037 221.349 223.544 218.269 223.544C215.271 223.544 212.773 226.037 212.773 229.153C212.857 232.268 215.271 234.761 218.269 234.761Z" fill="#D6D7F0"/>
<path d="M236.086 234.761C239.084 234.761 241.582 232.268 241.582 229.153C241.582 226.037 239.167 223.544 236.086 223.544C233.089 223.544 230.591 226.037 230.591 229.153C230.591 232.268 233.006 234.761 236.086 234.761Z" fill="#D6D7F0"/>
<path d="M239 252.21C243.08 239.212 255.736 231.735 267.975 227.639C296.284 218.203 326.757 220.072 353.9 232.803C366.472 238.767 378.629 247.759 384.04 261.202C388.87 272.864 387.787 286.842 382.292 298.148C376.88 309.454 367.305 318.268 356.481 323.61C360.228 333.937 365.973 346.578 369.803 356.905L346.739 342.394C342.91 339.812 338.747 337.587 334.417 335.984C328.422 334.026 322.094 334.115 315.85 333.758C298.448 332.69 280.964 327.17 266.726 316.309C252.488 305.448 241.581 289.157 238.417 270.817C237.335 264.674 237.169 258.175 239 252.21Z" fill="white"/>
<path d="M270.972 258.977H353.733C355.648 258.977 357.147 257.374 357.147 255.326C357.147 253.279 355.565 251.677 353.733 251.677H270.972C269.057 251.677 267.559 253.279 267.559 255.326C267.559 257.374 269.057 258.977 270.972 258.977Z" fill="#D6D7F0"/>
<path d="M270.972 276.515H326.591C328.506 276.515 330.004 274.912 330.004 272.865C330.004 270.817 328.506 269.214 326.591 269.214H270.972C269.057 269.214 267.559 270.817 267.559 272.865C267.559 274.912 269.057 276.515 270.972 276.515Z" fill="#D6D7F0"/>
<path d="M270.972 293.964H307.357C309.272 293.964 310.771 292.362 310.771 290.314C310.771 288.266 309.272 286.664 307.357 286.664H270.972C269.057 286.664 267.559 288.266 267.559 290.314C267.559 292.362 269.057 293.964 270.972 293.964Z" fill="#D6D7F0"/>
<path d="M346.99 286.664H324.176C322.261 286.664 320.762 288.266 320.762 290.314C320.762 292.362 322.344 293.964 324.176 293.964H346.99C348.905 293.964 350.403 292.362 350.403 290.314C350.403 288.266 348.821 286.664 346.99 286.664Z" fill="#D6D7F0"/>
<path d="M187.712 65.6118C187.712 65.6118 190.043 51.8125 189.377 51.5455L100.871 21.0098L187.712 65.6118Z" fill="#4E53BA"/>
<path d="M208.027 34.3639L124.184 21.9004L197.87 17.8942L186.796 0L100.871 21.0101L226.595 64.3652L208.027 34.3639Z" fill="#868AE0"/>
<path d="M192.042 31.96L197.786 17.8052L124.101 21.8113L192.042 31.96Z" fill="#4E53BA"/>
<path d="M277.134 355.214C276.717 355.124 263.812 364.65 263.812 364.65L294.036 394.118L257.567 370.793L243.663 386.64L314.934 409.075L277.134 355.214Z" fill="#868AE0"/>
<path d="M262.813 374.176L263.729 364.562L293.952 394.029L262.813 374.176Z" fill="#4E53BA"/>
<path d="M407.02 191.317C407.103 189.804 407.104 183.038 404.439 183.394C399.36 184.017 394.032 186.777 389.369 190.338C393.782 167.992 393.615 144.845 388.953 122.5C388.287 119.028 385.789 118.315 383.874 121.075C381.626 124.369 380.71 130.334 381.459 134.251C385.04 152.679 384.623 171.731 380.127 189.893C375.798 180.367 369.053 169.239 364.641 177.34C363.059 180.634 362.559 184.373 363.308 188.023C363.725 189.982 364.557 191.851 366.139 191.317C368.637 192.118 371.218 198.796 372.301 200.932C374.216 204.849 375.797 208.944 377.046 213.218C377.13 213.574 377.296 214.019 377.463 214.375C378.129 216.868 379.627 219.45 382.125 216.957C385.206 213.663 388.536 210.636 392.033 207.876C395.78 205.116 399.86 203.246 403.607 200.576C406.188 198.706 406.854 194.433 407.02 191.317Z" fill="#EBDBCD"/>
<path d="M70.6473 115.555C66.9839 107.187 70.0647 101.935 72.4792 93.4771C73.4783 89.916 73.8115 86.177 73.3952 82.4379C73.6449 78.1647 72.8954 74.3364 70.3144 74.6925L69.4818 74.8707C69.1487 74.7817 68.7326 74.7817 68.3995 74.8707C68.0665 74.9597 67.7334 75.1379 67.4836 75.4049C62.9042 76.9184 58.3251 80.3011 53.9123 82.2597C47.8342 85.0195 41.5061 86.8003 35.2616 89.204C30.3492 91.0735 30.0995 112.44 35.3449 111.638C39.6745 110.926 44.0039 109.68 48.167 108.077C33.7629 133.183 22.606 160.336 18.6928 189.714C18.3597 192.474 17.6936 199.596 20.691 201.199C23.6883 202.801 25.1872 197.103 25.437 194.967C29.6 165.499 44.4202 139.949 58.9908 114.932C59.4904 122.144 62.2382 129.088 66.7343 134.518C69.2321 137.456 71.5635 129.8 71.8133 128.732C72.7292 124.369 72.3958 119.74 70.6473 115.555Z" fill="#EBDBCD"/>
</svg>
