<svg width="392" height="412" viewBox="0 0 392 412" fill="none" xmlns="http://www.w3.org/2000/svg">
<path d="M298.107 381.144L133.999 365.315C129.485 364.889 126.166 360.63 126.564 355.732L146.215 122.621C146.613 117.794 150.596 114.245 155.177 114.671L319.285 130.501C323.799 130.926 327.118 135.186 326.72 140.083L307.069 373.194C306.671 378.021 302.688 381.57 298.107 381.144Z" fill="#CCCDEB"/>
<path d="M256.483 363.185L98.0178 411.312C93.6363 412.661 89.122 409.964 87.8607 405.279L27.9799 180.119C26.7185 175.434 29.3076 170.607 33.6228 169.258L192.088 121.131C196.469 119.782 200.984 122.551 202.245 127.165L262.126 352.325C263.387 357.01 260.864 361.837 256.483 363.185Z" fill="#D6D7F0"/>
<path d="M346.437 251.741C365.091 244.003 374.253 221.36 366.95 201.2C359.648 181.041 338.537 170.961 319.882 178.698C301.227 186.435 292.066 209.08 299.369 229.239C306.671 249.469 327.782 259.549 346.437 251.741Z" fill="#FF5856"/>
<path d="M386.202 201.839L348.76 217.455C344.91 219.017 340.528 216.959 339.001 212.842L338.935 212.771C337.475 208.654 339.4 203.969 343.25 202.336L380.759 186.72C384.609 185.159 388.991 187.217 390.518 191.334L390.584 191.405C391.978 195.593 390.053 200.278 386.202 201.839Z" fill="#FF5856"/>
<path d="M343.051 242.513C356.992 236.692 363.83 219.798 358.32 204.75C352.81 189.701 337.143 182.177 323.201 187.926C309.26 193.747 302.422 210.641 307.932 225.69C313.443 240.81 329.11 248.334 343.051 242.513Z" fill="#D4BFA9"/>
<path d="M320.944 225.903C319.683 224.625 318.753 222.851 319.285 220.934C319.816 219.018 321.475 218.45 323.201 218.379C326.654 218.308 330.969 219.231 333.159 215.469C335.151 212.132 333.425 208.299 331.964 205.176C331.168 203.614 330.238 201.768 330.703 199.923C331.168 198.006 333.226 197.651 334.819 197.793C336.877 198.006 336.877 194.528 334.753 194.315C330.57 193.889 326.985 196.942 327.317 201.556C327.517 204.111 328.778 206.24 329.84 208.441C330.57 210.002 331.433 212.629 329.973 214.049C328.446 215.54 325.658 214.9 323.799 214.9C321.608 214.83 319.351 215.255 317.758 216.959C314.637 220.295 315.7 225.406 318.621 228.388C320.214 229.949 322.471 227.465 320.944 225.903Z" fill="#EBDBCD"/>
<path d="M332.031 234.137C329.707 230.801 335.085 228.601 337.143 227.82C339.931 226.755 343.914 225.903 345.64 222.993C347.167 220.366 346.37 217.101 345.375 214.475C344.18 211.28 343.516 208.228 345.972 205.531C347.432 203.969 345.109 201.556 343.582 203.117C341.259 205.531 340.396 209.08 341.192 212.487C341.856 215.185 345.043 220.083 341.79 222.212C340.196 223.206 338.205 223.702 336.479 224.412C334.753 225.122 332.894 225.761 331.367 226.897C328.711 228.884 327.052 232.931 329.176 235.983C330.438 237.686 333.226 235.912 332.031 234.137Z" fill="#EBDBCD"/>
<path d="M284.432 332.449L121.12 356.016C116.606 356.726 112.49 353.318 111.893 348.491L82.6161 116.517C82.0186 111.69 85.1388 107.289 89.6531 106.65L252.898 83.0837C257.412 82.4449 261.528 85.7808 262.126 90.6077L291.402 322.582C292.066 327.338 288.946 331.81 284.432 332.449Z" fill="#E8E8F7"/>
<path d="M133.734 185.3C142.895 185.3 150.33 177.35 150.33 167.554C150.33 157.758 142.895 149.808 133.734 149.808C124.572 149.808 117.137 157.758 117.137 167.554C117.137 177.35 124.572 185.3 133.734 185.3Z" fill="white"/>
<path d="M141.103 243.861C150.264 243.861 157.699 235.911 157.699 226.115C157.699 216.32 150.264 208.37 141.103 208.37C131.941 208.37 124.506 216.32 124.506 226.115C124.573 235.911 131.941 243.861 141.103 243.861Z" fill="white"/>
<path d="M148.538 302.423C157.699 302.423 165.135 294.473 165.135 284.677C165.135 274.882 157.699 266.932 148.538 266.932C139.377 266.932 131.941 274.882 131.941 284.677C131.941 294.544 139.377 302.423 148.538 302.423Z" fill="white"/>
<path d="M237.43 149.24L170.18 158.965C167.857 159.249 165.799 157.545 165.467 155.132C165.201 152.647 166.794 150.447 169.052 150.092L236.301 140.367C238.558 140.083 240.683 141.787 241.015 144.2C241.347 146.685 239.687 148.956 237.43 149.24Z" fill="#D6D7F0"/>
<path d="M216.053 168.051L172.105 174.368C169.848 174.652 167.724 172.948 167.392 170.535C167.126 168.051 168.72 165.85 170.977 165.495L214.925 159.178C217.182 158.894 219.306 160.597 219.638 163.011C219.97 165.424 218.31 167.696 216.053 168.051Z" fill="#D6D7F0"/>
<path d="M252.234 266.435L184.984 276.16C182.727 276.443 180.603 274.74 180.271 272.326C180.005 269.913 181.599 267.641 183.856 267.287L251.106 257.562C253.363 257.278 255.487 258.981 255.819 261.395C256.151 263.879 254.558 266.08 252.234 266.435Z" fill="#D6D7F0"/>
<path d="M230.858 285.174L186.91 291.492C184.652 291.775 182.528 290.072 182.196 287.659C181.931 285.245 183.524 282.903 185.781 282.619L229.729 276.301C231.986 276.017 234.111 277.721 234.442 280.134C234.774 282.548 233.181 284.89 230.858 285.174Z" fill="#D6D7F0"/>
<path d="M244.865 207.873L177.615 217.598C175.358 217.881 173.234 216.178 172.902 213.764C172.636 211.351 174.23 209.079 176.487 208.725L243.737 199C245.994 198.716 248.118 200.419 248.45 202.833C248.716 205.246 247.122 207.518 244.865 207.873Z" fill="#D6D7F0"/>
<path d="M223.489 226.613L179.541 232.93C177.284 233.214 175.159 231.51 174.827 229.097C174.562 226.684 176.155 224.412 178.412 224.057L222.36 217.74C224.617 217.456 226.742 219.159 227.074 221.573C227.339 223.986 225.746 226.258 223.489 226.613Z" fill="#D6D7F0"/>
<path d="M142.497 130.713C138.846 138.805 135.659 147.111 132.871 155.487C130.614 152.364 127.759 150.092 124.241 149.95C122.448 149.879 120.125 150.305 119.129 152.222C118.93 152.506 118.797 152.86 118.598 153.215C117.469 155.274 117.137 158.61 119.461 160.03C121.253 161.166 122.979 161.805 124.373 163.508C126.431 165.993 127.892 169.116 129.153 172.026C131.41 177.208 138.248 176.001 139.244 170.607C141.501 157.971 144.489 145.478 148.073 133.198C149.136 129.223 144.223 126.951 142.497 130.713Z" fill="#4E53BA"/>
<path d="M254.624 6.49221L249.114 1.23949C247.255 -0.5351 244.334 -0.393133 242.674 1.59441L162.811 96.4286L175.026 108.212L255.022 13.3778C256.682 11.3902 256.549 8.2668 254.624 6.49221Z" fill="#2B31BA"/>
<path d="M174.96 108.212L162.678 96.4282L152.455 119.001L154.978 121.485L174.96 108.212Z" fill="#EBDBCD"/>
<path d="M159.027 109.845L160.156 112.613L161.948 113.465L163.276 115.949L154.978 121.415L152.455 119.001L156.571 109.916L159.027 109.845Z" fill="#2B31BA"/>
<path d="M146.48 315.059C146.613 315.059 146.679 315.059 146.812 315.059C147.277 315.201 147.476 315.768 147.343 316.123C146.812 317.756 146.082 319.389 145.219 320.879C145.02 321.305 144.488 321.447 144.09 321.163C143.692 320.95 143.559 320.382 143.825 319.956C144.621 318.608 145.285 317.046 145.816 315.556C145.949 315.272 146.215 315.059 146.48 315.059Z" fill="#110580"/>
<path d="M14.3706 273.036C14.5034 273.036 14.5697 273.036 14.6361 273.107L15.8311 273.462C18.4866 274.314 21.2748 275.166 24.1295 276.16C24.5942 276.302 24.7933 276.799 24.6605 277.224C24.5278 277.721 24.0631 277.934 23.6647 277.792C20.8101 276.798 18.0883 275.947 15.4328 275.095L14.2378 274.74C13.7731 274.598 13.574 274.101 13.7067 273.675C13.7731 273.32 14.0387 273.036 14.3706 273.036ZM33.0253 279.78C33.158 279.78 33.2908 279.78 33.3572 279.851C36.6101 281.341 39.5312 282.903 42.253 284.678C42.6513 284.891 42.7841 285.458 42.5185 285.884C42.3194 286.31 41.7883 286.452 41.39 286.168C38.7345 284.535 35.8799 282.974 32.6933 281.554C32.295 281.341 32.0958 280.845 32.2286 280.419C32.4942 279.993 32.7597 279.78 33.0253 279.78ZM49.8875 290.569C50.0866 290.569 50.3522 290.569 50.4849 290.782C53.074 293.125 55.3312 295.751 57.3228 298.59C57.5883 298.945 57.522 299.513 57.19 299.797C56.8581 300.081 56.327 300.01 56.0614 299.655C54.1362 296.887 51.9455 294.402 49.4228 292.131C49.0908 291.776 49.0245 291.279 49.3564 290.924C49.4892 290.64 49.6883 290.569 49.8875 290.569ZM61.6379 307.25C61.9699 307.179 62.3018 307.392 62.4345 307.747C63.8287 311.013 64.9573 314.42 65.6211 317.898C65.7539 318.395 65.422 318.821 65.0236 318.963C64.5589 319.105 64.1606 318.75 64.0278 318.324C63.364 314.988 62.3018 311.722 60.9077 308.528C60.7085 308.102 60.9077 307.605 61.306 307.392C61.5052 307.251 61.5715 307.25 61.6379 307.25ZM57.1236 318.821C58.916 318.679 60.7749 318.679 62.6337 318.821C63.0984 318.821 63.4303 319.247 63.4303 319.744C63.364 320.24 63.032 320.524 62.5673 320.524C60.7749 320.383 58.9825 320.382 57.3228 320.595C55.8623 320.737 54.4018 320.95 53.0077 321.234C52.543 321.305 52.1446 321.021 52.0782 320.595C51.9455 320.169 52.2774 319.672 52.6757 319.53C54.0035 319.176 55.5303 318.963 57.1236 318.821ZM72.1934 320.595C72.2598 320.595 72.3926 320.595 72.459 320.666C75.2472 321.447 78.1682 322.512 81.8859 324.003C82.3506 324.145 82.4833 324.642 82.3505 325.138C82.2178 325.635 81.7531 325.848 81.2884 325.635C77.6371 324.144 74.7161 323.08 71.9942 322.299C71.5295 322.157 71.3304 321.731 71.3967 321.234C71.5295 320.879 71.8615 320.666 72.1934 320.595ZM43.5807 323.364C43.8463 323.293 44.1782 323.506 44.311 323.719C44.5765 324.145 44.4438 324.641 44.0455 324.925C42.6513 325.919 41.3236 327.055 40.195 328.403C39.1992 329.539 38.4026 330.817 37.6723 332.237C37.4732 332.663 37.0085 332.805 36.6101 332.592C36.2118 332.379 36.079 331.882 36.2118 331.456C37.0084 329.894 37.8715 328.475 39.0001 327.197C40.195 325.848 41.5891 324.57 43.116 323.506C43.3152 323.435 43.448 323.364 43.5807 323.364ZM65.6875 327.694C65.7539 327.694 65.7539 327.694 65.8203 327.694C66.285 327.694 66.6169 328.12 66.6169 328.617C66.4842 332.45 65.7539 335.999 64.5589 339.122C64.3598 339.548 63.8951 339.761 63.4968 339.548C63.0984 339.335 62.8993 338.838 63.032 338.412C64.227 335.36 64.8245 332.024 65.0236 328.403C64.9573 328.048 65.2892 327.694 65.6875 327.694ZM90.7153 327.765C90.8481 327.765 90.9808 327.765 91.0472 327.836C92.1094 328.262 93.1716 328.758 94.3001 329.113C96.4245 329.894 98.3497 330.604 100.275 331.243C100.74 331.385 100.939 331.882 100.806 332.307C100.673 332.733 100.209 333.018 99.8103 332.876C97.8187 332.237 95.8271 331.598 93.7027 330.675C92.6405 330.249 91.5119 329.823 90.4497 329.326C90.0514 329.184 89.8522 328.687 89.985 328.191C90.1178 328.049 90.3834 327.765 90.7153 327.765ZM137.783 327.339C138.049 327.339 138.315 327.481 138.514 327.694C138.779 328.119 138.713 328.616 138.315 328.9C135.659 330.959 132.672 332.663 129.352 333.869C128.888 334.011 128.489 333.798 128.357 333.302C128.224 332.876 128.423 332.379 128.888 332.237C132.008 331.101 134.862 329.539 137.385 327.481C137.518 327.41 137.651 327.339 137.783 327.339ZM109.635 333.585C109.702 333.585 109.768 333.585 109.835 333.585C113.22 334.153 116.473 334.295 119.527 334.153C119.992 334.082 120.39 334.508 120.39 334.934C120.457 335.36 120.058 335.857 119.593 335.857C116.407 336.07 113.088 335.857 109.569 335.289C109.104 335.218 108.772 334.792 108.905 334.295C108.905 333.869 109.237 333.585 109.635 333.585ZM35.1496 341.18C35.6143 341.18 35.9463 341.535 36.0127 341.961C36.3446 344.872 37.4732 347.356 39.332 349.06C39.7303 349.415 40.1286 349.769 40.5933 350.053C40.9253 350.337 41.058 350.834 40.8589 351.26C40.5933 351.615 40.1286 351.757 39.7303 351.544C39.1992 351.189 38.7345 350.834 38.3362 350.408C36.2118 348.35 34.8841 345.581 34.4858 342.245C34.353 341.748 34.6185 341.322 35.1496 341.18C35.1496 341.18 35.0832 341.18 35.1496 341.18ZM58.1858 346.646C58.4514 346.575 58.6505 346.717 58.8497 346.93C59.1152 347.285 59.1152 347.853 58.7833 348.137C56.1942 350.621 53.0076 352.396 49.7547 353.177C49.29 353.319 48.8917 352.964 48.7589 352.467C48.6261 352.041 48.9581 351.544 49.3564 351.402C52.3438 350.693 55.2648 349.06 57.6547 346.788C57.8539 346.646 58.053 346.646 58.1858 346.646Z" fill="#110580"/>
<path d="M0.761347 267.286C0.960507 267.286 1.15966 267.357 1.29243 267.499C2.22185 268.28 3.54958 269.06 5.27563 269.841C5.67395 270.054 5.87312 270.551 5.74035 270.977C5.54119 271.403 5.07646 271.616 4.67814 271.474C2.81931 270.622 1.35882 269.77 0.296633 268.919C-0.0353008 268.635 -0.101696 268.067 0.163851 267.712C0.363011 267.357 0.562187 267.286 0.761347 267.286Z" fill="#110580"/>
</svg>
