<svg width="503" height="739" viewBox="0 0 503 739" fill="none" xmlns="http://www.w3.org/2000/svg">
<path d="M450.525 314.781L428.525 314.681C421.025 314.581 414.925 309.981 414.825 304.481V302.581C414.725 297.081 420.725 292.681 428.125 292.681L450.125 292.781C457.625 292.881 463.725 297.481 463.825 302.981V304.881C463.925 310.381 457.925 314.881 450.525 314.781Z" fill="#FCB58A"/>
<path d="M69.125 313.481L47.125 313.381C39.625 313.281 33.5251 308.681 33.4251 303.181V301.281C33.3251 295.781 39.3249 291.381 46.7249 291.381L68.7249 291.481C76.2249 291.581 82.3251 296.181 82.4251 301.681V303.581C82.5251 309.081 76.525 313.581 69.125 313.481Z" fill="#FCB58A"/>
<path d="M188.325 640.081C187.525 651.281 186.625 662.481 185.725 673.681C185.125 681.181 193.925 687.18 201.125 686.78C209.825 686.38 214.625 679.681 215.125 672.081C215.925 660.881 216.825 649.681 217.725 638.481C218.325 630.981 209.525 624.981 202.325 625.381C193.625 625.881 189.025 632.581 188.325 640.081Z" fill="#FCB58A"/>
<path d="M295.725 643.581C297.525 654.681 299.225 665.781 301.025 676.881C302.225 684.281 312.125 688.081 319.025 686.081C327.425 683.581 330.425 676.081 329.225 668.581C327.425 657.481 325.725 646.381 323.925 635.281C322.725 627.881 312.825 624.081 305.925 626.081C297.525 628.581 294.525 636.181 295.725 643.581Z" fill="#FCB58A"/>
<path d="M69.7249 626.881C42.4249 626.881 20.225 624.381 19.425 621.281L23.425 668.881C23.425 691.481 44.225 709.881 69.625 709.881C95.025 709.881 115.825 691.381 115.825 668.881L119.825 621.181C119.425 624.381 97.1249 626.881 69.7249 626.881Z" fill="#DEC7B2"/>
<path d="M69.7249 626.881C42.0249 626.881 19.525 624.281 19.425 621.081V620.981C19.625 617.781 42.0249 615.181 69.7249 615.181C97.3249 615.181 119.725 617.781 120.025 620.981V621.081C119.825 624.281 97.4249 626.881 69.7249 626.881Z" fill="#E8D4C1"/>
<path d="M69.7249 625.881C46.4249 625.881 27.425 623.681 27.325 620.981V620.881C27.525 618.181 46.4249 615.981 69.7249 615.981C93.0249 615.981 111.925 618.181 112.125 620.881V620.981C112.025 623.681 93.0249 625.881 69.7249 625.881Z" fill="#BA9C7E"/>
<path d="M21.125 641.581C24.325 641.681 27.525 642.881 30.325 645.581C35.425 650.581 38.725 658.281 42.825 664.081C44.425 660.881 45.8249 657.681 47.0249 654.381C48.5249 650.481 53.825 646.781 57.925 649.981C62.325 653.481 65.7249 657.281 68.5249 662.081C71.0249 666.281 73.025 671.181 76.925 674.281C80.625 677.281 84.925 678.181 86.425 672.781C87.725 668.081 87.225 663.081 88.825 658.281C90.125 654.381 92.025 650.281 96.125 648.581C100.825 646.581 105.425 649.081 109.625 651.181C112.125 652.481 114.625 653.781 117.025 655.281L116.225 665.281C111.925 662.581 106.625 659.281 102.225 658.681C99.4249 658.281 99.625 660.181 99.425 662.781C99.325 665.081 99.325 667.481 99.125 669.781C98.825 674.581 98.125 679.381 95.325 683.281C89.225 691.781 77.925 691.381 69.925 685.981C65.625 683.081 62.5249 679.281 59.7249 674.881C58.8249 673.481 57.9249 671.981 57.0249 670.481C53.5249 678.481 48.3249 685.681 39.7249 682.581C34.3249 680.681 30.825 674.781 27.625 670.481C26.625 669.181 24.825 665.781 22.925 662.881L21.125 641.581Z" fill="#EBDBCD"/>
<path d="M1.4251 464.281C2.5251 460.181 7.22505 459.581 10.125 461.981C15.525 466.481 18.3249 472.681 21.2249 478.781C24.3249 485.281 28.1249 491.181 32.5249 496.781C41.5249 508.281 51.525 518.881 58.125 532.081C70.925 557.581 74.025 587.581 65.125 614.881C64.825 615.681 66.525 611.381 63.825 618.981C61.325 625.781 51.6249 622.181 51.7249 614.181C51.8249 606.381 49.725 599.081 46.325 592.181C39.525 578.481 30.9249 565.581 24.2249 551.781C17.4249 537.781 11.5249 523.481 6.7249 508.681C2.1249 494.481 -2.3749 479.281 1.4251 464.281Z" fill="#4C7378"/>
<path d="M64.2249 384.281C67.7249 377.981 77.725 382.281 75.825 389.181C69.925 409.381 74.125 430.681 77.825 450.881C81.525 471.481 85.9251 491.881 88.4251 512.681C92.9251 549.581 91.425 590.981 68.125 621.881C65.625 625.181 60.3251 622.481 62.4251 618.481C64.7251 614.081 58.925 585.381 56.325 576.181C53.725 566.681 51.0249 557.181 48.7249 547.681C44.0249 528.981 40.225 509.981 39.325 490.681C37.025 453.181 46.3249 416.981 64.2249 384.281Z" fill="#57848A"/>
<path d="M75.325 589.281C78.025 576.781 76.0249 563.381 78.7249 550.981C81.3249 538.681 84.9251 526.281 90.6251 515.081C96.0251 504.481 104.325 496.881 114.125 490.281C123.325 484.081 134.125 477.981 137.425 466.581C139.325 459.781 150.825 460.781 150.125 468.281C148.525 483.481 142.125 496.881 134.725 510.081C126.725 524.081 119.825 537.481 115.925 553.181C109.225 580.081 103.425 614.981 72.825 623.281C68.925 624.181 69.425 616.181 75.325 589.281Z" fill="#689399"/>
<path d="M68.825 316.481C91.125 327.881 113.825 334.481 139.125 333.981C162.825 333.481 185.825 327.181 199.225 305.881C208.025 291.781 185.725 278.781 176.925 292.881C167.925 307.281 149.925 308.281 134.525 308.181C115.525 308.081 98.625 302.781 81.825 294.181C67.125 286.681 54.025 308.981 68.825 316.481Z" fill="#FCB58A"/>
<path d="M412.725 294.281C395.925 302.881 379.125 308.081 360.025 308.281C343.825 308.381 329.125 306.581 320.025 291.781C311.325 277.681 289.025 290.681 297.725 304.781C303.425 313.981 311.225 322.081 320.925 326.981C331.825 332.481 343.325 333.781 355.425 333.981C380.725 334.481 403.325 327.881 425.725 316.481C440.525 308.981 427.425 286.681 412.725 294.281Z" fill="#FCB58A"/>
<path d="M490.825 399.181L482.025 447.181L443.425 415.281L490.825 399.181Z" fill="#D4BFA9"/>
<path d="M143.125 52.9806C157.425 52.9806 169.025 41.3806 169.025 27.0806C169.025 12.7806 157.425 1.18066 143.125 1.18066C128.825 1.18066 117.225 12.7806 117.225 27.0806C117.225 41.3806 128.825 52.9806 143.125 52.9806Z" fill="#EBDBCD"/>
<path d="M167.725 79.0806C167.525 79.0806 167.325 78.9807 167.125 78.6807C167.025 78.3807 167.125 78.0807 167.425 77.8807L170.125 76.6807L168.925 73.9806C168.825 73.6806 168.925 73.3807 169.225 73.1807C169.525 73.0807 169.825 73.1806 170.025 73.4806L171.625 77.2807L167.725 79.0806C167.825 79.0806 167.925 79.0806 167.725 79.0806Z" fill="#110580"/>
<path d="M112.725 103.081C112.525 103.081 112.325 102.981 112.125 102.681C112.025 102.381 112.125 102.081 112.425 101.881L119.325 98.8807C119.625 98.7807 119.925 98.8807 120.125 99.1807C120.225 99.4807 120.125 99.7806 119.825 99.9806L112.925 102.981C112.925 103.081 112.825 103.081 112.725 103.081ZM126.525 97.0806C126.325 97.0806 126.125 96.9807 125.925 96.6807C125.825 96.3807 125.925 96.0807 126.225 95.8807L133.125 92.8807C133.425 92.7807 133.725 92.8807 133.925 93.1807C134.025 93.4807 133.925 93.7806 133.625 93.9806L126.725 96.9806C126.625 97.0806 126.625 97.0806 126.525 97.0806ZM140.225 91.0806C140.025 91.0806 139.825 90.9807 139.625 90.6807C139.525 90.3807 139.625 90.0807 139.925 89.8807L146.825 86.8807C147.125 86.7807 147.425 86.8807 147.625 87.1807C147.725 87.4807 147.625 87.7806 147.325 87.9806L140.425 90.9806C140.425 91.0806 140.325 91.0806 140.225 91.0806ZM154.025 84.9806C153.825 84.9806 153.625 84.8806 153.425 84.5806C153.325 84.2806 153.425 83.9807 153.725 83.7807L160.625 80.7807C160.925 80.6807 161.225 80.7806 161.425 81.0806C161.525 81.3806 161.425 81.6807 161.125 81.8807L154.225 84.8807C154.125 84.9807 154.125 84.9806 154.025 84.9806Z" fill="#110580"/>
<path d="M102.325 107.681L100.725 103.881C100.625 103.581 100.725 103.281 101.025 103.081C101.325 102.981 101.625 103.081 101.825 103.381L103.025 106.081L105.725 104.881C106.025 104.781 106.325 104.881 106.525 105.181C106.625 105.481 106.525 105.781 106.225 105.981L102.325 107.681Z" fill="#110580"/>
<path d="M98.4249 97.8806C98.2249 97.8806 98.0248 97.7806 97.8248 97.4806L95.0248 91.0806C94.9248 90.7806 95.0248 90.4807 95.3248 90.2807C95.6248 90.1807 95.9249 90.2806 96.1249 90.5806L98.9249 96.9806C99.0249 97.2806 98.9249 97.5807 98.6249 97.7807C98.6249 97.8807 98.5249 97.8806 98.4249 97.8806ZM92.8248 85.0806C92.6248 85.0806 92.4247 84.9807 92.2247 84.6807L89.4249 78.2807C89.3249 77.9807 89.4247 77.6806 89.7247 77.4806C90.0247 77.3806 90.3248 77.4807 90.5248 77.7807L93.3248 84.1807C93.4248 84.4807 93.3248 84.7806 93.0248 84.9806C93.0248 85.0806 92.9248 85.0806 92.8248 85.0806ZM87.2247 72.3807C87.0247 72.3807 86.8249 72.2806 86.6249 71.9806L83.8248 65.5806C83.7248 65.2806 83.8249 64.9807 84.1249 64.7807C84.4249 64.6807 84.7249 64.7806 84.9249 65.0806L87.7247 71.4806C87.8247 71.7806 87.7249 72.0807 87.4249 72.2807C87.4249 72.3807 87.3247 72.3807 87.2247 72.3807Z" fill="#110580"/>
<path d="M81.7249 59.5806C81.5249 59.5806 81.325 59.4807 81.125 59.1807L79.5249 55.3807L83.325 53.7807C83.625 53.6807 83.925 53.7806 84.125 54.0806C84.225 54.3806 84.125 54.6807 83.825 54.8807L81.125 56.0806L82.325 58.7807C82.425 59.0807 82.3249 59.3806 82.0249 59.5806C81.8249 59.5806 81.7249 59.5806 81.7249 59.5806Z" fill="#110580"/>
<path d="M90.3248 51.9806C90.1248 51.9806 89.9247 51.8806 89.7247 51.5806C89.6247 51.2806 89.7248 50.9807 90.0248 50.7807L96.9249 47.7807C97.2249 47.6807 97.5247 47.7806 97.7247 48.0806C97.8247 48.3806 97.7249 48.6807 97.4249 48.8807L90.5248 51.8807C90.5248 51.8807 90.4248 51.9806 90.3248 51.9806ZM104.125 45.8807C103.925 45.8807 103.725 45.7806 103.525 45.4806C103.425 45.1806 103.525 44.8807 103.825 44.6807L110.725 41.6807C111.025 41.5807 111.325 41.6806 111.525 41.9806C111.625 42.2806 111.525 42.5807 111.225 42.7807L104.325 45.7807C104.325 45.8807 104.125 45.8807 104.125 45.8807ZM117.825 39.8807C117.625 39.8807 117.425 39.7806 117.225 39.4806C117.125 39.1806 117.225 38.8807 117.525 38.6807L124.425 35.6807C124.725 35.5807 125.025 35.6806 125.225 35.9806C125.325 36.2806 125.225 36.5807 124.925 36.7807L118.025 39.7807C118.025 39.8807 118.025 39.8807 117.825 39.8807ZM131.625 33.8807C131.425 33.8807 131.225 33.7806 131.025 33.4806C130.925 33.1806 131.025 32.8807 131.325 32.6807L138.225 29.6807C138.525 29.5807 138.825 29.6806 139.025 29.9806C139.125 30.2806 139.025 30.5807 138.725 30.7807L131.825 33.7807C131.825 33.8807 131.725 33.8807 131.625 33.8807Z" fill="#110580"/>
<path d="M150.025 29.6807C149.825 29.6807 149.625 29.5806 149.425 29.2806L148.225 26.5806L145.525 27.7806C145.225 27.8806 144.925 27.7806 144.725 27.4806C144.625 27.1806 144.725 26.8807 145.025 26.6807L148.825 25.0806L150.425 28.8806C150.525 29.1806 150.425 29.4807 150.125 29.6807C150.225 29.6807 150.125 29.6807 150.025 29.6807Z" fill="#110580"/>
<path d="M166.725 68.0806C166.525 68.0806 166.325 67.9807 166.125 67.6807L163.325 61.2807C163.225 60.9807 163.325 60.6806 163.625 60.4806C163.925 60.2806 164.225 60.4807 164.425 60.7807L167.225 67.1807C167.325 67.4807 167.225 67.7806 166.925 67.9806C167.025 67.9806 166.825 68.0806 166.725 68.0806ZM161.225 55.1807C161.025 55.1807 160.825 55.0807 160.625 54.7807L157.825 48.3806C157.725 48.0806 157.825 47.7806 158.125 47.5806C158.425 47.4806 158.725 47.5806 158.925 47.8806L161.725 54.2807C161.825 54.5807 161.725 54.8806 161.425 55.0806C161.325 55.1806 161.225 55.1807 161.225 55.1807ZM155.625 42.4806C155.425 42.4806 155.225 42.3806 155.025 42.0806L152.225 35.6807C152.125 35.3807 152.225 35.0806 152.525 34.8806C152.825 34.7806 153.125 34.8807 153.325 35.1807L156.125 41.5806C156.225 41.8806 156.125 42.1806 155.825 42.3806C155.725 42.4806 155.725 42.4806 155.625 42.4806Z" fill="#110580"/>
<path d="M454.825 461.681L451.625 460.481C451.325 460.381 451.225 460.081 451.325 459.881C451.425 459.581 451.725 459.481 451.925 459.581L454.225 460.381L455.025 458.081C455.125 457.781 455.425 457.681 455.625 457.781C455.925 457.881 456.025 458.181 455.925 458.381L454.825 461.681Z" fill="#110580"/>
<path d="M446.725 458.681C446.625 458.681 446.625 458.681 446.625 458.681L441.725 456.881C441.425 456.781 441.325 456.481 441.425 456.281C441.525 455.981 441.825 455.881 442.025 455.981L446.925 457.781C447.225 457.881 447.325 458.181 447.225 458.381C447.225 458.581 447.025 458.681 446.725 458.681ZM436.925 454.981C436.825 454.981 436.825 454.981 436.825 454.981L431.925 453.181C431.625 453.081 431.525 452.781 431.625 452.581C431.725 452.281 432.025 452.181 432.225 452.281L437.125 454.081C437.425 454.181 437.525 454.481 437.425 454.681C437.225 454.781 437.125 454.981 436.925 454.981ZM426.925 451.281C426.825 451.281 426.825 451.281 426.825 451.281L421.925 449.481C421.625 449.381 421.525 449.081 421.625 448.881C421.725 448.581 422.025 448.481 422.225 448.581L427.125 450.381C427.425 450.481 427.525 450.781 427.425 450.981C427.425 451.181 427.125 451.281 426.925 451.281ZM417.025 447.581C416.925 447.581 416.925 447.581 416.925 447.581L412.025 445.781C411.725 445.681 411.625 445.381 411.725 445.181C411.825 444.881 412.125 444.781 412.325 444.881L417.225 446.681C417.525 446.781 417.625 447.081 417.525 447.281C417.425 447.381 417.225 447.581 417.025 447.581Z" fill="#110580"/>
<path d="M407.125 443.881C407.025 443.881 407.025 443.881 407.025 443.881L403.825 442.681L405.025 439.481C405.125 439.181 405.425 439.081 405.625 439.181C405.925 439.281 406.025 439.581 405.925 439.781L405.125 442.081L407.425 442.881C407.725 442.981 407.825 443.281 407.725 443.481C407.525 443.781 407.325 443.881 407.125 443.881Z" fill="#110580"/>
<path d="M407.325 435.181C407.225 435.181 407.225 435.181 407.225 435.181C406.925 435.081 406.825 434.781 406.925 434.581L408.725 429.681C408.825 429.381 409.125 429.281 409.325 429.381C409.625 429.481 409.725 429.781 409.625 429.981L407.825 434.881C407.625 434.981 407.425 435.181 407.325 435.181ZM410.925 425.281C410.825 425.281 410.825 425.281 410.825 425.281C410.525 425.181 410.425 424.881 410.525 424.681L412.325 419.781C412.425 419.481 412.725 419.381 412.925 419.481C413.225 419.581 413.325 419.881 413.225 420.081L411.425 424.981C411.325 425.181 411.125 425.281 410.925 425.281ZM414.625 415.381C414.525 415.381 414.525 415.381 414.525 415.381C414.225 415.281 414.125 414.981 414.225 414.781L416.025 409.881C416.125 409.581 416.425 409.481 416.625 409.581C416.925 409.681 417.025 409.981 416.925 410.181L415.125 415.081C415.025 415.181 414.825 415.381 414.625 415.381ZM418.325 405.381C418.225 405.381 418.225 405.381 418.225 405.381C417.925 405.281 417.825 404.981 417.925 404.781L419.725 399.881C419.825 399.581 420.125 399.481 420.325 399.581C420.625 399.681 420.725 399.981 420.625 400.181L418.825 405.081C418.725 405.381 418.525 405.381 418.325 405.381Z" fill="#110580"/>
<path d="M422.025 395.581C421.925 395.581 421.925 395.581 421.925 395.581C421.625 395.481 421.525 395.181 421.625 394.981L422.825 391.781L426.025 392.981C426.325 393.081 426.425 393.381 426.325 393.581C426.225 393.881 425.925 393.981 425.725 393.881L423.425 393.081L422.625 395.381C422.425 395.381 422.225 395.581 422.025 395.581Z" fill="#110580"/>
<path d="M465.425 408.581C465.325 408.581 465.325 408.581 465.325 408.581L460.425 406.781C460.125 406.681 460.025 406.381 460.125 406.181C460.225 405.881 460.525 405.781 460.725 405.881L465.625 407.681C465.925 407.781 466.025 408.081 465.925 408.281C465.825 408.481 465.625 408.581 465.425 408.581ZM455.525 404.881C455.425 404.881 455.425 404.881 455.425 404.881L450.525 403.081C450.225 402.981 450.125 402.681 450.225 402.481C450.325 402.181 450.625 402.081 450.825 402.181L455.725 403.981C456.025 404.081 456.125 404.381 456.025 404.581C455.925 404.781 455.725 404.881 455.525 404.881ZM445.625 401.181C445.525 401.181 445.525 401.181 445.525 401.181L440.625 399.381C440.325 399.281 440.225 398.981 440.325 398.781C440.425 398.481 440.725 398.381 440.925 398.481L445.825 400.281C446.125 400.381 446.225 400.681 446.125 400.881C446.025 401.081 445.825 401.181 445.625 401.181ZM435.725 397.481C435.625 397.481 435.625 397.481 435.625 397.481L430.725 395.681C430.425 395.581 430.325 395.281 430.425 395.081C430.525 394.781 430.825 394.681 431.025 394.781L435.925 396.581C436.225 396.681 436.325 396.981 436.225 397.181C436.125 397.381 435.925 397.481 435.725 397.481Z" fill="#110580"/>
<path d="M472.125 414.181C472.025 414.181 472.025 414.181 472.025 414.181C471.725 414.081 471.625 413.781 471.725 413.581L472.525 411.281L470.225 410.481C469.925 410.381 469.825 410.081 469.925 409.881C470.025 409.581 470.325 409.481 470.525 409.581L473.725 410.781L472.525 413.981C472.525 414.081 472.325 414.181 472.125 414.181Z" fill="#110580"/>
<path d="M457.325 453.881C457.225 453.881 457.225 453.881 457.225 453.881C456.925 453.781 456.825 453.481 456.925 453.281L458.725 448.381C458.825 448.081 459.125 447.981 459.325 448.081C459.625 448.181 459.725 448.481 459.625 448.681L457.825 453.581C457.725 453.681 457.525 453.881 457.325 453.881ZM461.025 443.881C460.925 443.881 460.925 443.881 460.925 443.881C460.625 443.781 460.525 443.481 460.625 443.281L462.425 438.381C462.525 438.081 462.825 437.981 463.025 438.081C463.325 438.181 463.425 438.481 463.325 438.681L461.525 443.581C461.425 443.781 461.225 443.881 461.025 443.881ZM464.725 434.081C464.625 434.081 464.625 434.081 464.625 434.081C464.325 433.981 464.225 433.681 464.325 433.481L466.125 428.581C466.225 428.281 466.525 428.181 466.725 428.281C467.025 428.381 467.125 428.681 467.025 428.881L465.225 433.781C465.125 433.881 464.925 434.081 464.725 434.081ZM468.425 424.081C468.325 424.081 468.325 424.081 468.325 424.081C468.025 423.981 467.925 423.681 468.025 423.481L469.825 418.581C469.925 418.281 470.225 418.181 470.425 418.281C470.725 418.381 470.825 418.681 470.725 418.881L468.925 423.781C468.825 423.981 468.625 424.081 468.425 424.081Z" fill="#110580"/>
<path d="M320.025 226.381C320.025 226.381 307.525 186.681 303.425 169.881C296.925 143.981 279.325 128.481 254.425 128.481C229.225 128.481 211.425 144.381 204.425 170.081C197.325 196.581 187.925 224.281 187.925 224.281C186.825 227.781 188.525 231.581 191.925 232.981C199.925 236.181 216.725 241.781 254.325 241.381C287.925 240.981 305.225 236.281 313.925 235.281C318.325 234.781 321.125 230.481 320.025 226.381Z" fill="#110580"/>
<path d="M268.725 213.781H240.025V262.581C240.025 266.681 243.325 269.981 247.425 269.981H261.325C265.425 269.981 268.725 266.681 268.725 262.581V213.781V213.781Z" fill="#FCB58A"/>
<path d="M253.925 124.681C263.825 124.681 271.825 116.681 271.825 106.781C271.825 96.8806 263.825 88.8806 253.925 88.8806C244.025 88.8806 236.025 96.8806 236.025 106.781C236.025 116.681 244.125 124.681 253.925 124.681Z" fill="#110580"/>
<path d="M211.825 219.581C207.125 219.581 207.025 203.881 207.025 202.181C207.025 200.481 207.125 184.781 211.825 184.781C216.525 184.781 216.625 200.381 216.625 202.181C216.525 203.981 216.425 219.581 211.825 219.581ZM211.825 187.481C211.025 188.581 209.625 193.581 209.625 202.181C209.625 210.681 210.925 215.681 211.825 216.881C212.625 215.781 214.025 210.781 214.025 202.181C214.025 193.581 212.625 188.681 211.825 187.481Z" fill="white"/>
<path d="M296.025 219.581C291.325 219.581 291.225 203.881 291.225 202.181C291.225 200.481 291.325 184.781 296.025 184.781C300.725 184.781 300.825 200.381 300.825 202.181C300.825 203.981 300.625 219.581 296.025 219.581ZM296.025 187.481C295.225 188.581 293.825 193.581 293.825 202.181C293.825 210.681 295.125 215.681 296.025 216.881C296.825 215.781 298.225 210.781 298.225 202.181C298.225 193.581 296.925 188.681 296.025 187.481Z" fill="white"/>
<path d="M254.425 224.481C280.625 224.481 301.825 203.281 301.825 177.081C301.825 150.881 280.625 129.681 254.425 129.681C228.225 129.681 207.025 150.881 207.025 177.081C207.025 203.281 228.225 224.481 254.425 224.481Z" fill="#FCB58A"/>
<path d="M205.925 180.481C206.025 181.281 206.025 181.981 206.125 182.781C206.125 182.881 206.125 182.981 206.125 183.081C206.225 183.881 206.325 184.681 206.525 185.581V185.681C206.625 186.481 206.925 187.381 207.025 188.281C210.225 175.181 221.925 165.481 236.025 165.481C237.825 165.481 239.525 165.581 241.125 165.881C242.425 166.181 243.625 166.281 245.025 166.281C253.825 166.281 261.125 159.581 262.125 150.981C262.125 150.981 262.225 150.981 262.225 150.881C262.125 151.781 262.025 152.681 262.025 153.581C262.025 163.681 270.225 171.881 280.325 171.881H280.425C290.325 173.881 298.225 181.181 301.125 190.681C301.725 188.581 302.225 186.381 302.525 184.181C302.525 184.081 302.525 184.081 302.525 183.881C302.625 182.981 302.725 182.081 302.825 181.081C302.825 180.881 302.925 180.581 302.925 180.381C303.025 179.281 303.025 178.281 303.025 177.181C303.025 176.281 303.025 175.381 302.925 174.581C302.925 174.281 302.825 174.081 302.825 173.781C302.725 173.181 302.725 172.481 302.725 171.981C302.725 171.681 302.625 171.381 302.625 171.181C302.525 170.581 302.525 169.981 302.425 169.381C302.325 169.081 302.325 168.781 302.325 168.581C302.225 167.981 302.125 167.381 301.925 166.781C301.825 166.481 301.825 166.281 301.825 165.981C301.725 165.381 301.525 164.781 301.325 164.181C301.225 163.981 301.225 163.781 301.125 163.581C300.925 162.981 300.725 162.281 300.525 161.681C300.425 161.581 300.425 161.281 300.425 161.181C300.225 160.481 299.925 159.781 299.625 159.181C299.525 159.081 299.525 158.981 299.525 158.881C299.225 158.081 298.925 157.281 298.525 156.581C294.325 147.681 287.525 140.181 279.025 135.281C276.325 133.781 273.525 132.381 270.525 131.381C270.425 131.381 270.325 131.281 270.225 131.281C269.425 130.981 268.525 130.681 267.625 130.481C267.525 130.381 267.325 130.381 267.225 130.381C265.325 129.881 263.325 129.481 261.425 129.181C261.125 129.081 260.925 129.081 260.625 129.081C259.825 128.981 259.125 128.981 258.325 128.881C258.025 128.881 257.725 128.781 257.525 128.781C256.525 128.681 255.525 128.681 254.525 128.681C227.725 128.681 206.025 150.381 206.025 177.181C206.025 178.081 206.025 178.981 206.125 179.881C205.925 180.181 205.925 180.381 205.925 180.481Z" fill="#110580"/>
<path d="M300.625 255.881C288.525 248.681 274.725 246.181 268.725 245.281C266.825 253.181 262.825 257.581 253.925 257.581C244.925 257.581 241.825 253.081 240.125 244.981C238.325 245.081 232.725 246.181 231.425 246.481C215.025 249.681 208.425 253.881 200.225 259.981C187.625 269.381 175.225 288.981 172.625 293.481C172.225 294.081 172.225 294.781 172.625 295.281C174.125 297.581 178.225 303.381 184.025 307.181C192.225 312.581 201.925 315.581 201.925 315.581C201.925 315.581 205.825 308.381 207.025 305.681C208.525 302.081 212.625 289.981 212.625 289.981C212.625 289.981 208.925 298.081 208.625 306.481C208.425 314.181 211.025 322.881 210.825 327.881C210.225 339.481 206.825 349.481 205.625 354.081C205.325 355.181 206.025 356.281 207.125 356.481C213.425 357.881 232.125 362.081 251.225 362.081C275.925 362.081 292.925 359.381 298.925 358.481C300.025 358.281 300.725 357.181 300.425 356.081C299.425 352.181 297.725 345.381 296.025 330.281C294.725 318.481 296.125 316.181 296.025 307.881C296.025 301.781 293.525 289.481 293.525 289.481L295.925 312.881C295.925 312.881 304.625 313.281 317.025 307.881C321.325 305.981 326.725 301.081 329.025 298.881C329.625 298.281 329.825 297.281 329.425 296.481C326.225 289.981 312.425 262.981 300.625 255.881Z" fill="white"/>
<path d="M254.425 224.481C249.425 224.481 244.625 223.681 240.125 222.281V231.181C244.625 232.581 249.525 232.681 254.625 232.181C261.325 231.581 264.225 230.281 268.725 228.281V222.281C264.225 223.681 259.425 224.481 254.425 224.481Z" fill="#E3996D"/>
<path d="M213.625 357.981C213.625 357.981 237.025 361.881 253.425 361.881C270.725 361.881 292.225 359.381 292.225 359.381C292.225 359.381 294.125 371.681 294.925 374.381C295.725 377.081 280.725 382.381 254.125 381.881C219.225 381.281 210.925 376.281 210.925 374.881C210.725 373.881 213.625 357.981 213.625 357.981Z" fill="#FCB58A"/>
<path d="M303.425 382.581C325.025 425.581 335.225 452.581 341.025 510.281C345.925 558.781 339.725 623.581 338.725 660.581C338.725 661.681 338.425 662.881 337.825 663.781C336.025 666.581 324.825 668.881 321.725 669.181C306.125 670.281 291.525 667.981 290.125 662.481C282.125 629.881 275.825 595.581 271.325 561.581C267.625 533.381 263.325 501.981 260.825 478.781C260.625 476.881 257.825 476.781 257.625 478.781C257.225 482.681 256.725 504.281 256.125 510.681C254.525 528.881 251.525 546.781 248.625 564.781C243.925 593.381 232.925 633.781 224.525 660.981C223.925 662.781 222.025 665.381 219.925 665.681C216.225 666.281 207.225 666.981 202.525 666.681C195.525 666.081 180.925 664.081 180.125 660.581C169.525 616.481 169.225 531.581 184.525 443.281C188.225 422.281 196.625 398.781 204.425 384.681C204.425 384.681 229.425 389.581 252.425 389.581C280.025 389.381 303.425 382.581 303.425 382.581Z" fill="#FFADB2"/>
<path d="M110.625 121.381L79.5249 111.381C77.7249 110.781 76.6249 108.781 77.2249 106.881L83.8249 86.5806C84.4249 84.7806 86.4249 83.6806 88.3249 84.2806L119.425 94.2806C121.225 94.8806 122.325 96.8806 121.725 98.7806L115.125 119.081C114.425 120.981 112.425 122.081 110.625 121.381Z" fill="#AAACE3"/>
<path d="M125.025 104.381C123.725 104.381 122.625 105.181 122.325 106.381L121.225 109.781L120.125 113.181C119.725 114.381 120.125 115.681 121.225 116.381L129.625 122.681C131.225 123.981 133.625 123.181 134.225 121.181L136.425 114.481L138.625 107.781C139.225 105.781 137.825 103.881 135.725 103.881L125.025 104.381Z" fill="#AAACE3"/>
<path d="M210.725 374.981C210.725 374.981 208.025 375.581 206.325 378.481C204.725 381.281 204.325 384.681 204.325 384.681C204.325 384.681 222.425 390.081 256.725 390.981C289.925 391.781 303.425 382.681 303.425 382.681C303.425 382.681 302.225 378.981 299.425 377.281C296.625 375.681 294.725 374.581 294.725 374.581C294.725 374.581 284.325 383.781 252.725 381.581C221.125 379.081 210.725 374.981 210.725 374.981Z" fill="#FFADB2"/>
<path d="M66.625 171.181L55.825 171.981L60.625 237.581L71.425 236.781L66.625 171.181Z" fill="#DADAED"/>
<path d="M60.0249 180.481L56.325 180.781L56.425 181.581L60.125 181.281L60.0249 180.481Z" fill="#989BD7"/>
<path d="M60.625 187.781L56.925 188.081L57.0249 188.881L60.7249 188.581L60.625 187.781Z" fill="#989BD7"/>
<path d="M61.2249 195.181L57.5249 195.481L57.625 196.281L61.325 195.981L61.2249 195.181Z" fill="#989BD7"/>
<path d="M61.7249 202.481L58.0249 202.781L58.125 203.581L61.825 203.281L61.7249 202.481Z" fill="#989BD7"/>
<path d="M62.2249 209.881L58.5249 210.181L58.625 210.981L62.325 210.681L62.2249 209.881Z" fill="#989BD7"/>
<path d="M62.7249 217.181L59.0249 217.481L59.125 218.281L62.825 217.981L62.7249 217.181Z" fill="#989BD7"/>
<path d="M63.325 224.481L59.625 224.781L59.7249 225.581L63.425 225.281L63.325 224.481Z" fill="#989BD7"/>
<path d="M55.5249 193.681L48.625 194.881L57.7249 246.681L64.625 245.481L55.5249 193.681Z" fill="#FFADB2"/>
<path d="M55.5249 193.681L48.625 194.881L49.7249 184.981L51.125 184.681L55.5249 193.681Z" fill="#EBDBCD"/>
<path d="M50.125 189.581L51.125 188.981L51.925 189.081L53.0249 188.581L51.2249 184.881L49.825 185.181L49.325 189.081L50.125 189.581Z" fill="#FF7A82"/>
<path d="M71.525 235.881C70.325 235.681 69.525 234.581 69.725 233.381L75.1251 198.781C75.2251 198.481 75.2251 198.181 75.3251 197.981L78.4252 189.281C78.8252 188.281 79.9252 187.681 80.9252 187.881L81.4252 187.981C82.5252 188.181 83.225 189.181 83.225 190.281L82.525 199.481C82.525 199.781 82.4252 200.081 82.4252 200.381L74.225 234.381C73.825 235.381 72.725 236.181 71.525 235.881Z" fill="#2B31BA"/>
<path d="M112.025 259.581H67.125V274.581H112.025V259.581Z" fill="#F8D7BC"/>
<path d="M113.925 258.481V259.581H67.0249V274.581H113.925V275.681H17.5249V258.381H113.925V258.481Z" fill="#FF7A82"/>
<path d="M53.0249 301.481H119.325V277.281H53.0249C49.7249 277.281 47.125 279.981 47.125 283.181V295.481C47.125 298.881 49.7249 301.481 53.0249 301.481Z" fill="#F8ECE2"/>
<path d="M13.825 275.781H122.325C122.725 275.781 123.125 276.181 123.125 276.581C123.125 276.981 122.725 277.381 122.325 277.381H109.025H59.2249C52.5249 277.381 47.125 282.781 47.125 289.481C47.125 296.181 52.5249 301.581 59.2249 301.581H120.725H122.325C122.725 301.581 123.125 301.981 123.125 302.381C123.125 302.781 122.725 303.181 122.325 303.181H13.7249C7.02485 303.181 1.625 297.781 1.625 291.081V288.081C1.725 281.181 7.12495 275.781 13.825 275.781Z" fill="#2B31BA"/>
<path d="M119.425 281.181H56.5249V281.981H119.425V281.181Z" fill="#EBD0BE"/>
<path d="M119.425 291.181H51.925V291.981H119.425V291.181Z" fill="#EBD0BE"/>
<path d="M119.425 296.381H60.2249V297.181H119.425V296.381Z" fill="#EBD0BE"/>
<path d="M119.425 286.481H53.925V287.281H119.425V286.481Z" fill="#EBD0BE"/>
<path d="M67.925 257.881H26.625V249.181H67.925C69.125 249.181 70.0249 250.081 70.0249 251.281V255.681C70.0249 256.881 69.125 257.881 67.925 257.881Z" fill="#F8E7D8"/>
<path d="M93.625 248.581H24.925C24.825 248.581 24.625 248.681 24.625 248.881C24.625 249.081 24.725 249.181 24.925 249.181H65.625C68.025 249.181 69.925 251.181 69.925 253.481C69.925 255.881 67.925 257.781 65.625 257.781H24.925C24.825 257.781 24.625 257.881 24.625 258.081C24.625 258.181 24.725 258.381 24.925 258.381H93.625C96.025 258.381 97.925 256.381 97.925 254.081V252.781C97.925 250.481 96.025 248.581 93.625 248.581Z" fill="#FF5856"/>
<path d="M50.7248 212.281H80.925C81.725 212.281 82.3248 212.981 82.2248 213.781L77.8249 248.581H53.6249L49.425 213.781C49.325 212.981 49.9248 212.281 50.7248 212.281Z" fill="#AAACE3"/>
<path d="M81.5249 187.581L81.0249 187.481C79.9249 187.281 78.825 187.881 78.425 188.881L75.2249 197.781C75.1249 197.881 75.125 197.981 75.125 198.181C76.125 198.981 77.425 199.681 78.825 199.881C80.125 200.081 81.4249 199.981 82.5249 199.681C82.5249 199.581 82.625 199.481 82.625 199.281L83.325 189.881C83.425 188.781 82.6249 187.881 81.5249 187.581Z" fill="#D7D7E6"/>
<path d="M81.6251 174.181C81.9251 173.581 82.725 173.581 83.025 174.181C83.525 175.181 84.1251 176.381 84.6251 177.181C85.4251 178.681 85.9252 182.081 85.4252 183.781C84.9252 185.781 83.5251 187.781 83.1251 188.481C83.0251 188.581 82.925 188.681 82.725 188.781C82.325 188.881 81.5252 189.081 80.4252 188.881C78.9252 188.481 78.8251 187.581 78.8251 187.581C78.8251 187.581 78.0251 184.381 78.1251 182.381C78.2251 180.381 79.3251 177.881 79.8251 177.481C80.1251 176.981 81.0251 175.381 81.6251 174.181Z" fill="#C7645D"/>
<path d="M198.425 678.281C208.325 678.381 214.725 675.281 214.725 675.281C214.725 675.281 218.725 683.781 219.525 688.281C220.325 692.681 222.625 707.781 219.125 710.581C215.425 713.681 216.125 712.881 211.325 714.881C204.625 717.681 201.725 716.381 192.625 720.981C189.225 722.781 174.625 736.381 159.825 737.581C147.325 738.681 144.025 732.681 142.525 729.381C141.025 726.081 143.725 719.681 152.525 713.081C163.225 705.081 173.925 693.681 176.125 690.781C182.725 681.881 185.725 673.681 185.725 673.681C185.725 673.681 188.225 678.081 198.425 678.281Z" fill="#C7645D"/>
<path d="M316.625 679.281C306.725 679.381 300.825 676.181 300.825 676.181C300.825 676.181 296.425 682.681 294.825 690.981C294.025 695.381 292.425 708.781 295.925 711.681C299.625 714.781 298.925 713.981 303.725 715.981C310.425 718.781 313.325 717.481 322.425 722.081C325.825 723.881 340.425 737.581 355.225 738.681C364.225 739.381 371.025 733.781 372.525 730.481C374.025 727.181 374.125 720.381 363.025 712.981C351.925 705.581 338.825 693.781 337.125 690.581C334.525 685.681 329.325 674.681 329.325 674.681C329.325 674.681 326.825 679.081 316.625 679.281Z" fill="#C7645D"/>
<path d="M444.625 194.881C437.625 196.781 430.325 192.581 428.425 185.681L425.025 173.281C423.125 166.281 427.325 158.981 434.225 157.081C441.225 155.181 448.525 159.381 450.425 166.281L453.825 178.681C455.825 185.681 451.725 192.981 444.625 194.881Z" fill="#AAACE3"/>
<path d="M446.725 202.581C435.125 205.781 423.225 198.881 420.125 187.381L419.725 185.781C419.325 184.481 420.125 183.081 421.525 182.681C422.825 182.281 424.225 183.081 424.625 184.481L425.025 186.081C427.425 194.881 436.625 200.181 445.425 197.681C454.225 195.281 459.525 186.081 457.025 177.281L456.625 175.681C456.225 174.381 457.025 172.981 458.425 172.581C459.725 172.181 461.125 172.981 461.525 174.381L461.925 175.981C465.125 187.481 458.225 199.381 446.725 202.581Z" fill="#AAACE3"/>
<path d="M461.825 205.881C463.125 205.481 463.525 204.081 462.625 203.081C458.425 198.381 451.825 196.081 445.425 197.881C438.925 199.681 434.425 204.881 433.225 211.181C433.025 212.481 434.125 213.481 435.425 213.181L461.825 205.881Z" fill="#AAACE3"/>
<path d="M380.525 268.781C383.025 263.381 390.025 258.881 395.325 259.281C400.625 259.681 398.925 259.881 400.625 259.681C402.325 259.581 404.925 257.781 408.425 258.881C412.325 260.081 420.725 264.481 420.825 274.181C420.925 282.481 414.925 291.981 403.925 294.181C392.925 296.381 385.525 292.281 382.225 287.581C378.425 282.081 378.125 273.881 380.525 268.781Z" fill="#FF5856"/>
<path d="M397.725 266.081C397.725 266.081 396.925 253.581 401.925 248.281C407.525 242.381 414.925 236.981 414.425 240.481C414.325 241.281 415.525 253.381 412.125 257.881C406.925 264.881 397.725 266.081 397.725 266.081Z" fill="#4C7378"/>
<path d="M396.325 265.581C396.325 265.581 395.325 260.181 394.425 257.181C392.425 250.981 391.225 247.981 391.225 247.981L396.725 246.781C396.725 246.781 398.725 254.081 399.125 256.981C399.825 261.981 399.425 265.281 399.425 265.281C399.425 265.281 398.725 266.381 397.725 266.281C396.525 266.381 396.325 265.581 396.325 265.581Z" fill="#6B4D3A"/>
<path d="M394.125 248.881C395.625 248.581 396.825 247.781 396.625 247.081C396.525 246.381 395.125 245.981 393.625 246.281C392.125 246.581 390.925 247.381 391.125 248.081C391.225 248.781 392.625 249.081 394.125 248.881Z" fill="#8A634B"/>
<path d="M500.425 302.981H372.125C371.025 302.981 370.125 302.081 370.125 300.981V295.881C370.125 294.781 371.025 293.881 372.125 293.881H500.325C501.425 293.881 502.325 294.781 502.325 295.881V300.981C502.425 302.081 501.425 302.981 500.425 302.981Z" fill="#C5C6E3"/>
<path d="M435.225 292.381H407.125V282.481H435.225C436.025 282.481 436.525 283.081 436.525 283.781V290.881C436.725 291.681 436.025 292.381 435.225 292.381Z" fill="#F8D0B3"/>
<path d="M485.825 280.881H430.125H405.625H404.825C404.425 280.881 404.025 281.281 404.025 281.681C404.025 282.081 404.425 282.481 404.825 282.481H407.125H433.725C435.325 282.481 436.425 283.781 436.425 285.181V289.581C436.425 291.181 435.125 292.381 433.725 292.381H427.625H404.925C404.525 292.381 404.125 292.781 404.125 293.181C404.125 293.581 404.525 293.981 404.925 293.981H405.525H430.125H485.625C487.225 293.981 488.325 292.681 488.325 291.281V283.881C488.525 282.081 487.325 280.881 485.825 280.881Z" fill="#FF7A82"/>
<path d="M448.925 280.181H403.625V270.681H448.925C450.225 270.681 451.325 271.781 451.325 273.081V277.781C451.325 279.181 450.325 280.181 448.925 280.181Z" fill="#F8E7D8"/>
<path d="M477.325 269.981H401.725C401.525 269.981 401.325 270.081 401.325 270.381C401.325 270.581 401.425 270.781 401.725 270.781H446.525C449.125 270.781 451.325 272.881 451.325 275.581C451.325 278.181 449.225 280.381 446.525 280.381H401.725C401.525 280.381 401.325 280.481 401.325 280.781C401.325 280.981 401.425 281.181 401.725 281.181H477.325C479.925 281.181 482.125 279.081 482.125 276.381V274.981C482.025 272.081 479.925 269.981 477.325 269.981Z" fill="#4E53BA"/>
<path d="M438.125 277.381H403.625V276.981H438.125C438.225 276.981 438.325 277.081 438.325 277.181C438.325 277.281 438.225 277.381 438.125 277.381Z" fill="#DEBCA7"/>
<path d="M446.025 274.281H403.625V273.881H446.025C446.125 273.881 446.225 273.981 446.225 274.081C446.225 274.181 446.225 274.281 446.025 274.281Z" fill="#DEBCA7"/>
<path d="M383.625 130.181C385.025 127.381 380.325 122.181 373.125 118.481C365.925 114.781 358.825 113.981 357.425 116.781C356.025 119.581 360.725 124.781 367.925 128.481C375.225 132.181 382.225 132.981 383.625 130.181Z" fill="#D4BFA9"/>
<path d="M360.125 112.081C362.825 107.181 365.025 102.181 366.125 96.7806C368.425 85.0806 365.325 71.4806 372.725 62.2806C378.125 55.5806 387.625 53.5806 396.125 54.7806C406.525 56.2806 416.325 62.2805 421.125 71.5805C425.825 80.8805 424.625 93.2805 417.225 100.581C410.925 106.681 401.525 108.681 395.025 114.481C391.325 117.681 388.725 121.981 386.025 126.081L385.125 127.381C365.025 125.181 360.125 112.081 360.125 112.081Z" fill="#EBDBCD"/>
<path d="M395.525 93.9805C394.725 90.8805 392.025 90.9805 389.625 92.0805C389.025 90.3805 388.125 88.1805 386.425 87.4805C384.425 86.6805 382.225 88.0806 380.625 89.2806C377.225 91.8806 374.625 95.6806 373.125 99.6806C371.525 103.581 370.825 107.881 369.425 111.881C368.825 113.481 371.425 114.181 372.025 112.581C373.825 107.481 374.525 101.981 377.325 97.2806C378.825 94.6806 381.125 91.6805 384.025 90.4805C384.925 90.0805 385.625 89.9806 386.225 90.8806C386.725 91.5806 387.025 92.4806 387.325 93.1806C387.325 93.2806 387.425 93.2806 387.425 93.3806C387.025 93.5806 386.825 93.7805 386.525 93.9805C383.725 95.9805 380.125 99.6806 380.225 103.381C380.225 105.081 381.325 106.481 383.025 106.581C384.925 106.681 386.825 105.281 388.025 103.881C390.325 101.281 391.025 97.8805 390.525 94.5805C391.125 94.1805 391.725 93.9805 392.325 93.9805C394.025 93.8805 393.225 96.5805 393.025 97.4805C392.225 100.481 390.425 103.181 388.725 105.781C387.425 107.781 386.325 109.881 384.825 111.581C383.125 113.581 380.925 114.881 378.725 116.281C377.225 117.181 378.625 119.481 380.025 118.581C382.525 116.981 385.125 115.381 387.025 112.981C389.025 110.481 390.725 107.681 392.425 104.981C393.925 102.081 396.525 97.5805 395.525 93.9805ZM387.525 98.5805C387.125 99.9805 386.525 101.281 385.525 102.381C384.925 102.981 382.325 105.081 382.525 103.181C382.625 101.981 383.625 100.681 384.325 99.6806C385.225 98.3806 386.425 97.2806 387.725 96.2806C387.725 96.9806 387.725 97.7805 387.525 98.5805Z" fill="#BFA990"/>
<path d="M368.025 128.481C361.425 125.181 357.025 120.481 357.225 117.581L353.925 129.281C352.825 131.581 356.625 135.781 362.425 138.781C368.225 141.781 374.025 142.481 375.125 140.181C375.225 140.081 375.225 139.981 375.225 139.781L383.025 130.781C380.925 132.781 374.625 131.881 368.025 128.481Z" fill="#BFA990"/>
<path d="M295.225 38.5806C295.125 38.5806 295.125 38.5806 295.025 38.4806C294.725 38.3806 294.625 37.9807 294.725 37.6807C295.225 36.5807 295.825 35.4806 296.525 34.4806C296.725 34.1806 297.125 34.0806 297.325 34.3806C297.625 34.5806 297.725 34.9807 297.425 35.1807C296.725 36.0807 296.125 37.0807 295.725 38.1807C295.725 38.4807 295.525 38.5806 295.225 38.5806Z" fill="#110580"/>
<path d="M390.425 74.8806C390.325 74.8806 390.325 74.8806 390.225 74.7806L389.425 74.4806C387.525 73.7806 385.525 72.9806 383.425 72.1806C383.125 72.0806 383.025 71.6806 383.025 71.3806C383.125 71.0806 383.525 70.9806 383.825 70.9806C385.825 71.7806 387.825 72.5806 389.725 73.2806L390.525 73.5805C390.825 73.6805 391.025 74.0806 390.925 74.3806C390.925 74.7806 390.725 74.8806 390.425 74.8806ZM377.025 69.2806C376.925 69.2806 376.825 69.2806 376.725 69.1806C374.425 67.9806 372.325 66.6806 370.425 65.3806C370.125 65.1806 370.025 64.7805 370.325 64.5805C370.525 64.2805 370.925 64.1806 371.125 64.4806C373.025 65.7806 375.025 66.9806 377.325 68.1806C377.625 68.2806 377.725 68.6806 377.625 68.9806C377.425 69.0806 377.225 69.2806 377.025 69.2806ZM365.225 60.8806C365.125 60.8806 364.925 60.7806 364.825 60.6806C363.025 58.8806 361.525 56.9806 360.125 54.8806C359.925 54.5806 360.025 54.2805 360.325 54.0805C360.625 53.8805 360.925 53.9806 361.125 54.2806C362.425 56.2806 363.825 58.0806 365.625 59.8806C365.825 60.0806 365.825 60.4806 365.625 60.6806C365.525 60.7806 365.325 60.8806 365.225 60.8806ZM357.425 48.6806C357.225 48.6806 356.925 48.5806 356.825 48.2806C356.025 45.9806 355.325 43.5805 355.025 41.0805C354.925 40.6805 355.225 40.4806 355.525 40.3806C355.925 40.2806 356.125 40.5806 356.225 40.8806C356.625 43.1806 357.125 45.5806 358.025 47.7806C358.125 48.0806 357.925 48.3805 357.625 48.5805C357.525 48.6805 357.425 48.6806 357.425 48.6806ZM361.325 40.9806C360.025 40.9806 358.625 40.8806 357.325 40.6806C356.925 40.5806 356.725 40.2806 356.825 39.9806C356.925 39.5806 357.225 39.3806 357.525 39.4806C358.825 39.6806 360.125 39.7806 361.425 39.7806C362.525 39.7806 363.625 39.6805 364.625 39.5805C365.025 39.4805 365.225 39.7805 365.325 40.0805C365.425 40.3805 365.125 40.6806 364.825 40.7806C363.625 40.8806 362.425 40.9806 361.325 40.9806ZM350.325 38.8806C350.225 38.8806 350.225 38.8806 350.125 38.8806C348.125 38.1806 346.025 37.2805 343.325 36.0805C343.025 35.9805 342.925 35.5806 343.025 35.2806C343.125 34.9806 343.525 34.8806 343.825 34.9806C346.425 36.1806 348.525 37.0806 350.525 37.7806C350.825 37.8806 351.025 38.1805 350.925 38.5805C350.825 38.6805 350.525 38.8806 350.325 38.8806ZM371.525 38.5805C371.325 38.5805 371.125 38.4806 371.025 38.2806C370.925 37.9806 370.925 37.6806 371.225 37.4806C372.325 36.8806 373.325 36.1806 374.225 35.2806C375.025 34.5806 375.725 33.7806 376.225 32.7806C376.325 32.4806 376.825 32.3805 377.025 32.5805C377.325 32.6805 377.425 33.1806 377.225 33.3806C376.625 34.4806 375.825 35.3805 374.925 36.0805C373.925 36.9805 372.925 37.7806 371.725 38.3806C371.725 38.5806 371.625 38.5805 371.525 38.5805ZM355.525 34.3806C355.125 34.2806 354.925 33.9806 354.925 33.7806C355.225 31.1806 355.925 28.7805 356.925 26.5805C357.025 26.2805 357.425 26.1806 357.725 26.2806C358.025 26.3806 358.125 26.7805 358.025 27.0805C357.025 29.0805 356.325 31.3806 356.025 33.8806C356.025 34.1806 355.725 34.3806 355.525 34.3806ZM337.025 32.9806C336.925 32.9806 336.925 32.9806 336.725 32.8806C335.925 32.4806 335.225 32.1806 334.425 31.7806C332.925 31.0806 331.425 30.4806 330.125 29.9806C329.825 29.8806 329.625 29.4806 329.725 29.1806C329.825 28.8806 330.225 28.6806 330.525 28.7806C331.925 29.3806 333.325 29.8805 334.925 30.5805C335.725 30.9805 336.525 31.2806 337.225 31.6806C337.525 31.7806 337.625 32.1806 337.525 32.4806C337.425 32.7806 337.225 32.9806 337.025 32.9806ZM302.225 30.5805C302.025 30.5805 301.825 30.4806 301.725 30.2806C301.525 29.9806 301.625 29.6806 301.925 29.4806C303.925 28.1806 306.325 27.1806 308.725 26.4806C309.125 26.3806 309.325 26.5806 309.425 26.8806C309.525 27.2806 309.325 27.4805 309.025 27.5805C306.725 28.1805 304.525 29.0806 302.525 30.3806C302.525 30.5806 302.425 30.5805 302.225 30.5805ZM323.425 27.8806C323.325 27.8806 323.325 27.8806 323.325 27.8806C320.825 27.2806 318.425 27.0806 316.225 26.9806C315.825 26.9806 315.625 26.6806 315.625 26.3806C315.625 25.9806 315.925 25.7806 316.225 25.7806C318.525 25.8806 321.025 26.1806 323.525 26.6806C323.925 26.7806 324.025 27.0806 323.925 27.3806C323.925 27.6806 323.725 27.8806 323.425 27.8806ZM378.625 26.7806C378.225 26.7806 378.025 26.4806 378.025 26.1806C377.925 24.1806 377.225 22.3805 376.025 21.0805C375.725 20.7805 375.425 20.4806 375.225 20.2806C374.925 20.0806 374.925 19.6806 375.125 19.4806C375.325 19.1806 375.725 19.1806 375.925 19.3806C376.325 19.6806 376.625 19.9806 376.925 20.2806C378.425 21.8806 379.225 23.7806 379.325 26.1806C379.325 26.4806 379.025 26.7806 378.625 26.7806C378.625 26.7806 378.725 26.7806 378.625 26.7806ZM361.925 21.6806C361.725 21.6806 361.525 21.5806 361.425 21.4806C361.225 21.1806 361.325 20.8806 361.525 20.6806C363.525 19.1806 366.025 18.0806 368.425 17.6806C368.825 17.5806 369.025 17.8806 369.125 18.1806C369.225 18.5806 368.925 18.7806 368.625 18.8806C366.325 19.1806 364.125 20.1805 362.325 21.5805C362.225 21.6805 362.125 21.6806 361.925 21.6806Z" fill="#110580"/>
<path d="M400.125 79.5806C400.025 79.5806 399.825 79.4806 399.725 79.4806C399.125 78.8806 398.125 78.2807 396.925 77.6807C396.625 77.5807 396.525 77.1806 396.625 76.8806C396.725 76.5806 397.125 76.4806 397.425 76.5806C398.725 77.2806 399.725 77.8806 400.525 78.5806C400.725 78.7806 400.825 79.1806 400.625 79.3806C400.525 79.4806 400.325 79.5806 400.125 79.5806Z" fill="#110580"/>
<path d="M394.925 3.78063C398.825 17.1806 398.525 29.5806 398.125 43.2806C398.025 47.0806 410.425 45.8806 411.325 42.5806C414.625 29.2806 412.325 14.9806 408.125 2.28063C406.725 -1.81937 393.825 0.180626 394.925 3.78063Z" fill="#F3E9E1"/>
<path d="M447.825 30.1806C441.825 40.9806 434.325 49.8806 426.625 59.3806C423.225 63.5806 435.125 62.8806 437.225 60.8806C446.625 52.5806 454.025 41.3806 459.625 30.1806C461.325 26.9806 449.625 26.9806 447.825 30.1806Z" fill="#F3E9E1"/>
<path d="M445.725 86.3806C454.225 86.5806 462.625 86.9806 471.025 87.4806C474.025 87.6806 478.825 86.4805 479.725 83.0805C480.625 79.6805 476.625 77.8806 473.925 77.6806C465.425 77.1806 457.125 76.8805 448.625 76.5805C445.625 76.4805 440.925 77.4806 439.925 80.9806C439.025 84.3806 442.925 86.2806 445.725 86.3806Z" fill="#F3E9E1"/>
<path d="M293.925 289.081C293.925 289.081 295.725 299.481 295.925 304.581C296.025 307.681 295.925 312.581 295.925 312.581C295.925 312.581 298.225 312.581 299.425 312.481C300.625 312.381 302.025 312.081 302.025 312.081C302.025 312.081 300.625 307.381 299.125 302.781C297.725 298.781 293.925 289.081 293.925 289.081Z" fill="#E0E0E0"/>
<path d="M212.925 288.581C212.925 288.581 210.425 295.881 209.225 300.481C208.425 303.981 208.725 307.081 208.525 307.981C208.225 309.481 206.725 313.581 206.025 315.481C205.825 316.081 205.225 316.381 204.625 316.281C203.625 316.081 202.125 315.681 201.025 315.381C199.225 314.781 197.925 314.281 198.225 314.381C198.225 314.381 202.125 308.781 205.025 303.981C207.425 299.781 212.925 288.581 212.925 288.581Z" fill="#E0E0E0"/>
<path d="M295.425 384.381C311.425 416.081 321.225 450.681 326.525 485.681C332.125 522.781 332.625 560.481 330.925 597.881C329.925 619.481 328.125 641.081 326.025 662.681C325.825 665.181 329.625 665.081 329.825 662.681C333.525 623.981 336.425 585.181 335.425 546.281C334.525 509.981 330.225 473.581 320.425 438.681C315.025 419.381 307.825 400.481 298.825 382.481C297.625 380.281 294.325 382.181 295.425 384.381Z" fill="white"/>
<path d="M208.125 385.081C194.125 417.281 186.425 451.681 182.225 486.481C177.825 522.181 176.825 558.481 177.225 594.381C177.525 615.781 178.525 636.981 181.025 658.281C181.325 660.681 185.125 660.781 184.825 658.281C180.525 621.181 180.325 583.781 181.625 546.481C182.825 511.681 185.825 476.881 193.525 442.781C197.825 423.781 203.725 404.881 211.425 386.981C212.425 384.781 209.125 382.881 208.125 385.081Z" fill="white"/>
<path d="M122.325 301.481H120.725H115.425C115.025 302.081 114.625 302.581 114.125 302.981H122.225C122.625 302.981 123.025 302.581 123.025 302.181C123.025 301.881 122.725 301.481 122.325 301.481Z" fill="#2B31BA"/>
<path d="M122.325 277.281C122.725 277.281 123.125 276.881 123.125 276.481C123.125 276.081 122.725 275.681 122.325 275.681H116.825V277.181L122.325 277.281Z" fill="#2B31BA"/>
<path d="M112.325 305.681C109.125 304.981 105.825 304.081 102.625 302.981H33.325V303.181C33.325 304.781 33.925 306.281 34.925 307.681H108.325C109.825 307.681 111.125 306.981 112.325 305.681Z" fill="#E3996D"/>
<path d="M382.425 305.581C383.625 306.881 385.025 307.681 386.525 307.681H463.325C463.725 306.781 463.925 305.881 463.825 304.781V302.981H391.825C388.625 303.981 385.525 304.881 382.425 305.581Z" fill="#E3996D"/>
<path d="M253.425 361.881C237.025 361.881 213.625 357.981 213.625 357.981C213.625 357.981 213.225 359.781 212.825 362.281C223.425 365.581 237.725 367.281 253.425 366.681C268.225 366.081 281.625 363.481 291.725 359.781C291.825 359.681 291.925 359.681 292.125 359.581C292.125 359.481 292.125 359.481 292.125 359.481C292.125 359.481 270.625 361.981 253.425 361.881Z" fill="#F0A173"/>
</svg>
