<svg width="645" height="412" viewBox="0 0 645 412" fill="none" xmlns="http://www.w3.org/2000/svg">
<path d="M244.638 157.73C244.338 157.623 244.138 157.409 243.938 157.088C243.738 156.767 243.738 156.553 243.738 156.232C243.738 155.804 243.938 155.376 244.238 155.055C244.538 154.734 244.939 154.52 245.339 154.52H252.845V146.387C252.845 145.959 253.045 145.53 253.345 145.209C253.645 144.888 254.046 144.674 254.446 144.674C254.846 144.674 255.247 144.888 255.547 145.209C255.847 145.53 256.047 145.959 256.047 146.387V157.837H245.439C245.039 157.837 244.838 157.837 244.638 157.73Z" fill="#110580"/>
<path d="M90.318 157.623C90.0178 157.516 89.8176 157.302 89.6175 156.981C89.4173 156.66 89.3172 156.446 89.4173 156.125C89.4173 155.697 89.6175 155.269 89.8176 154.948C90.1179 154.627 90.5182 154.413 90.9185 154.413H110.234C110.634 154.413 111.034 154.627 111.334 154.948C111.635 155.269 111.735 155.697 111.735 156.125C111.735 156.553 111.535 156.981 111.334 157.302C111.034 157.623 110.634 157.837 110.234 157.837H90.9185C90.7183 157.73 90.5182 157.73 90.318 157.623ZM128.848 157.623C128.548 157.516 128.248 157.195 128.047 156.874C127.847 156.553 127.847 156.125 127.947 155.804C128.047 155.483 128.248 155.055 128.448 154.841C128.748 154.627 129.048 154.52 129.449 154.52H148.764C149.164 154.52 149.564 154.734 149.864 155.055C150.165 155.376 150.265 155.804 150.265 156.232C150.265 156.66 150.065 157.088 149.864 157.409C149.564 157.73 149.164 157.944 148.764 157.944H129.449C129.248 157.73 129.048 157.73 128.848 157.623ZM167.478 157.623C167.178 157.516 166.878 157.195 166.678 156.874C166.477 156.553 166.477 156.125 166.577 155.804C166.678 155.483 166.878 155.055 167.078 154.841C167.378 154.627 167.678 154.52 168.079 154.52H187.394C187.794 154.52 188.194 154.734 188.495 155.055C188.795 155.376 188.895 155.804 188.895 156.232C188.895 156.66 188.695 157.088 188.495 157.409C188.194 157.73 187.794 157.944 187.394 157.944H168.079C167.879 157.73 167.678 157.73 167.478 157.623ZM206.008 157.623C205.708 157.516 205.508 157.302 205.308 156.981C205.107 156.66 205.108 156.446 205.108 156.125C205.108 155.697 205.308 155.269 205.608 154.948C205.908 154.627 206.308 154.413 206.709 154.413H225.924C226.324 154.413 226.724 154.627 227.025 154.948C227.325 155.269 227.425 155.697 227.425 156.125C227.425 156.553 227.225 156.981 227.025 157.302C226.724 157.623 226.324 157.837 225.924 157.837H206.709C206.509 157.73 206.208 157.73 206.008 157.623Z" fill="#110580"/>
<path d="M60.9952 157.73V146.28C60.9952 145.852 61.1954 145.424 61.3955 145.103C61.6957 144.782 62.0961 144.568 62.4964 144.568C62.8967 144.568 63.297 144.782 63.5972 145.103C63.8975 145.424 63.9976 145.852 63.9976 146.28V154.413H71.5034C71.9037 154.413 72.304 154.627 72.6043 154.948C72.9045 155.269 73.1047 155.697 73.1047 156.125C73.1047 156.553 72.9045 156.981 72.6043 157.302C72.304 157.623 71.9037 157.837 71.5034 157.837H60.9952V157.73Z" fill="#110580"/>
<path d="M61.996 128.517C61.6958 128.409 61.4956 128.195 61.2955 127.874C61.0953 127.553 60.9952 127.339 61.0953 127.018V107.757C61.0953 107.329 61.2955 106.901 61.4956 106.58C61.7959 106.259 62.1962 106.045 62.5965 106.045C62.9968 106.045 63.3971 106.259 63.6973 106.58C63.9975 106.901 64.0976 107.329 64.0976 107.757V127.018C64.0976 127.446 63.8975 127.874 63.6973 128.195C63.3971 128.516 62.9968 128.73 62.5965 128.73C62.3963 128.73 62.1962 128.624 61.996 128.517ZM61.996 89.9936C61.6958 89.8866 61.4956 89.6725 61.2955 89.3515C61.0953 89.0304 60.9952 88.8164 61.0953 88.4953V69.2339C61.0953 68.8059 61.2955 68.378 61.4956 68.057C61.7959 67.7359 62.1962 67.5219 62.5965 67.5219C62.9968 67.5219 63.3971 67.7359 63.6973 68.057C63.9975 68.378 64.0976 68.8059 64.0976 69.2339V88.4953C64.0976 88.9234 63.8975 89.3515 63.6973 89.6725C63.3971 89.9936 62.9968 90.2076 62.5965 90.2076C62.3963 90.1006 62.1962 90.1006 61.996 89.9936ZM61.996 51.4707C61.6958 51.3637 61.4956 51.1496 61.2955 50.8286C61.0953 50.5075 60.9952 50.2935 61.0953 49.9724V30.711C61.0953 30.283 61.2955 29.8551 61.4956 29.5341C61.7959 29.213 62.1962 28.999 62.5965 28.999C62.9968 28.999 63.3971 29.213 63.6973 29.5341C63.9975 29.8551 64.0976 30.283 64.0976 30.711V49.9724C64.0976 50.4005 63.8975 50.8286 63.6973 51.1496C63.3971 51.4707 62.9968 51.6847 62.5965 51.6847C62.3963 51.5777 62.1962 51.5777 61.996 51.4707Z" fill="#110580"/>
<path d="M61.996 12.948C61.6958 12.841 61.4956 12.6268 61.2955 12.3058C61.0953 11.9848 60.9952 11.7707 60.9952 11.4497V0H71.6035C72.0038 0 72.4041 0.214014 72.7043 0.535036C73.0046 0.856057 73.2047 1.28419 73.2047 1.71222C73.2047 2.14025 73.0046 2.56812 72.7043 2.88914C72.4041 3.21016 72.0038 3.42418 71.6035 3.42418H64.0976V11.5568C64.0976 11.9849 63.8975 12.413 63.6973 12.734C63.3971 13.055 62.9968 13.269 62.5965 13.269C62.4964 13.055 62.1962 12.948 61.996 12.948Z" fill="#110580"/>
<path d="M90.4181 3.21016C90.1179 3.10315 89.8177 2.78217 89.6175 2.46113C89.4174 2.1401 89.4174 1.71205 89.4174 1.39102C89.5174 0.962972 89.7176 0.642042 90.0179 0.428019C90.3181 0.213996 90.6183 0.106932 91.0186 0.106932H110.334C110.734 0.106932 111.134 0.320955 111.435 0.64199C111.735 0.963024 111.935 1.39091 111.935 1.81896C111.935 2.24701 111.735 2.67516 111.435 2.99619C111.134 3.31723 110.734 3.53125 110.334 3.53125H91.0186C90.8185 3.31723 90.6183 3.21016 90.4181 3.21016ZM128.948 3.31728C128.748 3.31728 128.548 3.21032 128.348 3.10331C128.148 2.9963 128.047 2.78212 127.947 2.67511C127.747 2.35407 127.647 1.81906 127.747 1.39102C127.847 0.962972 128.047 0.534926 128.448 0.320903C128.748 0.10688 129.248 -7.97656e-05 129.649 0.106932H148.964C149.364 0.106932 149.764 0.320955 150.065 0.64199C150.365 0.963024 150.565 1.39091 150.565 1.81896C150.565 2.24701 150.365 2.67516 150.065 2.99619C149.764 3.31723 149.364 3.53125 148.964 3.53125H129.649C129.348 3.31723 129.148 3.31728 128.948 3.31728ZM167.578 3.31728C167.278 3.21027 167.078 2.99614 166.878 2.67511C166.678 2.35407 166.678 2.14 166.678 1.81896C166.678 1.39091 166.878 0.963024 167.178 0.64199C167.478 0.320955 167.878 0.106932 168.279 0.106932H187.594C187.994 0.106932 188.395 0.320955 188.695 0.64199C188.995 0.963024 189.095 1.39091 189.095 1.81896C189.095 2.24701 188.895 2.67516 188.695 2.99619C188.395 3.31723 187.994 3.53125 187.594 3.53125H168.279C167.979 3.42424 167.778 3.42429 167.578 3.31728ZM206.108 3.31728C205.808 3.21027 205.608 2.99614 205.408 2.67511C205.208 2.35407 205.208 2.14 205.208 1.81896C205.208 1.39091 205.408 0.963024 205.708 0.64199C206.008 0.320955 206.409 0.106932 206.809 0.106932H226.124C226.524 0.106932 226.925 0.320955 227.225 0.64199C227.525 0.963024 227.625 1.39091 227.625 1.81896C227.625 2.24701 227.425 2.67516 227.225 2.99619C226.925 3.31723 226.524 3.53125 226.124 3.53125H206.709C206.509 3.42424 206.308 3.31728 206.108 3.31728Z" fill="#110580"/>
<path d="M253.745 13.0545C253.445 12.9475 253.245 12.7337 253.045 12.4126C252.845 12.0916 252.845 11.8776 252.845 11.5566V3.4241H245.339C244.939 3.4241 244.538 3.21009 244.238 2.88907C243.938 2.56806 243.738 2.1402 243.738 1.71218C243.738 1.28416 243.938 0.856037 244.238 0.535023C244.538 0.214009 244.939 0 245.339 0H255.947V11.4494C255.947 11.8775 255.747 12.3056 255.547 12.6266C255.247 12.9476 254.846 13.1616 254.446 13.1616C254.246 13.1616 253.946 13.1615 253.745 13.0545Z" fill="#110580"/>
<path d="M253.745 128.731C253.445 128.624 253.245 128.41 253.045 128.089C252.845 127.768 252.745 127.554 252.745 127.233V107.971C252.745 107.543 252.945 107.115 253.245 106.794C253.545 106.473 253.945 106.259 254.346 106.259C254.746 106.259 255.146 106.473 255.447 106.794C255.747 107.115 255.947 107.543 255.947 107.971V127.34C255.947 127.768 255.747 128.196 255.447 128.517C255.146 128.838 254.746 129.052 254.346 129.052C254.146 128.838 253.946 128.838 253.745 128.731ZM253.745 90.1006C253.445 89.9936 253.245 89.7798 253.045 89.4587C252.845 89.1377 252.745 88.9236 252.745 88.6026V69.3411C252.745 68.9131 252.945 68.485 253.245 68.1639C253.545 67.8429 253.945 67.6289 254.346 67.6289C254.746 67.6289 255.146 67.8429 255.447 68.1639C255.747 68.485 255.947 68.9131 255.947 69.3411V88.6026C255.947 89.0306 255.747 89.4588 255.447 89.7798C255.146 90.1008 254.746 90.3148 254.346 90.3148C254.146 90.3148 253.946 90.2076 253.745 90.1006ZM253.745 51.5777C253.445 51.4707 253.245 51.2568 253.045 50.9358C252.845 50.6148 252.745 50.4007 252.745 50.0797V30.8182C252.745 30.3902 252.945 29.962 253.245 29.641C253.545 29.32 253.945 29.106 254.346 29.106C254.746 29.106 255.146 29.32 255.447 29.641C255.747 29.962 255.947 30.3902 255.947 30.8182V50.0797C255.947 50.5077 255.747 50.9358 255.447 51.2569C255.146 51.5779 254.746 51.7919 254.346 51.7919C254.146 51.6849 253.946 51.6847 253.745 51.5777Z" fill="#110580"/>
<path d="M11.1563 109.041L12.3572 108.827C13.7583 108.506 15.2595 108.72 16.5605 109.469C17.8615 110.218 18.8623 111.395 19.3627 112.893L27.8693 138.361C27.9694 138.682 28.0695 139.003 28.0695 139.432C25.1672 142 21.7646 143.712 18.0617 144.354C14.7591 144.996 11.3565 144.675 8.15396 143.712C8.15396 143.391 8.0539 143.07 8.0539 142.749L6.1524 115.783C6.05232 114.177 6.55276 112.679 7.45346 111.502C8.45424 110.218 9.75521 109.362 11.1563 109.041Z" fill="#D7D7E6"/>
<path d="M10.7561 70.5185C10.5559 70.1975 10.2557 69.8764 9.95548 69.6624C9.65524 69.4484 9.2549 69.3413 8.85458 69.3413C8.45427 69.3413 8.15406 69.4484 7.75375 69.6624C7.45352 69.8764 7.15329 70.1975 6.95314 70.5185C5.65212 73.3007 3.95075 76.9389 2.64974 79.2931C0.347944 83.4664 -0.652787 93.5251 0.44807 98.0195C1.84916 102.728 3.95075 107.222 6.65286 111.288C6.85301 111.609 7.25332 111.93 7.65364 112.037C9.65519 112.679 11.6568 112.679 13.6583 112.144C17.5614 111.181 17.9617 108.399 17.9617 108.399C17.9617 108.399 20.1634 99.0896 19.8632 93.5252C19.4628 87.9608 16.6607 80.5772 15.4598 79.2931C13.7584 76.5109 12.1572 73.6217 10.7561 70.5185Z" fill="#C7645D"/>
<path d="M42.5809 240.447L28.3698 141.144C28.2697 140.609 28.1696 140.074 28.0695 139.539C25.2674 142 21.8647 143.712 18.1618 144.354C14.9593 144.889 11.5567 144.675 8.45428 143.712C8.45428 144.354 8.55435 144.996 8.75451 145.531L30.7717 243.123C31.2721 244.621 32.2728 245.798 33.5738 246.547C34.8749 247.296 36.276 247.51 37.7771 247.189C39.1782 246.868 40.4792 246.012 41.3799 244.835C42.0805 243.551 42.5809 242.053 42.5809 240.447Z" fill="#2B31BA"/>
<path d="M38.2775 250.292L67.1 252.539L79.91 64.0979L51.0875 61.8506L38.2775 250.292Z" fill="#DADAED"/>
<path d="M68.3009 88.6025L68.1007 90.8497L78.0085 91.5986L78.2086 89.3515L68.3009 88.6025Z" fill="#989BD7"/>
<path d="M66.8998 109.255L66.7997 111.502L76.7074 112.251L76.8075 110.004L66.8998 109.255Z" fill="#989BD7"/>
<path d="M65.3987 130.764L65.1985 133.011L75.1062 133.76L75.3064 131.513L65.3987 130.764Z" fill="#989BD7"/>
<path d="M63.9975 151.845L63.7974 154.091L73.7051 154.84L73.9052 152.594L63.9975 151.845Z" fill="#989BD7"/>
<path d="M62.5965 172.925L62.3963 175.172L72.304 175.921L72.5042 173.674L62.5965 172.925Z" fill="#989BD7"/>
<path d="M61.0953 194.005L60.8951 196.253L70.8029 197.002L71.0031 194.754L61.0953 194.005Z" fill="#989BD7"/>
<path d="M59.6942 215.086L59.4941 217.333L69.4018 218.082L69.6019 215.835L59.6942 215.086Z" fill="#989BD7"/>
<path d="M56.1914 275.546L74.6058 278.97L98.8247 130.122L80.4103 126.698L56.1914 275.546Z" fill="#FFADB2"/>
<path d="M80.5104 126.697L98.9247 130.122L96.0225 101.658L92.2195 100.909L80.5104 126.697Z" fill="#EBDBCD"/>
<path d="M94.8215 114.82L92.1194 112.894L89.9177 113.215L87.2156 111.717L92.0194 101.016L95.8223 101.765L97.0233 113.215L94.8215 114.82Z" fill="#FF7A82"/>
<path d="M93.3204 179.88H12.7576C12.2572 179.88 11.7568 179.987 11.3565 180.201C10.8561 180.415 10.4558 180.736 10.1555 181.164C9.8553 181.592 9.55512 182.021 9.45504 182.556C9.35496 183.091 9.25484 183.626 9.35492 184.161L20.0633 276.723C20.2634 278.756 21.2642 280.682 22.6653 282.073C24.1665 283.464 25.9679 284.213 27.9695 284.213H78.4087C80.3102 284.213 82.2117 283.464 83.7129 282.073C85.214 280.682 86.1148 278.756 86.3149 276.723L96.723 184.161C96.8231 183.626 96.723 183.09 96.6229 182.662C96.5229 182.127 96.2226 181.7 95.9224 181.272C95.6222 180.843 95.2218 180.522 94.7214 180.308C94.3211 179.987 93.8208 179.88 93.3204 179.88Z" fill="#FF7A82"/>
<path d="M485.826 27.7148H160.873C149.364 27.7148 139.957 37.7736 139.957 50.1866V271.051C139.957 283.464 149.364 293.523 160.873 293.523H485.826C497.335 293.523 506.743 283.464 506.743 271.051V50.1866C506.743 37.7736 497.435 27.7148 485.826 27.7148Z" fill="#B3B6DE"/>
<path d="M487.327 41.9473H159.372C156.269 41.9473 153.868 44.6226 153.868 47.9398V268.59C153.868 271.907 156.37 274.583 159.372 274.583H487.327C490.43 274.583 492.832 271.907 492.832 268.59V47.9398C492.832 44.6226 490.33 41.9473 487.327 41.9473Z" fill="#E8EAF7"/>
<path d="M546.774 400.317H99.9255C97.7238 400.317 95.6222 399.675 93.7207 398.605C91.8192 397.428 90.218 395.823 89.1171 393.79C88.0163 391.757 87.4158 389.51 87.3157 387.155C87.2157 384.801 87.716 382.554 88.7168 380.414L134.052 305.294C135.753 301.763 138.456 298.767 141.558 296.734C144.761 294.7 148.363 293.63 152.066 293.63H494.233C497.936 293.63 501.639 294.7 504.841 296.734C508.044 298.767 510.646 301.763 512.347 305.294L557.682 380.414C558.683 382.447 559.183 384.801 559.083 387.155C558.983 389.51 558.383 391.757 557.282 393.79C556.181 395.823 554.58 397.428 552.678 398.605C551.077 399.675 548.976 400.317 546.774 400.317Z" fill="#C5C6E3"/>
<path d="M559.284 386.406C559.384 388.225 559.083 390.044 558.483 391.757C557.883 393.469 556.982 394.967 555.781 396.251C554.58 397.535 553.179 398.605 551.678 399.247C550.176 399.996 548.475 400.317 546.774 400.317H99.9256C98.2242 400.317 96.623 399.996 95.0218 399.247C93.5206 398.498 92.0194 397.535 90.9185 396.251C89.7176 394.967 88.8169 393.362 88.2164 391.757C87.616 390.044 87.3157 388.225 87.4158 386.406V398.391C87.4158 401.922 88.8169 405.346 91.1187 407.808C93.4205 410.269 96.623 411.66 99.9256 411.66H546.774C550.076 411.66 553.179 410.269 555.581 407.7C557.882 405.239 559.284 401.815 559.284 398.284V386.406Z" fill="#999BC9"/>
<path d="M410.367 390.472H236.432C235.731 390.472 235.031 390.258 234.43 389.937C233.83 389.616 233.33 389.081 232.929 388.439C232.529 387.797 232.329 387.048 232.329 386.299C232.329 385.55 232.429 384.801 232.829 384.159L239.735 360.082C240.335 358.905 241.136 357.942 242.136 357.3C243.137 356.658 244.338 356.336 245.539 356.336H401.26C402.461 356.336 403.662 356.658 404.663 357.3C405.664 357.942 406.565 358.905 407.065 360.082L413.87 384.159C414.17 384.801 414.371 385.55 414.371 386.299C414.371 387.048 414.17 387.797 413.77 388.439C413.37 389.081 412.869 389.616 412.269 389.937C411.669 390.365 411.068 390.472 410.367 390.472Z" fill="#D8DBF2"/>
<path d="M474.117 348.097H172.582C171.782 348.097 170.981 347.883 170.28 347.455C169.58 347.027 168.979 346.385 168.579 345.636C168.179 344.887 167.879 344.031 167.879 343.175C167.879 342.319 168.079 341.463 168.479 340.607L181.189 312.142C181.889 310.751 182.79 309.681 183.991 308.932C185.192 308.183 186.593 307.755 187.994 307.755H458.805C460.206 307.755 461.607 308.183 462.808 308.932C464.009 309.681 465.01 310.858 465.711 312.142L478.421 340.607C478.821 341.356 479.021 342.319 479.021 343.175C479.021 344.031 478.821 344.994 478.321 345.743C477.92 346.492 477.32 347.134 476.519 347.562C475.718 347.883 474.918 348.097 474.117 348.097Z" fill="#A7A9D6"/>
<path d="M153.868 62.5996H492.932V268.59C492.932 269.339 492.832 270.195 492.531 270.837C492.231 271.586 491.831 272.229 491.331 272.764C490.83 273.299 490.23 273.727 489.529 274.048C488.829 274.369 488.128 274.476 487.428 274.476H159.372C157.871 274.476 156.47 273.834 155.469 272.764C154.468 271.694 153.868 270.088 153.868 268.59V62.5996Z" fill="white"/>
<path d="M258.849 81.54H223.622C222.721 81.54 222.021 82.2892 222.021 83.2523V121.133C222.021 122.096 222.721 122.845 223.622 122.845H258.849C259.75 122.845 260.451 122.096 260.451 121.133V83.2523C260.451 82.3962 259.75 81.54 258.849 81.54Z" fill="#E8E8F7"/>
<path d="M421.176 115.355H293.877C291.975 115.355 290.374 117.067 290.374 119.1C290.374 121.24 291.975 122.845 293.877 122.845H421.176C423.077 122.845 424.679 121.133 424.679 119.1C424.679 117.067 423.077 115.355 421.176 115.355Z" fill="#E8E8F7"/>
<path d="M385.448 98.4473H293.877C291.975 98.4473 290.374 100.159 290.374 102.193C290.374 104.333 291.975 105.938 293.877 105.938H385.448C387.35 105.938 388.951 104.226 388.951 102.193C388.951 100.159 387.35 98.4473 385.448 98.4473Z" fill="#E8E8F7"/>
<path d="M403.262 81.54H293.877C291.975 81.54 290.374 83.2521 290.374 85.2852C290.374 87.4252 291.975 89.0303 293.877 89.0303H403.362C405.264 89.0303 406.865 87.3182 406.865 85.2852C406.865 83.2521 405.264 81.54 403.262 81.54Z" fill="#E8E8F7"/>
<path d="M258.849 148.848H223.622C222.721 148.848 222.021 149.597 222.021 150.56V188.441C222.021 189.404 222.721 190.153 223.622 190.153H258.849C259.75 190.153 260.451 189.404 260.451 188.441V150.56C260.451 149.597 259.75 148.848 258.849 148.848Z" fill="#E8E8F7"/>
<path d="M421.176 182.663H293.877C291.975 182.663 290.374 184.375 290.374 186.408C290.374 188.548 291.975 190.153 293.877 190.153H421.176C423.077 190.153 424.679 188.441 424.679 186.408C424.679 184.375 423.077 182.663 421.176 182.663Z" fill="#E8E8F7"/>
<path d="M385.448 165.755H293.877C291.975 165.755 290.374 167.468 290.374 169.501C290.374 171.641 291.975 173.246 293.877 173.246H385.448C387.35 173.246 388.951 171.534 388.951 169.501C388.951 167.468 387.35 165.755 385.448 165.755Z" fill="#E8E8F7"/>
<path d="M403.262 148.848H293.877C291.975 148.848 290.374 150.56 290.374 152.594C290.374 154.734 291.975 156.339 293.877 156.339H403.362C405.264 156.339 406.865 154.627 406.865 152.594C406.865 150.56 405.264 148.848 403.262 148.848Z" fill="#E8E8F7"/>
<path d="M258.849 216.156H223.622C222.721 216.156 222.021 216.905 222.021 217.868V255.749C222.021 256.712 222.721 257.461 223.622 257.461H258.849C259.75 257.461 260.451 256.712 260.451 255.749V217.868C260.451 216.905 259.75 216.156 258.849 216.156Z" fill="#E8E8F7"/>
<path d="M421.176 249.971H293.877C291.975 249.971 290.374 251.683 290.374 253.716C290.374 255.856 291.975 257.461 293.877 257.461H421.176C423.077 257.461 424.679 255.749 424.679 253.716C424.679 251.576 423.077 249.971 421.176 249.971Z" fill="#E8E8F7"/>
<path d="M385.448 233.063H293.877C291.975 233.063 290.374 234.776 290.374 236.809C290.374 238.949 291.975 240.554 293.877 240.554H385.448C387.35 240.554 388.951 238.842 388.951 236.809C388.951 234.776 387.35 233.063 385.448 233.063Z" fill="#E8E8F7"/>
<path d="M403.262 216.156H293.877C291.975 216.156 290.374 217.868 290.374 219.901C290.374 222.041 291.975 223.646 293.877 223.646H403.362C405.264 223.646 406.865 221.934 406.865 219.901C406.865 217.868 405.264 216.156 403.262 216.156Z" fill="#E8E8F7"/>
<path d="M166.277 56.0723C168.279 56.0723 169.88 54.3601 169.88 52.22C169.88 50.0799 168.279 48.3677 166.277 48.3677C164.276 48.3677 162.674 50.0799 162.674 52.22C162.775 54.3601 164.376 56.0723 166.277 56.0723Z" fill="#FF7A82"/>
<path d="M179.688 56.0723C181.689 56.0723 183.29 54.3601 183.29 52.22C183.29 50.0799 181.689 48.3677 179.688 48.3677C177.686 48.3677 176.085 50.0799 176.085 52.22C176.085 54.3601 177.686 56.0723 179.688 56.0723Z" fill="#FDB62F"/>
<path d="M192.998 56.0723C195 56.0723 196.601 54.3601 196.601 52.22C196.601 50.0799 195 48.3677 192.998 48.3677C190.996 48.3677 189.395 50.0799 189.395 52.22C189.395 54.3601 190.996 56.0723 192.998 56.0723Z" fill="#64A7B0"/>
<path d="M643.249 82.5034C643.449 82.5034 643.549 82.5034 643.749 82.5034C643.95 82.5034 644.05 82.6104 644.15 82.7174C644.25 82.8244 644.35 82.9313 644.45 83.1453C644.55 83.3593 644.55 83.4663 644.55 83.6803C644.55 83.8943 644.55 84.0013 644.45 84.2153C643.75 86.7835 642.749 89.1376 641.548 91.4917C641.348 91.8127 641.147 92.0268 640.847 92.1339C640.547 92.2409 640.247 92.2408 639.947 92.0267C639.646 91.8127 639.446 91.5988 639.346 91.2778C639.246 90.9567 639.346 90.6358 639.446 90.3148C640.547 88.1747 641.448 85.9276 642.048 83.5735C642.148 83.3595 642.248 83.1453 642.448 82.9313C642.749 82.6103 643.049 82.5034 643.249 82.5034Z" fill="#110580"/>
<path d="M444.694 28.999C444.794 28.999 444.995 28.999 445.095 28.999L446.796 29.427C450.799 30.497 454.902 31.5671 459.306 32.8512C459.506 32.8512 459.606 32.9584 459.706 33.0654C459.806 33.1724 459.906 33.2793 460.006 33.4933C460.106 33.6003 460.106 33.8143 460.106 34.0284C460.106 34.2424 460.106 34.3494 460.006 34.5634C460.006 34.7774 459.906 34.8843 459.806 34.9913C459.706 35.0983 459.606 35.2054 459.406 35.3124C459.206 35.4194 459.106 35.4195 458.905 35.4195C458.705 35.4195 458.605 35.4194 458.405 35.3124C454.102 34.0283 449.998 32.9583 445.995 31.8882L444.294 31.4603C443.994 31.3533 443.694 31.1392 443.593 30.9252C443.393 30.6042 443.393 30.283 443.493 29.962C443.593 29.641 443.694 29.427 443.894 29.213C444.194 29.106 444.394 28.999 444.694 28.999ZM472.816 37.6665C473.016 37.6665 473.217 37.6665 473.417 37.6665C478.02 39.4857 482.524 41.6259 486.927 44.1941C487.027 44.3011 487.227 44.4082 487.328 44.5152C487.428 44.6222 487.528 44.8361 487.528 44.9431C487.528 45.1572 487.628 45.2642 487.528 45.4782C487.528 45.6922 487.428 45.7992 487.428 46.0132C487.328 46.1202 487.227 46.3344 487.127 46.4414C487.027 46.5484 486.827 46.6554 486.727 46.6554C486.527 46.6554 486.427 46.7624 486.227 46.6554C486.027 46.6554 485.926 46.5483 485.826 46.5483C481.523 44.0871 477.12 41.947 472.616 40.2349C472.316 40.1279 472.116 39.9139 472.016 39.6998C471.915 39.4858 471.815 39.1648 471.815 38.8437C471.815 38.5227 472.016 38.3087 472.116 38.0947C472.316 37.7737 472.516 37.6665 472.816 37.6665ZM498.436 52.6477C498.636 52.6477 498.736 52.6477 498.937 52.6477C499.137 52.6477 499.237 52.7549 499.337 52.8619C503.24 56.1792 506.843 59.9243 509.945 63.9907C510.045 64.0977 510.145 64.3116 510.145 64.4186C510.145 64.6326 510.245 64.7396 510.145 64.9536C510.145 65.1676 510.045 65.2747 510.045 65.4887C509.945 65.5957 509.845 65.8099 509.745 65.9169C509.545 66.1309 509.145 66.2379 508.844 66.2379C508.544 66.2379 508.244 66.0238 508.044 65.8098C504.941 61.8504 501.539 58.2123 497.736 55.0021C497.636 54.8951 497.535 54.7879 497.435 54.5739C497.335 54.4669 497.335 54.2529 497.335 54.0388C497.335 53.8248 497.335 53.7178 497.335 53.5038C497.335 53.2898 497.435 53.1829 497.535 53.0759C497.836 52.8619 498.136 52.7547 498.436 52.6477ZM516.851 76.7245C517.051 76.7245 517.351 76.7246 517.551 76.8317C517.751 76.9387 517.951 77.1527 518.051 77.3667C520.353 82.0751 522.155 87.1043 523.456 92.2407C523.556 92.4547 523.556 92.5618 523.556 92.7758C523.556 92.9898 523.456 93.0968 523.456 93.3108C523.356 93.5248 523.255 93.632 523.155 93.739C523.055 93.846 522.855 93.953 522.655 93.953C522.455 93.953 522.355 94.06 522.155 93.953C521.954 93.953 521.854 93.846 521.654 93.739C521.554 93.632 521.354 93.5248 521.254 93.3108C521.154 93.2038 521.054 92.9898 521.054 92.7758C519.853 87.7464 518.051 82.931 515.85 78.3297C515.75 78.2227 515.75 78.0086 515.75 77.7946C515.75 77.5806 515.75 77.4736 515.85 77.2596C515.85 77.0456 515.95 76.9387 516.05 76.8317C516.15 76.7246 516.25 76.6176 516.45 76.5106C516.55 76.8316 516.75 76.7245 516.851 76.7245ZM510.846 94.274C513.548 93.953 516.25 93.7388 518.952 93.8459C519.252 93.8459 519.553 93.953 519.753 94.274C519.953 94.4881 520.053 94.809 520.053 95.237C520.053 95.451 520.053 95.558 519.953 95.7721C519.853 95.8791 519.753 96.0932 519.653 96.2002C519.553 96.3073 519.453 96.4141 519.252 96.5211C519.152 96.6281 518.952 96.6282 518.752 96.6282C516.15 96.6282 513.548 96.7351 510.946 97.0561C508.844 97.3771 506.643 97.8054 504.541 98.3404C504.241 98.4474 503.94 98.3403 503.64 98.2333C503.34 98.0193 503.14 97.8053 503.14 97.4843C503.04 97.2703 503.04 97.1633 503.04 96.9492C503.04 96.7352 503.14 96.6282 503.24 96.4142C503.34 96.3072 503.44 96.093 503.54 95.986C503.64 95.879 503.84 95.7721 503.94 95.7721C506.342 95.023 508.544 94.4881 510.846 94.274ZM533.263 95.986C533.363 95.986 533.564 95.986 533.664 95.986C538.467 97.1631 543.171 98.6613 547.875 100.373C548.175 100.48 548.375 100.695 548.475 101.016C548.575 101.337 548.575 101.658 548.475 101.979C548.375 102.3 548.175 102.514 547.875 102.728C547.575 102.942 547.274 102.942 546.974 102.835C542.37 101.123 537.767 99.7315 533.063 98.5544C532.763 98.4474 532.563 98.3404 532.363 98.0193C532.162 97.8053 532.062 97.4842 532.162 97.1632C532.162 96.8422 532.263 96.5211 532.463 96.3071C532.763 96.0931 532.963 95.986 533.263 95.986ZM491.03 102.086C491.231 102.086 491.431 102.086 491.631 102.193C491.831 102.3 492.031 102.407 492.131 102.621C492.231 102.728 492.331 102.942 492.331 103.049C492.331 103.263 492.331 103.37 492.331 103.584C492.331 103.798 492.231 103.905 492.131 104.012C492.031 104.119 491.931 104.333 491.831 104.333C489.829 105.938 487.928 107.757 486.327 109.79C484.926 111.609 483.725 113.536 482.824 115.676C482.624 115.997 482.424 116.211 482.123 116.211C481.823 116.318 481.523 116.318 481.223 116.104C480.923 115.997 480.722 115.783 480.622 115.462C480.522 115.141 480.522 114.82 480.622 114.498C481.623 112.144 482.924 109.897 484.425 107.864C486.127 105.617 488.128 103.691 490.33 101.979C490.63 102.086 490.83 102.086 491.03 102.086ZM524.056 107.115H524.256C524.457 107.115 524.557 107.115 524.757 107.222C524.857 107.329 525.057 107.329 525.157 107.543C525.257 107.65 525.357 107.757 525.457 107.971C525.557 108.078 525.557 108.292 525.557 108.506C525.557 113.964 524.757 119.314 523.155 124.45C523.055 124.771 522.855 124.985 522.555 125.199C522.255 125.306 521.954 125.413 521.654 125.306C521.354 125.199 521.154 124.985 520.954 124.664C520.854 124.343 520.754 124.022 520.954 123.701C522.555 118.886 523.256 113.749 523.256 108.613C523.256 108.292 523.356 107.971 523.556 107.65C523.456 107.222 523.756 107.008 524.056 107.115ZM561.185 105.403C561.385 105.403 561.485 105.403 561.685 105.403C563.287 106.045 564.988 106.58 566.589 107.008C569.792 108.078 572.694 109.041 575.596 109.79C575.796 109.79 575.897 109.897 575.997 110.004C576.097 110.111 576.197 110.218 576.297 110.325C576.397 110.432 576.397 110.646 576.497 110.753C576.497 110.967 576.497 111.074 576.497 111.288C576.497 111.502 576.397 111.609 576.297 111.716C576.197 111.823 576.097 111.93 575.997 112.037C575.897 112.144 575.696 112.144 575.596 112.251C575.396 112.251 575.296 112.251 575.096 112.251C572.194 111.502 569.091 110.646 565.889 109.469C564.288 108.934 562.586 108.399 560.985 107.864C560.685 107.757 560.485 107.543 560.384 107.329C560.184 107.115 560.184 106.794 560.184 106.473C560.184 106.152 560.384 105.938 560.485 105.724C560.685 105.51 560.885 105.403 561.185 105.403ZM631.04 101.444C631.24 101.444 631.44 101.444 631.64 101.551C631.84 101.658 632.04 101.765 632.14 101.979C632.24 102.086 632.341 102.3 632.341 102.407C632.341 102.621 632.441 102.728 632.341 102.942C632.341 103.156 632.24 103.263 632.24 103.477C632.14 103.584 632.04 103.798 631.94 103.905C628.037 107.329 623.634 110.004 619.03 111.93C618.73 112.037 618.43 112.037 618.129 111.93C617.829 111.823 617.629 111.502 617.529 111.181C617.429 110.86 617.429 110.539 617.529 110.218C617.629 109.897 617.929 109.683 618.229 109.576C622.633 107.757 626.836 105.189 630.539 101.979C630.639 101.551 630.839 101.444 631.04 101.444ZM589.507 112.787H589.807C594.611 113.322 599.415 113.428 604.219 112.893C604.519 112.893 604.819 113 605.119 113.214C605.319 113.428 605.52 113.75 605.52 114.071C605.52 114.392 605.42 114.713 605.219 115.034C605.019 115.355 604.719 115.462 604.419 115.462C599.515 115.997 594.511 115.89 589.607 115.355C589.307 115.355 589.007 115.141 588.807 114.927C588.607 114.713 588.506 114.284 588.506 113.963C588.506 113.642 588.707 113.428 588.807 113.107C589.107 112.893 589.307 112.787 589.507 112.787ZM479.521 129.266C479.822 129.266 480.122 129.266 480.422 129.48C480.622 129.694 480.822 130.015 480.923 130.336C481.423 134.402 483.425 138.04 486.327 140.716C486.927 141.251 487.528 141.679 488.228 142.107C488.529 142.321 488.729 142.535 488.829 142.856C488.929 143.177 488.829 143.498 488.729 143.819C488.529 144.14 488.328 144.354 488.028 144.461C487.728 144.568 487.428 144.461 487.127 144.354C486.327 143.819 485.626 143.284 484.926 142.749C481.623 139.753 479.421 135.472 478.821 130.764C478.821 130.443 478.821 130.122 479.021 129.801C478.921 129.48 479.221 129.373 479.521 129.266ZM514.048 135.686C514.248 135.686 514.449 135.686 514.549 135.686C514.649 135.686 514.849 135.9 515.049 136.007C515.149 136.114 515.249 136.221 515.349 136.435C515.449 136.542 515.449 136.756 515.449 136.97C515.449 137.184 515.449 137.291 515.349 137.505C515.249 137.612 515.149 137.826 515.049 137.933C511.446 141.786 506.943 144.568 501.939 146.066C501.739 146.066 501.639 146.066 501.439 146.066C501.238 146.066 501.138 145.959 501.038 145.852C500.938 145.745 500.738 145.638 500.738 145.531C500.638 145.424 500.538 145.21 500.538 145.103C500.538 144.889 500.538 144.782 500.538 144.568C500.538 144.354 500.638 144.247 500.738 144.14C500.838 144.033 500.938 143.819 501.038 143.712C501.138 143.605 501.338 143.498 501.439 143.498C505.942 142.107 510.145 139.539 513.448 136.007C513.548 135.9 513.848 135.793 514.048 135.686Z" fill="#110580"/>
<path d="M424.078 21.2944C424.378 21.2944 424.679 21.2944 424.879 21.5084C426.78 22.8996 428.782 23.9698 430.984 24.7189C431.284 24.8259 431.484 25.0398 431.684 25.3608C431.784 25.6819 431.784 26.0031 431.684 26.3241C431.584 26.6452 431.384 26.8592 431.084 27.0732C430.783 27.1802 430.483 27.2872 430.183 27.0732C427.881 26.2171 425.579 25.0398 423.578 23.5416C423.378 23.4346 423.278 23.2207 423.178 22.8997C423.077 22.6856 423.077 22.3644 423.178 22.1504C423.278 21.9363 423.378 21.7224 423.578 21.5084C423.678 21.5084 423.878 21.4014 424.078 21.2944Z" fill="#110580"/>
<path d="M421.476 243.015C448.197 243.015 469.914 219.688 469.914 190.902C469.914 162.117 448.297 138.79 421.476 138.79C394.755 138.79 373.038 162.117 373.038 190.902C373.038 219.688 394.755 243.015 421.476 243.015Z" fill="#E8EBFF"/>
<path d="M479.421 213.695C473.717 209.95 466.311 211.876 462.808 218.082C459.306 224.182 461.107 232.207 466.811 235.953L540.869 284.535C546.574 288.28 553.979 286.354 557.482 280.147C560.985 274.048 559.183 266.022 553.479 262.277L479.421 213.695Z" fill="#2B31BA"/>
<path d="M423.177 181.271H373.939L373.739 182.556C373.339 185.124 373.138 187.799 373.138 190.474V191.972H423.177C424.478 191.972 425.779 191.437 426.68 190.367C427.581 189.404 428.181 188.013 428.181 186.622C428.181 185.231 427.681 183.84 426.68 182.877C425.779 181.807 424.478 181.271 423.177 181.271Z" fill="#CFCFEB"/>
<path d="M391.953 169.501C391.953 168.11 391.453 166.719 390.452 165.756C389.551 164.793 388.25 164.151 386.949 164.151H379.744L379.343 164.9C378.042 167.468 376.941 170.036 376.041 172.818L375.34 174.852H386.949C388.25 174.852 389.551 174.317 390.452 173.246C391.453 172.283 391.953 170.892 391.953 169.501Z" fill="#CFCFEB"/>
<path d="M410.067 152.379C410.067 150.988 409.567 149.597 408.566 148.634C407.665 147.671 406.364 147.029 405.063 147.029H394.155L393.755 147.35C390.852 149.597 388.15 152.272 385.648 155.161L383.647 157.623H405.063C405.764 157.623 406.364 157.516 406.965 157.195C407.565 156.981 408.166 156.552 408.566 156.017C409.066 155.482 409.367 154.947 409.667 154.305C409.867 153.77 410.067 153.128 410.067 152.379Z" fill="#CFCFEB"/>
<path d="M405.063 215.193H378.243L379.443 217.44C380.845 220.223 382.546 222.898 384.347 225.359L384.748 225.894H405.063C406.364 225.894 407.665 225.359 408.566 224.289C409.467 223.326 410.067 221.935 410.067 220.544C410.067 219.153 409.567 217.762 408.566 216.798C407.665 215.728 406.364 215.193 405.063 215.193Z" fill="#CFCFEB"/>
<path d="M370.536 157.516C364.432 168.324 361.329 180.951 361.83 193.578C362.33 206.312 366.333 218.511 373.239 228.783C380.244 239.056 389.851 246.868 400.86 251.255C411.969 255.642 423.978 256.391 435.487 253.395C446.996 250.399 457.304 243.871 465.31 234.455C473.317 225.145 478.521 213.481 480.422 200.854C482.223 188.334 480.522 175.493 475.618 163.936C470.614 152.38 462.608 142.749 452.6 136.114C445.895 131.727 438.489 128.838 430.783 127.447C423.077 126.163 415.171 126.484 407.565 128.517C399.959 130.55 392.754 134.081 386.449 139.004C379.944 144.033 374.64 150.239 370.536 157.516ZM462.808 217.975C457.804 226.75 450.499 233.813 441.892 238.093C433.185 242.373 423.478 243.871 414.07 242.266C404.663 240.661 395.856 236.06 388.751 229.104C381.745 222.149 376.741 213.053 374.54 203.101C372.238 193.043 372.838 182.556 376.141 172.925C379.443 163.294 385.348 154.841 393.054 148.741C400.76 142.642 409.967 139.218 419.575 138.79C429.182 138.361 438.589 141.037 446.796 146.387C457.704 153.557 465.61 165.114 468.613 178.597C471.515 192.08 469.414 206.204 462.808 217.975Z" fill="#2B31BA"/>
<path d="M441.091 160.298C445.995 165.113 447.496 171.32 446.396 175.814C445.195 180.736 452.5 179.666 453.701 175.172C454.702 171.427 454.602 167.574 453.501 163.829C452.3 160.191 450.099 157.088 447.096 154.84C443.694 152.379 439.79 150.774 435.687 150.132C431.584 149.49 427.481 149.811 423.478 151.095C423.077 151.202 422.677 151.309 422.377 151.63C422.077 151.844 421.776 152.272 421.576 152.593C421.376 153.021 421.276 153.449 421.276 153.877C421.276 154.305 421.376 154.733 421.576 155.161C423.378 157.409 425.579 156.66 431.084 156.66C434.787 156.66 438.289 157.944 441.091 160.298Z" fill="white"/>
</svg>
