<svg width="439" height="412" viewBox="0 0 439 412" fill="none" xmlns="http://www.w3.org/2000/svg">
<path d="M150.985 411.575C150.746 411.49 150.586 411.319 150.427 411.063C150.267 410.892 150.187 410.551 150.187 410.295C150.187 409.954 150.347 409.612 150.586 409.356C150.826 409.1 151.145 408.93 151.464 408.93H157.609V402.274C157.609 402.103 157.609 401.848 157.689 401.677C157.769 401.506 157.848 401.336 157.928 401.165C158.008 401.08 158.167 400.909 158.327 400.824C158.487 400.738 158.646 400.738 158.806 400.738C158.965 400.738 159.125 400.824 159.285 400.824C159.444 400.909 159.604 400.994 159.684 401.165C159.764 401.336 159.923 401.506 159.923 401.677C160.003 401.848 160.003 402.018 160.003 402.274V411.575H151.305C151.305 411.66 151.145 411.575 150.985 411.575Z" fill="#110580"/>
<path d="M24.1003 411.404C23.8609 411.319 23.7012 411.148 23.5416 410.892C23.382 410.721 23.3023 410.465 23.3023 410.124C23.3023 409.953 23.3024 409.782 23.3822 409.612C23.462 409.441 23.5417 409.27 23.6215 409.185C23.7013 409.014 23.8609 408.929 24.0205 408.844C24.1801 408.758 24.3397 408.758 24.4994 408.758H40.3799C40.6991 408.758 41.0184 408.929 41.2578 409.185C41.4972 409.441 41.6568 409.782 41.6568 410.124C41.6568 410.294 41.6567 410.465 41.5769 410.636C41.4971 410.807 41.4174 410.977 41.3376 411.063C41.2578 411.148 41.0982 411.233 40.9386 411.404C40.779 411.489 40.6193 411.489 40.4597 411.489H24.5792C24.4196 411.575 24.2599 411.489 24.1003 411.404ZM55.7815 411.404C55.5421 411.319 55.3028 411.062 55.1432 410.806C54.9836 410.55 54.9835 410.209 55.0633 409.953C55.1431 409.612 55.3028 409.356 55.4624 409.185C55.7018 409.014 55.9412 408.844 56.2604 408.844H72.1409C72.4601 408.844 72.7793 409.014 72.9389 409.27C73.1783 409.526 73.2584 409.868 73.2584 410.209C73.2584 410.551 73.1783 410.892 72.9389 411.148C72.6995 411.404 72.4601 411.575 72.1409 411.575H56.3403C56.1807 411.575 55.9411 411.575 55.7815 411.404ZM87.5429 411.404C87.3035 411.319 87.0639 411.062 86.9042 410.806C86.7446 410.55 86.745 410.209 86.8248 409.953C86.9046 409.612 87.0642 409.356 87.2238 409.185C87.4632 409.014 87.7026 408.844 88.0218 408.844H103.902C104.062 408.844 104.221 408.844 104.461 408.929C104.62 409.014 104.78 409.1 104.94 409.27C105.099 409.356 105.179 409.526 105.259 409.697C105.339 409.868 105.339 410.039 105.339 410.209C105.339 410.38 105.339 410.551 105.259 410.721C105.179 410.892 105.099 411.063 104.94 411.148C104.78 411.233 104.62 411.319 104.461 411.404C104.301 411.489 104.142 411.489 103.902 411.489H88.0218C87.8622 411.575 87.7025 411.575 87.5429 411.404ZM119.224 411.404C118.985 411.319 118.745 411.062 118.586 410.806C118.426 410.55 118.426 410.209 118.506 409.953C118.586 409.612 118.745 409.356 118.985 409.185C119.224 409.014 119.464 408.844 119.783 408.844H135.663C135.983 408.844 136.302 409.014 136.541 409.27C136.781 409.526 136.94 409.868 136.94 410.209C136.94 410.551 136.781 410.892 136.541 411.148C136.302 411.404 135.983 411.575 135.663 411.575H119.783C119.623 411.575 119.384 411.575 119.224 411.404Z" fill="#110580"/>
<path d="M0 411.575V402.274C0 401.933 0.159604 401.506 0.39901 401.336C0.638416 401.165 0.957701 400.909 1.27691 400.909C1.59612 400.909 1.9154 401.08 2.15481 401.336C2.39421 401.592 2.55382 401.933 2.55382 402.274V408.93H8.77821C9.09742 408.93 9.41671 409.1 9.65611 409.356C9.89552 409.612 10.0551 409.954 10.0551 410.295C10.0551 410.636 9.89552 410.977 9.65611 411.233C9.41671 411.489 9.09742 411.66 8.77821 411.66H0V411.575Z" fill="#110580"/>
<path d="M0.798019 387.683C0.558613 387.598 0.399243 387.427 0.23964 387.171C0.0800357 387 0 386.659 0 386.403V370.617C0 370.276 0.159604 369.935 0.39901 369.679C0.638415 369.423 0.957701 369.252 1.27691 369.252C1.43651 369.252 1.59619 369.337 1.7558 369.337C1.9154 369.423 2.07501 369.508 2.15481 369.593C2.23461 369.764 2.39406 369.935 2.39406 370.02C2.47386 370.191 2.47394 370.361 2.47394 370.532V386.318C2.47394 386.488 2.39398 386.744 2.31418 386.915C2.23438 387.085 2.07477 387.256 1.91517 387.341C1.75556 387.427 1.51639 387.512 1.35679 387.512C1.19718 387.768 0.957623 387.768 0.798019 387.683ZM0.798019 356.026C0.558613 355.941 0.399243 355.77 0.23964 355.514C0.0800357 355.343 0 355.088 0 354.832V338.961C0 338.619 0.159604 338.363 0.39901 338.107C0.638415 337.937 0.957701 337.766 1.27691 337.766C1.59612 337.766 1.9154 337.851 2.15481 338.107C2.39421 338.363 2.55382 338.619 2.55382 338.961V354.832C2.55382 355.173 2.39421 355.514 2.15481 355.77C1.9154 356.026 1.59612 356.197 1.27691 356.197C1.1173 356.111 0.957623 356.111 0.798019 356.026ZM0.877899 324.455C0.638493 324.37 0.478734 324.199 0.31913 324.028C0.159526 323.858 0.0798799 323.516 0.0798799 323.26V307.389C0.0798799 307.048 0.239484 306.707 0.47889 306.451C0.718295 306.195 1.03758 306.024 1.35679 306.024C1.676 306.024 1.99528 306.109 2.23469 306.451C2.47409 306.707 2.6337 307.048 2.6337 307.389V323.26C2.6337 323.431 2.55374 323.687 2.47394 323.857C2.39414 324.028 2.23453 324.199 2.07493 324.369C1.91532 324.455 1.67576 324.54 1.51616 324.54C1.27675 324.54 1.0375 324.54 0.877899 324.455Z" fill="#110580"/>
<path d="M0.877899 292.798C0.638493 292.713 0.478734 292.542 0.31913 292.286C0.159526 292.116 0.0798798 291.86 0.0798798 291.604V282.217H8.77821C8.93782 282.217 9.0975 282.217 9.2571 282.303C9.41671 282.388 9.57631 282.473 9.65611 282.559C9.73591 282.644 9.89536 282.815 9.89536 282.985C9.97516 283.156 9.97524 283.327 9.97524 283.497C9.97524 283.668 9.97516 283.839 9.89536 284.009C9.81556 284.18 9.73591 284.351 9.65611 284.436C9.57631 284.521 9.41671 284.692 9.2571 284.692C9.0975 284.777 8.93782 284.777 8.77821 284.777H2.6337V291.433C2.6337 291.604 2.63362 291.775 2.55382 291.945C2.47402 292.116 2.39398 292.286 2.31418 292.372C2.23438 292.457 2.07477 292.628 1.91517 292.628C1.75556 292.713 1.59627 292.713 1.43667 292.713C1.19726 292.969 1.0375 292.884 0.877899 292.798Z" fill="#110580"/>
<path d="M24.1804 284.863C23.941 284.777 23.7014 284.521 23.5418 284.265C23.3822 284.009 23.3821 283.668 23.4619 283.326C23.5417 282.985 23.7013 282.729 23.8609 282.559C24.1003 282.388 24.3397 282.217 24.6589 282.217H40.5398C40.859 282.217 41.1782 282.388 41.3378 282.644C41.5772 282.9 41.657 283.241 41.657 283.583C41.657 283.924 41.5772 284.265 41.3378 284.521C41.0984 284.777 40.859 284.948 40.5398 284.948H24.6589C24.4993 284.948 24.34 284.948 24.1804 284.863ZM55.8615 284.863C55.6221 284.777 55.3829 284.521 55.2233 284.265C55.0637 284.009 55.0636 283.668 55.1434 283.326C55.2232 282.985 55.3828 282.729 55.5424 282.559C55.7818 282.388 56.0212 282.217 56.3404 282.217H72.2209C72.3806 282.217 72.5403 282.217 72.7797 282.303C72.9393 282.388 73.099 282.473 73.2586 282.559C73.4182 282.644 73.4979 282.815 73.5777 282.985C73.6575 283.156 73.6576 283.327 73.6576 283.497C73.6576 283.668 73.6575 283.839 73.5777 284.009C73.4979 284.18 73.4182 284.351 73.2586 284.436C73.099 284.521 72.9393 284.692 72.7797 284.692C72.6201 284.777 72.4604 284.777 72.2209 284.777H56.3404C56.2606 284.948 56.0212 284.948 55.8615 284.863ZM87.623 284.863C87.3836 284.777 87.2238 284.607 87.0642 284.351C86.9046 284.18 86.8249 283.924 86.8249 283.668C86.8249 283.497 86.8246 283.327 86.9044 283.156C86.9842 282.985 87.0643 282.815 87.1441 282.729C87.2239 282.644 87.3835 282.473 87.5431 282.473C87.7027 282.388 87.8624 282.388 88.022 282.388H103.902C104.222 282.388 104.541 282.558 104.7 282.814C104.94 283.07 105.02 283.412 105.02 283.753C105.02 284.095 104.94 284.436 104.7 284.692C104.461 284.948 104.222 285.119 103.902 285.119H88.022C87.9422 285.033 87.7826 284.948 87.623 284.863ZM119.304 284.863C119.065 284.777 118.905 284.607 118.746 284.351C118.586 284.095 118.506 283.924 118.506 283.668C118.506 283.326 118.666 282.985 118.905 282.729C119.144 282.473 119.464 282.303 119.783 282.303H135.663C135.983 282.303 136.302 282.473 136.541 282.729C136.781 282.985 136.94 283.326 136.94 283.668C136.94 284.009 136.781 284.351 136.541 284.607C136.302 284.863 135.983 285.033 135.663 285.033H119.783C119.623 285.033 119.464 284.948 119.304 284.863Z" fill="#110580"/>
<path d="M158.487 292.969C158.247 292.883 158.088 292.713 157.928 292.457C157.768 292.286 157.689 292.03 157.689 291.774V285.118H151.544C151.384 285.118 151.225 285.118 150.985 285.033C150.746 284.948 150.666 284.863 150.507 284.777C150.347 284.692 150.267 284.521 150.187 284.351C150.108 284.18 150.108 284.009 150.108 283.839C150.108 283.668 150.108 283.497 150.187 283.326C150.267 283.156 150.347 282.985 150.507 282.9C150.666 282.814 150.826 282.644 150.985 282.644C151.145 282.644 151.304 282.559 151.544 282.559H160.243V291.945C160.243 292.201 160.163 292.371 160.083 292.542C160.003 292.713 159.843 292.883 159.684 293.054C159.524 293.139 159.285 293.225 159.125 293.225C158.886 293.054 158.646 293.054 158.487 292.969Z" fill="#110580"/>
<path d="M158.487 387.769C158.247 387.683 158.088 387.513 157.928 387.257C157.768 387.001 157.689 386.83 157.689 386.489V370.618C157.689 370.277 157.848 369.935 158.088 369.679C158.327 369.423 158.646 369.253 158.966 369.253C159.285 369.253 159.604 369.423 159.844 369.679C160.083 369.935 160.243 370.277 160.243 370.618V386.404C160.243 386.574 160.163 386.83 160.083 387.001C160.003 387.171 159.843 387.342 159.684 387.513C159.524 387.598 159.285 387.684 159.125 387.684C158.886 387.854 158.646 387.769 158.487 387.769ZM158.487 356.112C158.247 356.027 158.088 355.856 157.928 355.6C157.768 355.429 157.689 355.173 157.689 354.832V339.046C157.689 338.876 157.689 338.619 157.769 338.449C157.848 338.278 157.928 338.107 158.008 337.937C158.088 337.851 158.247 337.681 158.407 337.596C158.566 337.51 158.726 337.51 158.886 337.51C159.045 337.51 159.205 337.596 159.365 337.596C159.524 337.681 159.684 337.766 159.764 337.937C159.843 338.107 160.003 338.278 160.003 338.449C160.083 338.619 160.083 338.79 160.083 339.046V354.832C160.083 355.173 159.923 355.514 159.684 355.77C159.444 356.026 159.125 356.197 158.806 356.197C158.806 356.282 158.646 356.197 158.487 356.112ZM158.487 324.54C158.247 324.455 158.088 324.284 157.928 324.028C157.768 323.858 157.689 323.517 157.689 323.261V307.389C157.689 307.048 157.848 306.707 158.088 306.536C158.327 306.28 158.646 306.195 158.966 306.195C159.285 306.195 159.604 306.28 159.844 306.536C160.083 306.707 160.243 307.048 160.243 307.389V323.175C160.243 323.346 160.242 323.517 160.163 323.687C160.083 323.858 160.003 324.028 159.923 324.114C159.843 324.199 159.684 324.37 159.524 324.455C159.364 324.54 159.205 324.54 159.046 324.54C158.806 324.626 158.646 324.626 158.487 324.54Z" fill="#110580"/>
<path d="M435.16 106.442H261.511C254.568 106.442 247.865 109.429 242.917 114.719C237.969 120.009 235.256 127.177 235.256 134.686H235.177C235.177 127.177 232.383 120.009 227.515 114.719C222.568 109.429 215.944 106.442 208.922 106.442H35.2726C34.3948 106.442 33.517 106.869 32.8786 107.551C32.2401 108.234 31.8409 109.173 31.8409 110.197V344.166C31.8409 345.105 32.2401 346.043 32.8786 346.811C33.517 347.494 34.3948 347.835 35.2726 347.835H214.428C216.343 351.76 219.216 354.917 222.727 357.221C226.239 359.44 230.229 360.634 234.379 360.72H236.134C240.204 360.72 244.194 359.525 247.785 357.221C251.296 355.003 254.169 351.76 256.164 347.921H435.24C436.118 347.921 436.995 347.494 437.634 346.811C438.272 346.128 438.672 345.19 438.672 344.166V110.282C438.672 109.77 438.591 109.258 438.432 108.831C438.272 108.405 438.033 107.978 437.714 107.637C437.395 107.296 436.996 107.04 436.597 106.784C436.038 106.613 435.559 106.442 435.16 106.442Z" fill="#4E53BA"/>
<path d="M422.072 116.084H258.957C252.653 116.084 246.588 118.729 242.199 123.508C237.73 128.286 235.256 134.771 235.256 141.512H235.177C235.177 138.184 234.538 134.856 233.341 131.784C232.144 128.712 230.388 125.897 228.234 123.508C225.999 121.118 223.445 119.241 220.573 117.961C217.7 116.681 214.587 115.999 211.475 115.999H48.3601C47.9611 115.999 47.562 116.084 47.163 116.255C46.764 116.425 46.445 116.681 46.1258 116.937C45.8066 117.279 45.6467 117.62 45.4871 118.047C45.3275 118.473 45.2479 118.9 45.2479 119.327V330.598C45.2479 331.025 45.3275 331.452 45.4871 331.878C45.6467 332.305 45.8864 332.646 46.1258 332.988C46.445 333.329 46.764 333.585 47.163 333.756C47.562 333.926 47.9611 334.011 48.3601 334.011H216.423C218.179 337.51 220.812 340.411 223.924 342.374C227.116 344.422 230.708 345.531 234.378 345.531H235.975C239.645 345.531 243.237 344.422 246.429 342.374C249.621 340.326 252.174 337.425 253.93 334.011H421.993C422.791 334.011 423.589 333.671 424.147 333.073C424.706 332.476 425.025 331.622 425.025 330.684V119.327C425.025 118.9 424.946 118.473 424.786 118.047C424.626 117.62 424.387 117.279 424.147 116.937C423.828 116.596 423.509 116.425 423.11 116.255C422.871 116.169 422.471 116.084 422.072 116.084Z" fill="#32378F"/>
<path d="M260.553 81.6118H416.885C417.763 81.6118 418.641 81.9533 419.2 82.6359C419.838 83.3185 420.157 84.1717 420.157 85.1103V324.796C420.157 325.735 419.838 326.674 419.2 327.356C418.561 328.039 417.763 328.38 416.885 328.38H247.865C246.189 328.38 244.593 328.039 242.997 327.356C241.481 326.674 240.044 325.65 238.927 324.455C237.73 323.175 236.852 321.725 236.214 320.018C235.575 318.397 235.256 316.605 235.256 314.813V108.746C235.256 101.493 237.89 94.5815 242.678 89.5471C247.386 84.4275 253.85 81.6118 260.553 81.6118Z" fill="#F5F5FA"/>
<path d="M222.568 328.38H53.6271C52.7492 328.38 51.8715 328.038 51.3129 327.356C50.6745 326.673 50.3551 325.734 50.3551 324.796V85.1103C50.3551 84.1717 50.6745 83.2332 51.3129 82.6359C51.9513 81.9533 52.7492 81.6118 53.6271 81.6118H209.959C216.662 81.6118 223.126 84.5128 227.914 89.5471C232.703 94.6668 235.336 101.578 235.336 108.746V314.812C235.336 316.604 235.017 318.396 234.378 320.017C233.74 321.724 232.783 323.175 231.665 324.455C230.468 325.735 229.112 326.673 227.595 327.441C225.84 328.038 224.243 328.465 222.568 328.38Z" fill="white"/>
<path d="M86.9841 199.961C94.0865 199.961 99.8323 193.818 99.8323 186.138C99.8323 178.459 94.0865 172.315 86.9841 172.315C79.8817 172.315 74.1359 178.459 74.1359 186.138C74.1359 193.818 79.8817 199.961 86.9841 199.961Z" fill="#E8E8F7"/>
<path d="M202.218 176.837H113.957C112.441 176.837 111.244 178.117 111.244 179.739C111.244 181.36 112.441 182.64 113.957 182.64H202.218C203.734 182.64 204.932 181.36 204.932 179.739C204.932 178.117 203.654 176.837 202.218 176.837Z" fill="#E8E8F7"/>
<path d="M174.846 190.149H113.878C112.361 190.149 111.164 191.429 111.164 193.05C111.164 194.671 112.361 195.951 113.878 195.951H174.846C176.362 195.951 177.559 194.671 177.559 193.05C177.559 191.514 176.362 190.149 174.846 190.149Z" fill="#E8E8F7"/>
<path d="M86.9841 293.993C94.0865 293.993 99.8323 287.849 99.8323 280.17C99.8323 272.576 94.0865 266.347 86.9841 266.347C79.8817 266.347 74.1359 272.491 74.1359 280.17C74.1359 287.764 79.8817 293.993 86.9841 293.993Z" fill="#E8E8F7"/>
<path d="M202.218 284.18H113.957C112.441 284.18 111.244 285.46 111.244 287.081C111.244 288.702 112.441 289.982 113.957 289.982H202.218C203.734 289.982 204.932 288.702 204.932 287.081C204.852 285.46 203.654 284.18 202.218 284.18Z" fill="#E8E8F7"/>
<path d="M174.846 270.869H113.878C112.361 270.869 111.164 272.149 111.164 273.77C111.164 275.392 112.361 276.671 113.878 276.671H174.846C176.362 276.671 177.559 275.392 177.559 273.77C177.559 272.149 176.362 270.869 174.846 270.869Z" fill="#E8E8F7"/>
<path d="M86.9841 246.978C94.0865 246.978 99.8323 240.834 99.8323 233.155C99.8323 225.56 94.0865 219.331 86.9841 219.331C79.8817 219.331 74.1359 225.475 74.1359 233.155C74.1359 240.834 79.8817 246.978 86.9841 246.978Z" fill="#E8E8F7"/>
<path d="M202.218 237.165H113.957C112.441 237.165 111.244 238.445 111.244 240.066C111.244 241.687 112.441 242.967 113.957 242.967H202.218C203.734 242.967 204.932 241.687 204.932 240.066C204.932 238.445 203.654 237.165 202.218 237.165Z" fill="#E8E8F7"/>
<path d="M188.492 223.854H113.878C112.361 223.854 111.164 225.133 111.164 226.754C111.164 228.376 112.361 229.655 113.878 229.655H188.492C190.009 229.655 191.206 228.376 191.206 226.754C191.206 225.133 190.009 223.854 188.492 223.854Z" fill="#E8E8F7"/>
<path d="M274.918 199.961C282.02 199.961 287.766 193.818 287.766 186.138C287.766 178.459 282.02 172.315 274.918 172.315C267.815 172.315 262.07 178.459 262.07 186.138C262.07 193.818 267.815 199.961 274.918 199.961Z" fill="#C5C6E3"/>
<path d="M390.072 237.335H301.811C300.295 237.335 299.098 238.615 299.098 240.236C299.098 241.857 300.295 243.137 301.811 243.137H390.072C391.588 243.137 392.785 241.857 392.785 240.236C392.785 238.615 391.588 237.335 390.072 237.335Z" fill="#C5C6E3"/>
<path d="M362.78 223.938H301.811C300.295 223.938 299.098 225.219 299.098 226.84C299.098 228.461 300.295 229.741 301.811 229.741H362.78C364.296 229.741 365.493 228.461 365.493 226.84C365.493 225.219 364.296 223.938 362.78 223.938Z" fill="#C5C6E3"/>
<path d="M274.918 293.993C282.02 293.993 287.766 287.849 287.766 280.17C287.766 272.576 282.02 266.347 274.918 266.347C267.815 266.347 262.07 272.491 262.07 280.17C262.07 287.764 267.815 293.993 274.918 293.993Z" fill="#C5C6E3"/>
<path d="M390.072 176.837H301.811C300.295 176.837 299.098 178.117 299.098 179.739C299.098 181.36 300.295 182.64 301.811 182.64H390.072C391.588 182.64 392.785 181.36 392.785 179.739C392.785 178.117 391.588 176.837 390.072 176.837Z" fill="#C5C6E3"/>
<path d="M362.78 190.149H301.811C300.295 190.149 299.098 191.429 299.098 193.05C299.098 194.671 300.295 195.951 301.811 195.951H362.78C364.296 195.951 365.493 194.671 365.493 193.05C365.493 191.514 364.296 190.149 362.78 190.149Z" fill="#C5C6E3"/>
<path d="M274.918 246.978C282.02 246.978 287.766 240.834 287.766 233.155C287.766 225.56 282.02 219.331 274.918 219.331C267.815 219.331 262.07 225.475 262.07 233.155C262.07 240.834 267.815 246.978 274.918 246.978Z" fill="#C5C6E3"/>
<path d="M390.072 271.039H301.811C300.295 271.039 299.098 272.319 299.098 273.94C299.098 275.562 300.295 276.842 301.811 276.842H390.072C391.588 276.842 392.785 275.562 392.785 273.94C392.785 272.319 391.588 271.039 390.072 271.039Z" fill="#C5C6E3"/>
<path d="M376.426 284.436H301.811C300.295 284.436 299.098 285.716 299.098 287.337C299.098 288.958 300.295 290.238 301.811 290.238H376.426C377.942 290.238 379.139 288.958 379.139 287.337C379.139 285.716 377.942 284.436 376.426 284.436Z" fill="#C5C6E3"/>
<path d="M156.172 105.077C149.788 112.927 143.883 121.204 138.536 129.822C135.743 125.641 131.514 122.825 126.885 121.801C124.252 121.289 120.9 121.289 119.144 123.081C118.825 123.337 118.506 123.678 118.187 124.02C116.271 125.982 115.314 129.481 118.426 131.614C120.9 133.235 123.214 134.259 125.05 136.477C127.444 139.634 129.279 143.133 130.636 146.887C133.11 153.031 143.245 153.287 145.479 147.57C150.746 134.259 156.891 121.374 163.754 108.917C165.988 104.992 159.205 101.408 156.172 105.077Z" fill="#66A896"/>
<path d="M343.308 103.456C331.019 111.562 320.086 122.227 312.824 135.197C310.988 138.525 310.908 143.133 311.946 146.716C312.584 149.02 314.18 152.348 316.415 149.618C325.432 138.867 334.45 128.627 345.463 119.838C348.974 117.022 347.378 100.725 343.308 103.456Z" fill="#FF5856"/>
<path d="M309.951 121.887C321.602 131.358 334.131 138.184 342.989 150.813C345.064 153.799 347.059 150.386 347.617 148.253C348.735 144.157 348.575 139.805 347.059 135.88C340.675 121.118 326.31 110.196 311.308 105.332C305.801 103.626 306.839 119.327 309.951 121.887Z" fill="#FF5856"/>
<path d="M204.213 54.2212C204.054 54.2212 203.974 54.2212 203.814 54.2212C203.575 54.1359 203.336 53.9651 203.256 53.7091C203.096 53.4531 203.096 53.1972 203.176 52.9412C203.735 50.8933 204.453 48.8453 205.41 46.8828C205.57 46.6268 205.73 46.4564 205.969 46.3711C206.208 46.2858 206.528 46.2855 206.687 46.4561C206.927 46.6268 207.086 46.7976 207.166 47.0536C207.246 47.3096 207.246 47.6508 207.086 47.8215C206.208 49.6134 205.49 51.4906 205.011 53.3679C204.932 53.5386 204.852 53.7093 204.692 53.88C204.612 54.0506 204.453 54.1359 204.213 54.2212Z" fill="#110580"/>
<path d="M368.047 95.3491C367.967 95.3491 367.807 95.3491 367.648 95.3491L366.211 95.0079C362.939 94.1546 359.508 93.3866 355.917 92.3626C355.677 92.2773 355.518 92.1066 355.358 91.8506C355.279 91.5946 355.199 91.3387 355.278 91.0827C355.358 90.8268 355.518 90.5706 355.677 90.4853C355.917 90.3146 356.156 90.3149 356.396 90.3149C359.987 91.3388 363.338 92.1917 366.69 92.9597L368.127 93.3013C368.366 93.3867 368.605 93.557 368.765 93.813C368.925 94.069 368.925 94.3253 368.925 94.5813C368.845 94.7519 368.765 95.0076 368.605 95.0929C368.446 95.2635 368.286 95.3491 368.047 95.3491ZM344.824 88.6083C344.665 88.6083 344.505 88.6083 344.345 88.6083C340.515 87.1577 336.764 85.4512 333.173 83.4887C332.934 83.318 332.774 83.1472 332.774 82.8912C332.694 82.6352 332.774 82.3793 332.854 82.1233C332.934 81.8673 333.173 81.6966 333.413 81.6113C333.652 81.5259 333.892 81.5259 334.131 81.6113C337.642 83.4885 341.313 85.1949 345.064 86.5601C345.223 86.6454 345.303 86.6457 345.383 86.8163C345.463 86.9017 345.543 86.9869 345.622 87.1576C345.702 87.2429 345.702 87.4136 345.702 87.5842C345.702 87.7549 345.702 87.8402 345.622 88.0109C345.543 88.1815 345.463 88.3522 345.303 88.4375C345.144 88.4375 344.984 88.523 344.824 88.6083ZM323.677 76.6624C323.517 76.6624 323.437 76.6624 323.278 76.6624C323.118 76.6624 323.038 76.5769 322.959 76.4916C319.687 73.8465 316.734 70.86 314.101 67.5322C313.941 67.3616 313.861 67.0203 313.861 66.7643C313.861 66.5084 314.021 66.2525 314.18 65.9965C314.34 65.8258 314.659 65.7402 314.899 65.7402C315.138 65.7402 315.377 65.9108 315.537 66.0815C318.091 69.3239 320.964 72.2252 324.076 74.7851C324.156 74.8704 324.235 74.9556 324.315 75.1263C324.395 75.2116 324.395 75.3823 324.475 75.5529C324.475 75.7236 324.475 75.8089 324.475 75.9796C324.475 76.1502 324.395 76.2355 324.315 76.3208C324.235 76.4061 324.156 76.4917 323.996 76.577C323.916 76.577 323.757 76.6624 323.677 76.6624ZM308.115 57.2075C307.956 57.2075 307.716 57.2074 307.557 57.1221C307.397 57.0367 307.237 56.8661 307.158 56.6954C305.242 52.8557 303.726 48.7601 302.609 44.4937C302.609 44.3231 302.529 44.2378 302.609 44.0671C302.609 43.8964 302.689 43.8111 302.689 43.6405C302.769 43.5551 302.849 43.3846 302.928 43.2992C303.008 43.2139 303.168 43.1284 303.247 43.1284C303.487 43.0431 303.806 43.1285 303.966 43.2138C304.205 43.3845 304.365 43.5553 304.444 43.8113C305.482 47.907 306.998 51.8318 308.834 55.5009C308.993 55.7569 308.993 56.0128 308.913 56.2688C308.834 56.5248 308.674 56.7809 308.435 56.8662C308.355 57.1222 308.275 57.1221 308.115 57.2075ZM312.904 42.7018C310.669 43.0431 308.435 43.2137 306.2 43.1284C305.961 43.1284 305.722 43.0432 305.482 42.7872C305.323 42.6165 305.163 42.2753 305.163 42.0193C305.163 41.7633 305.243 41.5074 305.482 41.2514C305.642 41.0808 305.881 40.9098 306.2 40.9098C308.355 40.9098 310.51 40.8245 312.584 40.4832C314.34 40.2272 316.096 39.886 317.772 39.3741C317.931 39.3741 318.011 39.2887 318.171 39.3741C318.33 39.3741 318.41 39.4596 318.57 39.5449C318.649 39.6302 318.809 39.7154 318.889 39.8007C318.969 39.886 319.048 40.0566 319.048 40.1419C319.048 40.3126 319.128 40.3979 319.048 40.5686C319.048 40.7392 318.969 40.8246 318.969 40.9952C318.889 41.0805 318.809 41.2511 318.729 41.3364C318.649 41.4218 318.49 41.5073 318.41 41.5073C316.574 42.1046 314.739 42.4458 312.904 42.7018ZM294.469 41.6781C294.389 41.6781 294.23 41.6781 294.15 41.6781C290.719 40.9101 287.048 39.8862 282.419 38.265C282.18 38.1797 282.1 37.9236 281.941 37.7529C281.861 37.4969 281.861 37.2407 281.941 37.0701C282.02 36.8141 282.18 36.6437 282.34 36.473C282.499 36.3024 282.738 36.3022 282.978 36.3022C287.527 37.8381 291.118 38.8619 294.469 39.6299C294.709 39.7152 294.948 39.8009 295.028 39.9715C295.188 40.1422 295.267 40.398 295.267 40.654C295.267 40.91 295.188 41.1658 295.028 41.3364C294.868 41.5924 294.629 41.6781 294.469 41.6781ZM329.103 36.0464C328.944 36.0464 328.784 36.0463 328.625 35.961C328.465 35.8756 328.305 35.7904 328.226 35.6197C328.066 35.3638 327.986 35.1079 328.066 34.8519C328.066 34.5959 328.226 34.3397 328.465 34.169C330.141 32.8891 331.657 31.3534 332.934 29.6468C334.051 28.1962 335.009 26.4895 335.727 24.783C335.807 24.527 336.046 24.3566 336.285 24.1859C336.525 24.1006 336.844 24.1006 337.083 24.1859C337.323 24.2712 337.483 24.527 337.642 24.783C337.722 25.0389 337.722 25.3802 337.642 25.6362C336.844 27.5988 335.807 29.3909 334.53 31.0121C333.094 32.804 331.497 34.425 329.742 35.8756C329.423 35.9609 329.263 36.0464 329.103 36.0464ZM301.891 32.4624H301.731C301.572 32.4624 301.492 32.4624 301.332 32.377C301.173 32.2917 301.093 32.2065 301.013 32.1212C300.933 32.0359 300.853 31.9506 300.773 31.78C300.694 31.6947 300.694 31.524 300.694 31.3534C300.614 26.9163 301.173 22.479 302.529 18.298C302.609 18.042 302.769 17.7863 303.008 17.7009C303.248 17.6156 303.487 17.5302 303.726 17.6155C303.966 17.7008 304.205 17.8716 304.285 18.1276C304.365 18.3835 304.444 18.6395 304.365 18.9808C303.168 22.9912 302.529 27.1724 302.609 31.4388C302.609 31.6947 302.529 31.9506 302.37 32.1212C302.29 32.3772 302.13 32.4624 301.891 32.4624ZM271.407 34.2544C271.247 34.2544 271.087 34.2544 271.008 34.2544C269.651 33.8278 268.294 33.3157 267.017 32.8891C264.384 32.0358 261.91 31.3532 259.516 30.7559C259.277 30.6706 259.037 30.4998 258.877 30.2438C258.718 29.9879 258.718 29.732 258.718 29.476C258.718 29.3053 258.798 29.2201 258.877 29.1347C258.957 29.0494 259.037 28.9643 259.197 28.8789C259.277 28.7936 259.436 28.7934 259.596 28.7081C259.756 28.7081 259.835 28.7081 259.995 28.7081C262.389 29.3054 264.943 30.0734 267.576 30.9267C268.933 31.3534 270.289 31.7801 271.646 32.292C271.885 32.3774 272.045 32.548 272.205 32.7187C272.364 32.8893 272.364 33.1452 272.364 33.4011C272.364 33.6571 272.284 33.8276 272.125 34.0836C271.805 34.1689 271.646 34.2544 271.407 34.2544ZM214.109 38.4354C213.949 38.4354 213.79 38.4353 213.63 38.35C213.47 38.2646 213.311 38.1794 213.231 38.0087C213.151 37.9234 213.071 37.7528 213.071 37.6675C213.071 37.5822 212.991 37.4115 213.071 37.2409C213.071 37.0702 213.151 36.9849 213.151 36.8142C213.231 36.7289 213.311 36.5583 213.39 36.473C216.582 33.6572 220.094 31.3534 223.924 29.7322C224.004 29.6469 224.164 29.6468 224.323 29.6468C224.483 29.6468 224.563 29.6469 224.722 29.7322C224.802 29.8175 224.962 29.9027 225.042 29.988C225.121 30.0734 225.201 30.2439 225.281 30.3293C225.361 30.5852 225.361 30.9265 225.281 31.1825C225.201 31.4385 224.962 31.6093 224.722 31.78C221.131 33.3159 217.7 35.5344 214.747 38.1796C214.428 38.3502 214.268 38.4354 214.109 38.4354ZM248.025 28.6227C247.945 28.6227 247.865 28.6227 247.785 28.6227C243.875 28.1961 239.885 28.2815 235.975 28.7081C235.735 28.7081 235.496 28.623 235.336 28.4523C235.176 28.2816 235.017 28.0254 235.017 27.7694C235.017 27.5134 235.017 27.2575 235.177 27.0016C235.336 26.7456 235.496 26.6602 235.735 26.5749C239.805 26.1483 243.875 26.1483 247.945 26.5749C248.184 26.5749 248.423 26.7455 248.583 26.9161C248.743 27.1721 248.823 27.428 248.823 27.684C248.823 27.94 248.663 28.1108 248.503 28.2815C248.344 28.5375 248.184 28.708 248.025 28.6227ZM338.28 13.6049C338.041 13.6049 337.802 13.6052 337.562 13.4345C337.323 13.2639 337.243 13.0076 337.163 12.7517C336.684 9.42389 335.088 6.4375 332.694 4.30431C332.215 3.87767 331.657 3.53653 331.098 3.19521C330.939 3.02456 330.859 2.85374 330.779 2.59775C330.779 2.34177 330.779 2.17128 330.859 1.9153C330.939 1.65932 331.098 1.57399 331.338 1.48866C331.497 1.40333 331.737 1.40325 331.976 1.40325C332.615 1.82989 333.173 2.25653 333.812 2.68317C336.605 5.15767 338.44 8.57069 339.078 12.4104C339.158 12.6664 339.079 12.9223 338.919 13.1783C338.68 13.349 338.44 13.5196 338.28 13.6049ZM309.791 8.74151C309.632 8.74151 309.472 8.74143 309.312 8.6561C309.153 8.57078 309.073 8.48561 308.913 8.40029C308.834 8.31496 308.754 8.14397 308.674 8.05864C308.594 7.88799 308.594 7.80266 308.594 7.632C308.594 7.46135 308.594 7.37602 308.674 7.20537C308.754 7.03471 308.834 6.94947 308.913 6.86414C311.866 3.70701 315.457 1.31784 319.527 0.0379234C319.687 0.0379234 319.766 -0.0474043 319.926 0.0379234C320.086 0.0379234 320.165 0.123334 320.325 0.123334C320.405 0.208662 320.565 0.293823 320.645 0.379151C320.724 0.464479 320.804 0.635467 320.804 0.720795C320.804 0.89145 320.884 0.976778 320.804 1.14743C320.804 1.31809 320.724 1.40342 320.724 1.57407C320.644 1.6594 320.565 1.82997 320.485 1.9153C320.405 2.00063 320.245 2.0857 320.166 2.0857C316.495 3.28029 313.063 5.41373 310.43 8.31488C310.11 8.65619 309.951 8.74151 309.791 8.74151Z" fill="#110580"/>
<path d="M385.044 101.408C384.805 101.408 384.566 101.408 384.326 101.237C382.73 100.128 381.055 99.2746 379.299 98.6774C379.139 98.6774 379.06 98.5919 378.9 98.5066C378.82 98.4213 378.74 98.3361 378.66 98.1654C378.58 97.9948 378.58 97.9095 378.58 97.7388C378.58 97.5682 378.58 97.4829 378.66 97.3123C378.74 97.1416 378.74 97.0564 378.9 96.9711C378.98 96.8858 379.139 96.8006 379.219 96.7153C379.379 96.63 379.458 96.6299 379.618 96.6299C379.778 96.6299 379.857 96.63 380.017 96.7153C381.932 97.3978 383.768 98.2507 385.523 99.4452C385.603 99.5305 385.763 99.6161 385.763 99.7014C385.842 99.7867 385.843 99.9572 385.922 100.043C385.922 100.213 385.922 100.299 385.922 100.469C385.922 100.64 385.842 100.725 385.763 100.81C385.683 100.981 385.603 101.066 385.443 101.152C385.284 101.322 385.124 101.408 385.044 101.408Z" fill="#110580"/>
</svg>
